<svg width="281" height="435" viewBox="0 0 281 435" fill="none" xmlns="http://www.w3.org/2000/svg">
    <g style="mix-blend-mode:multiply" opacity="0.3">
        <path d="M258.88 417.61C258.88 426.85 205.88 434.35 140.58 434.35C75.2795 434.35 22.2795 426.85 22.2795 417.61C22.2795 408.37 75.2795 400.88 140.58 400.88C205.88 400.88 258.88 408.37 258.88 417.61Z" fill="#4D4D4D"/>
    </g>
    <path d="M63.0696 370.5C64.0696 383.59 64.0696 396.69 66.0696 408.33C75.9896 415.6 93.8496 411.24 105.75 408.33C105.75 395.23 105.75 380.68 106.75 367.59C93.8496 367.59 81.9396 367.59 69.0496 366.13C66.9591 369.106 65.905 372.686 66.0496 376.32" fill="#ED9498"/>
    <path d="M107.81 370.5C108.81 383.59 108.81 396.69 110.81 408.33C120.74 415.6 138.59 411.24 150.49 408.33C150.49 395.23 150.49 380.68 151.49 367.59C138.59 367.59 126.68 367.59 113.79 366.13C111.699 369.106 110.645 372.686 110.79 376.32" fill="#ED9498"/>
    <path d="M222 209.13C234.3 221.04 249.09 231.52 258.66 245.93C261.17 249.71 265.66 247.93 267.24 244.68C272.39 236.99 275.65 227.68 277.83 218.78C279.51 211.88 282.89 199.18 277.04 193.2C270.78 186.8 258.26 190.7 250.92 192.71C241.67 195.23 232.65 198.47 223.63 201.71C220.87 202.74 219.84 207.05 222 209.13Z" fill="#EF8077"/>
    <path d="M235.05 189.05C208.71 161.83 171.58 153.51 134.94 155.23C65.1796 158.52 11.3196 210.34 13.6196 283.23C15.2396 334.46 51.1896 377.48 98.7996 393.41C139.8 407.13 188.97 402.36 223.56 375.59C251.45 354.01 266.43 319.17 268.77 284.59C271.11 249.73 259.4 214.16 235.05 189.05Z" fill="#FFA9A2"/>
    <path d="M228.09 264.36C217.35 254.54 202.21 251.54 187.27 252.16C158.83 253.34 136.86 272.04 137.8 298.32C138.47 316.8 153.12 332.32 172.54 338.07C189.23 343.01 209.3 341.29 223.4 331.64C234.77 323.85 240.88 311.28 241.83 298.81C242.3 292.402 241.308 285.971 238.927 280.003C236.547 274.034 232.841 268.685 228.09 264.36Z" fill="#EF8077"/>
    <path d="M181.6 282.05C174.47 286.3 175.72 299.43 175.4 306.46C175.08 313.49 186.88 313.57 186.46 306.46C186.23 302.77 185.81 299.09 185.54 295.41C185.27 291.73 186.27 288.21 186.1 284.64C186.098 284.114 185.959 283.598 185.695 283.143C185.431 282.688 185.052 282.31 184.596 282.048C184.14 281.786 183.624 281.648 183.098 281.648C182.572 281.648 182.055 281.787 181.6 282.05Z" fill="#852438"/>
    <path d="M209.4 284.61C209.25 287.71 210.09 290.87 210.03 294.03C209.95 298.17 209.31 302.3 209.03 306.43C208.6 313.54 220.41 313.58 220.09 306.43C219.77 299.28 221.02 286.27 213.89 282.02C213.434 281.755 212.916 281.614 212.389 281.612C211.861 281.611 211.343 281.748 210.886 282.011C210.428 282.273 210.048 282.652 209.784 283.108C209.519 283.565 209.38 284.083 209.38 284.61H209.4Z" fill="#852438"/>
    <path d="M134.4 250.05C137.99 245.49 142.76 243.68 148.46 244.05C155.08 244.46 156.85 250.05 161.7 253C161.879 253.106 162.08 253.169 162.287 253.185C162.495 253.201 162.703 253.169 162.896 253.092C163.089 253.014 163.262 252.894 163.402 252.739C163.541 252.585 163.643 252.4 163.7 252.2C165.95 244.92 156.09 239.65 150.37 238.59C146.632 237.872 142.763 238.346 139.309 239.944C135.856 241.543 132.991 244.186 131.12 247.5C130.03 249.5 132.9 252.01 134.43 250.06L134.4 250.05Z" fill="#852438"/>
    <path d="M245.16 248.05C242.79 241.95 237.1 237.45 230.28 238.5C224.66 239.37 215.74 246.02 219.05 252.56C219.233 252.865 219.528 253.085 219.872 253.175C220.216 253.265 220.581 253.216 220.89 253.04C224.73 250.79 225.36 245.88 230.05 244.34C234.74 242.8 238.89 245.94 241.3 249.67C242.54 251.59 246.06 250.37 245.16 248.05Z" fill="#852438"/>
    <path d="M125.85 201.75C116.85 198.47 107.85 195.23 98.5597 192.75C91.2197 190.75 78.6997 186.84 72.4497 193.24C66.5897 199.24 69.9697 211.92 71.6597 218.82C73.8397 227.74 77.0897 237.03 82.2497 244.72C83.8397 247.98 88.3197 249.72 90.8297 245.97C100.4 231.56 115.18 221.08 127.48 209.17C129.59 207.05 128.57 202.74 125.85 201.75Z" fill="#EF8077"/>
    <path d="M126.37 387.18C127.11 397 127.11 406.82 128.6 415.55C136.04 421.01 149.43 417.73 158.36 415.55C158.36 405.73 158.36 394.82 159.1 385C149.43 385 140.5 385 130.83 383.91C129.269 386.143 128.486 388.828 128.6 391.55" fill="#FFA9A2"/>
    <path d="M123.15 387.18C123.39 394.07 123.15 400.94 123.29 407.83C123.38 413.83 122.45 418.32 128.29 421.63C137.2 426.72 150.73 423.98 159.9 421.04C162.19 420.31 164.25 418.13 164.08 415.55C163.73 410.49 163.99 405.35 164.08 400.27C164.17 395.19 163.86 389.98 164.46 385C164.82 382 161.76 379.74 159.12 379.66C149.69 379.34 140.23 379.11 130.85 378.08C128.85 377.87 126.85 379.36 125.85 380.97C124.231 383.606 123.325 386.618 123.22 389.71C123.217 390.673 123.468 391.62 123.947 392.456C124.426 393.291 125.117 393.986 125.95 394.47C132.04 397.97 133.6 390.66 135.95 386.84L130.95 389.73C140.349 390.563 149.793 390.767 159.22 390.34L153.76 385.05C153.66 390.12 152.93 395.21 152.84 400.32C152.75 405.43 153.02 410.53 152.67 415.6L156.85 410.11C148.57 411.52 139.27 415.23 131.23 411.11L133.64 414.23C131.3 405.35 130.55 396.38 129.64 387.23C129.21 383.23 123.04 383 123.2 387.23L123.15 387.18Z" fill="#FFA9A2"/>
    <path d="M172.2 387.18C172.94 397 172.94 406.82 174.43 415.55C181.87 421.01 195.26 417.73 204.19 415.55C204.19 405.73 204.19 394.82 204.93 385C195.26 385 186.33 385 176.66 383.91C175.099 386.143 174.316 388.828 174.43 391.55" fill="#FFA9A2"/>
    <path d="M169 387.18C169.24 394.07 169.05 400.94 169.14 407.83C169.23 413.83 168.3 418.32 174.14 421.63C183.06 426.72 196.58 423.98 205.76 421.04C208.06 420.31 210.12 418.13 209.94 415.55C209.59 410.49 209.85 405.35 209.94 400.27C210.03 395.19 209.72 389.98 210.33 385C210.69 382 207.62 379.74 204.98 379.66C195.55 379.34 186.09 379.11 176.71 378.08C174.71 377.87 172.71 379.36 171.71 380.97C170.086 383.604 169.179 386.617 169.08 389.71C169.076 390.675 169.328 391.623 169.809 392.459C170.29 393.295 170.984 393.989 171.82 394.47C177.9 397.97 179.46 390.66 181.77 386.84L176.77 389.73C186.169 390.563 195.613 390.767 205.04 390.34L199.59 385.05C199.49 390.12 198.76 395.21 198.67 400.32C198.58 405.43 198.85 410.53 198.5 415.6L202.67 410.11C194.4 411.52 185.11 415.23 177.07 411.11L179.47 414.23C177.13 405.35 176.38 396.38 175.42 387.23C174.99 383.23 168.82 383 168.98 387.23L169 387.18Z" fill="#FFA9A2"/>
    <path d="M5.10963 159.49C-0.620367 170.62 -4.46037 192.7 10.1896 198.61C18.2496 201.87 25.9496 197.29 29.7396 190.27C32.2596 185.59 34.4096 176 27.3096 174.01C13.7596 170.2 7.30963 183.09 6.55963 194.64C5.74963 207.88 11.8496 222.64 23.7596 229.32C28.6496 232.04 34.5596 232.64 40.0196 231.89C45.4796 231.14 55.0196 228.11 57.4596 222.5C57.6542 222.144 57.7546 221.744 57.7512 221.339C57.7479 220.933 57.641 220.535 57.4406 220.183C57.2403 219.83 56.9531 219.534 56.6064 219.324C56.2597 219.113 55.8649 218.995 55.4596 218.98C51.8396 218.74 48.0296 221.12 44.6096 222.22C41.3374 223.287 37.8966 223.741 34.4596 223.56C29.1896 223.27 24.5796 220.06 21.2296 216.21C14.4796 208.48 11.7596 195.37 14.8196 185.62C15.3805 183.649 16.47 181.869 17.9701 180.473C19.4701 179.077 21.3236 178.118 23.3296 177.7C28.8096 176.49 28.7696 181.87 27.1396 185.31C25.5327 188.696 22.8593 191.46 19.5296 193.18C11.5296 197.1 6.12963 189.57 4.77963 182.86C3.35963 175.78 4.64963 167.48 7.56963 160.92C8.30963 159.28 5.96963 157.84 5.12963 159.49H5.10963Z" fill="#FFA9A2"/>
    <path d="M132.91 154.75C132.91 154.75 162.38 151.48 175.47 179.85H196.2C196.2 179.85 182 144.93 144.92 148.21L132.91 154.75Z" fill="#ED9498"/>
    <path d="M127.45 156.93C127.45 156.93 156.92 153.66 170 182.05H190.74C190.74 182.05 176.55 147.13 139.45 150.4L127.45 156.93Z" fill="#852438"/>
    <path d="M40.8796 219.82C31.5696 231.94 28.0496 248.2 27.1596 263.13C26.6046 271.372 27.2241 279.652 28.9996 287.72C30.3896 293.84 33.0496 302.14 39.4296 304.72C41.0396 305.37 42.9596 303.72 42.8696 302.09C42.5796 296.46 39.5196 290.72 38.3596 285.17C36.9765 277.923 36.403 270.544 36.6496 263.17C36.8996 249.9 38.3096 234.11 45.9696 222.85C48.1696 219.63 43.1296 216.93 40.8696 219.85L40.8796 219.82Z" fill="white"/>
    <path d="M40.5197 331.6C40.8197 331.72 41.1397 331.88 41.4497 331.97C43.3345 332.468 45.3397 332.202 47.0297 331.23C48.502 330.322 49.6004 328.916 50.1262 327.268C50.6519 325.62 50.5702 323.838 49.8957 322.245C49.2213 320.652 47.9988 319.353 46.4495 318.584C44.9002 317.814 43.1265 317.625 41.4497 318.05C41.1326 318.151 40.822 318.271 40.5197 318.41C39.3803 318.723 38.3449 319.334 37.5197 320.18C36.884 320.817 36.3801 321.574 36.0369 322.406C35.6938 323.238 35.518 324.13 35.5197 325.03C35.5123 326.247 35.8373 327.444 36.4597 328.49C36.8097 328.96 37.1697 329.42 37.5297 329.89C38.3582 330.729 39.3927 331.336 40.5297 331.65L40.5197 331.6Z" fill="white"/>
    <path d="M191.75 111.37C191.752 117.716 189.872 123.919 186.347 129.197C182.823 134.474 177.813 138.587 171.951 141.016C166.088 143.445 159.637 144.082 153.414 142.844C147.19 141.607 141.473 138.551 136.986 134.064C132.499 129.577 129.443 123.86 128.206 117.636C126.968 111.412 127.604 104.961 130.033 99.0989C132.463 93.2367 136.576 88.2266 141.853 84.7023C147.13 81.1781 153.334 79.2981 159.68 79.3001C168.185 79.3001 176.342 82.6788 182.357 88.6931C188.371 94.7074 191.75 102.865 191.75 111.37Z" fill="#F19238"/>
    <path d="M188.12 113.91C188.12 120.253 186.239 126.453 182.715 131.727C179.191 137.001 174.182 141.111 168.322 143.539C162.462 145.966 156.014 146.601 149.793 145.364C143.572 144.126 137.858 141.072 133.373 136.587C128.888 132.102 125.833 126.387 124.596 120.167C123.358 113.946 123.993 107.497 126.421 101.637C128.848 95.7773 132.958 90.7686 138.232 87.2447C143.506 83.7208 149.707 81.84 156.05 81.84C164.555 81.84 172.712 85.2188 178.726 91.233C184.741 97.2473 188.12 105.404 188.12 113.91Z" fill="#FDC65C"/>
    <path d="M181.6 113.91C181.6 118.963 180.101 123.903 177.294 128.105C174.486 132.306 170.496 135.581 165.827 137.515C161.158 139.449 156.021 139.955 151.065 138.969C146.109 137.983 141.556 135.55 137.983 131.977C134.41 128.403 131.976 123.851 130.99 118.895C130.005 113.938 130.511 108.801 132.444 104.132C134.378 99.4638 137.653 95.4734 141.855 92.6659C146.056 89.8585 150.996 88.36 156.05 88.36C162.826 88.36 169.325 91.0519 174.116 95.8434C178.908 100.635 181.6 107.134 181.6 113.91Z" fill="#FDA73A"/>
    <path d="M162.02 117.691C162.02 116.388 161.559 115.29 160.638 114.398C159.732 113.505 158.195 112.698 156.027 111.975C153.01 111.054 150.807 109.857 149.418 108.384C148.044 106.896 147.357 105.012 147.357 102.731C147.357 100.408 148.03 98.5025 149.376 97.015C150.736 95.5275 152.599 94.6421 154.965 94.3588V89.705H158.131V94.38C160.511 94.7059 162.36 95.7046 163.677 97.3763C165.009 99.048 165.675 101.336 165.675 104.24H161.765C161.765 102.243 161.29 100.656 160.341 99.48C159.392 98.3042 158.11 97.7163 156.495 97.7163C154.809 97.7163 153.52 98.1555 152.627 99.0338C151.735 99.898 151.288 101.109 151.288 102.668C151.288 104.113 151.756 105.267 152.691 106.131C153.64 106.981 155.191 107.76 157.345 108.469C159.512 109.163 161.198 109.935 162.402 110.785C163.62 111.621 164.513 112.598 165.08 113.718C165.66 114.837 165.951 116.147 165.951 117.649C165.951 120.043 165.228 121.97 163.783 123.429C162.353 124.888 160.341 125.752 157.748 126.021V130.08H154.603V126.021C151.968 125.78 149.9 124.845 148.398 123.216C146.911 121.573 146.167 119.349 146.167 116.544H150.098C150.098 118.513 150.615 120.029 151.65 121.091C152.684 122.154 154.15 122.685 156.048 122.685C157.904 122.685 159.363 122.239 160.426 121.346C161.488 120.454 162.02 119.235 162.02 117.691Z" fill="#F3E898"/>
    <path d="M138.4 55.05C138.402 60.567 136.767 65.9606 133.703 70.5487C130.64 75.1367 126.284 78.713 121.187 80.8251C116.091 82.9373 110.482 83.4905 105.071 82.4146C99.66 81.3388 94.6895 78.6823 90.7884 74.7813C86.8873 70.8802 84.2309 65.9097 83.1551 60.4987C82.0792 55.0876 82.6324 49.479 84.7446 44.3824C86.8567 39.2857 90.433 34.93 95.021 31.8662C99.609 28.8024 105.003 27.1681 110.52 27.17C117.913 27.1727 125.003 30.1109 130.231 35.3388C135.459 40.5668 138.397 47.6566 138.4 55.05Z" fill="#F19238"/>
    <path d="M135.25 57.21C135.252 62.7269 133.617 68.1206 130.554 72.7086C127.49 77.2966 123.134 80.8729 118.037 82.985C112.941 85.0972 107.332 85.6504 101.921 84.5745C96.5101 83.4987 91.5396 80.8423 87.6385 76.9412C83.7374 73.0401 81.081 68.0696 80.0051 62.6586C78.9293 57.2475 79.4825 51.6389 81.5947 46.5423C83.7068 41.4457 87.2831 37.0899 91.8711 34.0261C96.4591 30.9623 101.853 29.328 107.37 29.33C114.763 29.3326 121.853 32.2708 127.081 37.4987C132.309 42.7267 135.247 49.8165 135.25 57.21Z" fill="#FDC65C"/>
    <path d="M129.58 57.2101C129.591 61.6077 128.298 65.91 125.863 69.5722C123.429 73.2343 119.962 76.0917 115.902 77.7823C111.842 79.473 107.372 79.9211 103.058 79.0697C98.7434 78.2183 94.7786 76.1058 91.6655 72.9997C88.5523 69.8935 86.4309 65.9335 85.5698 61.6209C84.7087 57.3084 85.1466 52.8373 86.8282 48.7738C88.5097 44.7103 91.3592 41.2372 95.0159 38.7941C98.6725 36.3511 102.972 35.0481 107.37 35.0501C113.251 35.05 118.893 37.3831 123.057 41.5375C127.221 45.6919 129.566 51.3283 129.58 57.2101Z" fill="#FDA73A"/>
    <path d="M102.135 67.2927C102.135 66.9333 102.008 66.6306 101.754 66.3845C101.504 66.1384 101.081 65.9158 100.483 65.7166C99.6509 65.4626 99.0435 65.1326 98.6606 64.7263C98.2817 64.3162 98.0923 63.7966 98.0923 63.1677C98.0923 62.5271 98.2778 62.0017 98.6489 61.5916C99.0239 61.1814 99.5376 60.9373 100.19 60.8591V59.5759H101.063V60.865C101.719 60.9548 102.229 61.2302 102.592 61.6912C102.959 62.1521 103.143 62.783 103.143 63.5837H102.065C102.065 63.033 101.934 62.5955 101.672 62.2712C101.411 61.947 101.057 61.7849 100.612 61.7849C100.147 61.7849 99.7915 61.906 99.5454 62.1482C99.2993 62.3865 99.1763 62.7205 99.1763 63.1501C99.1763 63.5486 99.3052 63.8669 99.563 64.1052C99.8247 64.3396 100.252 64.5544 100.846 64.7498C101.444 64.9412 101.909 65.1541 102.241 65.3884C102.577 65.6189 102.823 65.8884 102.979 66.197C103.139 66.5056 103.219 66.8669 103.219 67.281C103.219 67.9412 103.02 68.4724 102.622 68.8748C102.227 69.2771 101.672 69.5154 100.958 69.5896V70.7087H100.09V69.5896C99.3638 69.5232 98.7935 69.2654 98.3794 68.8162C97.9692 68.363 97.7642 67.7498 97.7642 66.9763H98.8481C98.8481 67.5193 98.9907 67.9373 99.2759 68.2302C99.561 68.5232 99.9653 68.6697 100.489 68.6697C101 68.6697 101.403 68.5466 101.696 68.3005C101.989 68.0544 102.135 67.7185 102.135 67.2927Z" fill="#F3E898"/>
    <path d="M147.08 12.26C147.08 27.13 145.93 42.61 148.33 57.31C148.61 59.04 151.53 59.04 151.81 57.31C154.21 42.61 153.01 27.13 153.06 12.31C153.06 8.47002 147.06 8.46002 147.06 12.31L147.08 12.26Z" fill="#F6AE4B"/>
    <path d="M160.63 1.39C159.81 12.39 158.7 23.39 160.73 34.39C160.815 34.6657 160.986 34.9069 161.218 35.0782C161.45 35.2496 161.731 35.342 162.02 35.342C162.308 35.342 162.589 35.2496 162.821 35.0782C163.053 34.9069 163.225 34.6657 163.31 34.39C165.31 23.45 164.24 12.46 163.41 1.39C163.41 1.02135 163.263 0.667797 163.002 0.407122C162.742 0.146446 162.388 0 162.02 0C161.651 0 161.297 0.146446 161.037 0.407122C160.776 0.667797 160.63 1.02135 160.63 1.39Z" fill="#F6AE4B"/>
    <path d="M184 44.88L183.88 63.81C183.88 69.46 183.07 75.64 184.57 81.14C184.659 81.4395 184.842 81.7024 185.093 81.8893C185.343 82.0762 185.647 82.1772 185.96 82.1772C186.272 82.1772 186.576 82.0762 186.827 81.8893C187.077 81.7024 187.261 81.4395 187.35 81.14C188.85 75.64 188.08 69.46 188.05 63.81L187.92 44.88C187.828 44.4278 187.583 44.0214 187.225 43.7294C186.868 43.4374 186.421 43.278 185.96 43.278C185.498 43.278 185.051 43.4374 184.694 43.7294C184.337 44.0214 184.092 44.4278 184 44.88Z" fill="#F6AE4B"/>
    <path d="M112.61 94.88C112.3 102.95 111.79 111 111.76 119.08C111.76 125.67 110.45 134.48 113.51 140.49C113.693 140.799 113.953 141.055 114.266 141.232C114.578 141.41 114.931 141.503 115.29 141.503C115.649 141.503 116.002 141.41 116.314 141.232C116.626 141.055 116.886 140.799 117.07 140.49C120.12 134.49 118.83 125.65 118.81 119.08C118.81 111 118.28 102.95 117.96 94.88C117.918 94.1988 117.618 93.5592 117.121 93.0916C116.624 92.624 115.967 92.3636 115.285 92.3636C114.602 92.3636 113.945 92.624 113.448 93.0916C112.951 93.5592 112.651 94.1988 112.61 94.88Z" fill="#F6AE4B"/>
    <path d="M102.77 105.75C102.83 109.92 102.08 115.1 103.57 119.03C103.623 119.213 103.734 119.374 103.886 119.488C104.039 119.602 104.224 119.664 104.415 119.664C104.605 119.664 104.791 119.602 104.943 119.488C105.095 119.374 105.207 119.213 105.26 119.03C106.76 115.09 106.01 109.92 106.06 105.75C106.027 105.336 105.84 104.949 105.535 104.667C105.23 104.385 104.83 104.228 104.415 104.228C103.999 104.228 103.599 104.385 103.294 104.667C102.989 104.949 102.802 105.336 102.77 105.75Z" fill="#F6AE4B"/>
</svg>