<svg width="84" height="79" viewBox="0 0 84 79" fill="none" xmlns="http://www.w3.org/2000/svg">
    <path d="M0.142335 43.6747C0.217472 25.1935 23.8897 0.0911396 42.839 0.16442C61.7882 0.237701 83.8997 25.0285 83.8184 45.0031C81.928 65.1669 66.938 80.638 38.4487 78.675C15.3925 75.4976 0.0672228 62.1499 0.142335 43.6747Z" fill="#72B500"/>
    <g style="mix-blend-mode:multiply" opacity="0.44">
        <g style="mix-blend-mode:multiply" opacity="0.44">
            <path d="M62.1954 42.4479C62.8465 39.3426 62.7011 36.1284 61.772 33.0911C60.843 30.0537 59.1592 27.2872 56.8702 25.0372C54.5811 22.7872 51.7577 21.1235 48.6508 20.1938C45.5438 19.2641 42.2495 19.0972 39.0605 19.708C35.8716 20.3187 32.8866 21.6883 30.3709 23.6948C27.8552 25.7014 25.8865 28.283 24.6399 31.2101C23.3932 34.1373 22.9072 37.3194 23.2249 40.4739C23.5426 43.6283 24.6542 46.6574 26.461 49.292C28.6228 52.449 29.9024 56.1017 30.1732 59.8889L30.5679 65.8068L43.2337 68.3086L45.8051 63.2748C47.6018 59.8114 50.3084 56.8749 53.6488 54.7648C55.8434 53.3712 57.73 51.5636 59.1978 49.4484C60.6655 47.3332 61.6847 44.953 62.1954 42.4479Z" fill="black"/>
        </g>
        <g style="mix-blend-mode:multiply" opacity="0.44">
            <path d="M38.5594 74.2506L32.393 73.0478C31.5637 72.9034 30.8208 72.4588 30.3132 71.8031C29.8055 71.1474 29.5705 70.3289 29.6551 69.5115L30.4074 63.2448L44.4052 65.903L42.5182 72.0434C42.2675 72.8318 41.7195 73.4981 40.9847 73.9077C40.2499 74.3174 39.3832 74.4399 38.5594 74.2506Z" fill="black"/>
        </g>
        <g style="mix-blend-mode:multiply" opacity="0.44">
            <path d="M42.5923 68.3568C38.6519 67.7554 34.7733 66.7872 30.8329 66.1857C30.7977 66.1802 30.7617 66.1815 30.727 66.1895C30.6923 66.1976 30.6595 66.2122 30.6306 66.2326C30.6017 66.253 30.5772 66.2787 30.5585 66.3083C30.5397 66.338 30.5272 66.3709 30.5215 66.4053C30.5158 66.4396 30.5172 66.4747 30.5254 66.5086C30.5337 66.5424 30.5487 66.5744 30.5696 66.6026C30.5905 66.6308 30.6169 66.6547 30.6472 66.6729C30.6776 66.6912 30.7114 66.7034 30.7466 66.709C34.6253 67.6051 38.5964 68.1403 42.4628 69.0244C42.9129 69.1266 43.0424 68.423 42.5923 68.3568Z" fill="black"/>
        </g>
        <g style="mix-blend-mode:multiply" opacity="0.44">
            <path d="M42.2594 70.0106C38.3191 69.4092 34.4404 68.4409 30.5001 67.8455C30.4289 67.8336 30.3558 67.8497 30.2969 67.8903C30.2379 67.9309 30.1979 67.9927 30.1856 68.062C30.1733 68.1314 30.1898 68.2027 30.2315 68.2602C30.2731 68.3178 30.3364 68.3568 30.4076 68.3688C34.2924 69.2589 38.2574 69.7941 42.1238 70.6842C42.5739 70.7804 42.6973 70.0768 42.2594 70.0106Z" fill="black"/>
        </g>
        <g style="mix-blend-mode:multiply" opacity="0.44">
            <path d="M50.319 10.5732C50.0724 11.7761 48.5061 16.022 47.6921 15.8597C46.8782 15.6973 47.1125 11.2107 47.3653 9.99589C47.6182 8.78104 48.4815 7.92704 49.2954 8.0834C50.1094 8.23977 50.5719 9.37043 50.319 10.5732Z" fill="black"/>
        </g>
        <g style="mix-blend-mode:multiply" opacity="0.44">
            <path d="M67.3567 20.8873C66.2467 21.4888 62.5962 24.2432 63.0032 24.9529C63.4102 25.6625 67.7205 24.0568 68.8304 23.4494C69.9404 22.8419 70.5077 21.7834 70.1007 21.0738C69.6937 20.3641 68.4605 20.2799 67.3567 20.8873Z" fill="black"/>
        </g>
        <g style="mix-blend-mode:multiply" opacity="0.44">
            <path d="M70.5139 41.7743C69.2807 41.6841 64.7422 40.7038 64.8038 39.8918C64.8655 39.0799 69.4657 38.7492 70.7298 38.8394C71.9939 38.9296 72.9743 39.6573 72.9189 40.4692C72.8634 41.2811 71.7842 41.8464 70.5139 41.7743Z" fill="black"/>
        </g>
        <g style="mix-blend-mode:multiply" opacity="0.44">
            <path d="M29.5503 11.9565C30.3766 12.9008 32.8309 16.7077 32.1957 17.2369C31.5606 17.7662 28.0827 14.8313 27.2626 13.869C26.4424 12.9068 26.276 11.74 26.9111 11.2108C27.5462 10.6815 28.724 11.0183 29.5503 11.9565Z" fill="black"/>
        </g>
        <g style="mix-blend-mode:multiply" opacity="0.44">
            <path d="M16.5208 27.9238C17.7233 28.3207 22.2679 29.1266 22.5331 28.3508C22.7982 27.5749 18.6914 25.5361 17.4828 25.1392C16.2742 24.7423 15.0902 25.049 14.8251 25.8188C14.5599 26.5886 15.3184 27.5328 16.5208 27.9238Z" fill="black"/>
        </g>
        <g style="mix-blend-mode:multiply" opacity="0.44">
            <path d="M49.24 49.9054C48.7205 49.3437 48.3407 48.6728 48.13 47.9448C48.9724 47.1853 49.5828 46.2132 49.8936 45.1362C50.1033 44.5348 50.2574 43.8612 50.4054 43.2177C50.5077 42.9383 50.5337 42.6378 50.4807 42.3457C50.4277 42.0536 50.2976 41.78 50.1033 41.5518C49.6901 41.1068 48.981 41.2932 48.5432 41.5518C48.0526 41.9179 47.6663 42.4002 47.4209 42.9531C46.8856 43.9684 46.6106 45.0951 46.6193 46.2368C46.6117 46.6397 46.6427 47.0423 46.7117 47.4396C46.3888 47.5958 46.0402 47.6955 45.682 47.7343C44.5597 47.8606 43.8814 47.1329 43.573 46.1346C43.5237 45.9782 43.4805 45.8098 43.4374 45.6354C43.5669 45.4309 43.6902 45.2324 43.8074 45.034C44.3753 44.0566 44.8165 43.0142 45.1208 41.9307C45.386 41.0406 45.6326 39.9581 44.8495 39.2484C44.7305 39.1525 44.579 39.1037 44.4249 39.1115C44.2707 39.1193 44.1252 39.1831 44.017 39.2905C42.3459 40.806 41.9328 43.1636 42.2288 45.3046C41.8898 45.794 41.5169 46.2602 41.1126 46.6999C40.6748 47.187 39.8794 47.9027 39.1332 47.6561C38.3871 47.4095 38.0603 46.4533 37.8198 45.8519C37.6488 45.4092 37.5288 44.9493 37.4621 44.4807C37.5978 44.2702 37.7273 44.0537 37.8568 43.8311C38.3426 42.9587 38.7234 42.0344 38.9914 41.0767C39.2257 40.2828 39.4847 39.1522 38.6584 38.5868C38.5387 38.4917 38.3867 38.4439 38.2326 38.4528C38.0784 38.4617 37.9333 38.5267 37.8259 38.6349C36.679 40.1908 36.123 42.0875 36.2535 43.9995V44.198C35.4114 45.4549 34.3391 46.5497 33.0901 47.4276C33.0318 47.4671 32.9821 47.5174 32.9437 47.5756C32.9053 47.6339 32.8791 47.6989 32.8665 47.767C32.8411 47.9046 32.8727 48.0465 32.9545 48.1613C33.0362 48.2762 33.1614 48.3546 33.3025 48.3794C33.4436 48.4042 33.589 48.3734 33.7068 48.2936C34.791 47.5732 35.7594 46.6997 36.5803 45.7015C36.688 46.0546 36.8199 46.4001 36.975 46.736C37.4005 47.6501 37.9863 48.5402 39.0407 48.8048C40.0952 49.0694 41.0016 48.3959 41.6861 47.7944C42.0168 47.4986 42.322 47.1768 42.5987 46.8322C42.7409 47.2656 42.9809 47.6624 43.301 47.9933C43.6212 48.3243 44.0133 48.5811 44.4487 48.7447C45.298 49.0101 46.2179 48.9608 47.0324 48.6064C47.3156 49.3924 47.7325 50.1264 48.2657 50.7775C48.3206 50.8521 48.3911 50.9145 48.4726 50.9605C48.5541 51.0066 48.6446 51.0353 48.7383 51.0447C48.832 51.0542 48.9267 51.0441 49.0161 51.0152C49.1055 50.9863 49.1876 50.9393 49.257 50.8772C49.3264 50.8151 49.3814 50.7393 49.4186 50.6549C49.4558 50.5705 49.4742 50.4794 49.4725 50.3876C49.4709 50.2957 49.4494 50.2053 49.4093 50.1222C49.3692 50.039 49.3115 49.9652 49.24 49.9054ZM44.2082 40.7399C44.1272 41.1703 44.0075 41.5929 43.8505 42.0029C43.6947 42.493 43.5073 42.9731 43.2894 43.4402C43.3362 42.475 43.6541 41.5409 44.2082 40.7399ZM48.13 44.4686C48.2756 44.0071 48.4829 43.5662 48.7467 43.1576C48.8586 42.9736 48.9909 42.8021 49.1413 42.6464L49.2585 42.5562C49.2608 42.6022 49.2608 42.6484 49.2585 42.6945C49.0934 43.8723 48.7111 45.0113 48.13 46.0564C48.0571 46.1811 47.9768 46.3016 47.8895 46.4172C47.8693 45.7596 47.9503 45.1028 48.13 44.4686Z" fill="black"/>
        </g>
        <g style="mix-blend-mode:multiply" opacity="0.44">
            <path d="M50.8924 47.3492C47.581 53.0566 44.1648 58.7159 40.5945 64.285C40.169 64.9526 41.2111 65.6141 41.6428 64.9466C45.2008 59.3715 48.6046 53.7122 51.805 47.9266C52.1257 47.3312 51.2562 46.7478 50.8924 47.3492Z" fill="black"/>
        </g>
        <g style="mix-blend-mode:multiply" opacity="0.44">
            <path d="M32.3066 43.2959C32.6581 49.8513 32.9232 56.4127 32.9602 62.9741C32.9602 63.1336 33.0252 63.2866 33.1409 63.3994C33.2565 63.5122 33.4133 63.5755 33.5769 63.5755C33.7404 63.5755 33.8973 63.5122 34.0129 63.3994C34.1286 63.2866 34.1935 63.1336 34.1935 62.9741C34.1195 56.4067 33.8667 49.8453 33.3796 43.2959C33.3426 42.6283 32.2696 42.6103 32.3066 43.2959Z" fill="black"/>
        </g>
    </g>
    <path d="M61.5542 40.5836C62.2012 37.4803 62.053 34.2693 61.1228 31.2353C60.1926 28.2013 58.5091 25.438 56.2216 23.1906C53.9341 20.9431 51.1134 19.2809 48.0094 18.3514C44.9055 17.4219 41.6143 17.2537 38.4278 17.8619C35.2413 18.4701 32.2579 19.8357 29.7422 21.8378C27.2265 23.8399 25.2562 26.4165 24.0061 29.3391C22.7559 32.2617 22.2646 35.4401 22.5756 38.5923C22.8866 41.7445 23.9904 44.7731 25.789 47.4096C27.9521 50.5719 29.2277 54.2317 29.4889 58.0245L29.8897 63.9484L42.5493 66.4323L45.1269 61.4045C46.9266 57.9285 49.6477 54.986 53.0076 52.8825C55.2002 51.4909 57.0857 49.6861 58.5534 47.5741C60.021 45.4621 61.0413 43.0854 61.5542 40.5836Z" fill="#FDE82F"/>
    <path d="M37.943 72.3681L31.7766 71.1652C30.948 71.0237 30.2044 70.5832 29.6937 69.9313C29.1829 69.2794 28.9425 68.4639 29.0202 67.647L29.7725 61.3743L43.7702 64.0325L41.8833 70.1729C41.6303 70.9553 41.084 71.6158 40.3537 72.0227C39.6233 72.4296 38.7625 72.5529 37.943 72.3681Z" fill="#59595B"/>
    <path d="M41.9447 66.4684C38.0105 65.867 34.1318 64.9047 30.1915 64.3033C30.1204 64.2913 30.0473 64.3074 29.9883 64.348C29.9293 64.3886 29.8893 64.4504 29.877 64.5198C29.8647 64.5892 29.8812 64.6605 29.9229 64.718C29.9645 64.7755 30.0279 64.8146 30.099 64.8265C33.9838 65.7226 37.9488 66.2519 41.8152 67.142C42.2592 67.2442 42.3948 66.5406 41.9447 66.4684Z" fill="#808183"/>
    <path d="M41.6057 68.1282C37.6654 67.5268 33.7867 66.5585 29.8463 65.9571C29.7752 65.9459 29.7024 65.9628 29.644 66.004C29.5856 66.0451 29.5464 66.1072 29.5349 66.1766C29.5235 66.246 29.5408 66.317 29.583 66.3739C29.6252 66.4309 29.6889 66.4692 29.76 66.4803C33.6449 67.3764 37.6099 67.9117 41.4762 68.7958C41.9264 68.91 42.0559 68.1944 41.6057 68.1282Z" fill="#808183"/>
    <path d="M49.659 8.68456C49.4062 9.88739 47.8461 14.1334 47.0259 13.971C46.2058 13.8086 46.4525 9.31605 46.6991 8.10119C46.9458 6.88634 47.8091 6.03835 48.6539 6.19472C49.4987 6.35109 49.9242 7.46971 49.659 8.68456Z" fill="#FDE82F"/>
    <path d="M66.7094 18.9929C65.6056 19.5943 61.9551 22.3488 62.3621 23.0584C62.7691 23.7681 67.0794 22.1623 68.1893 21.5549C69.2993 20.9475 69.8604 19.883 69.4226 19.1493C68.9848 18.4155 67.8194 18.3915 66.7094 18.9929Z" fill="#FDE82F"/>
    <path d="M69.8728 39.8858C68.6026 39.7956 64.1011 38.8213 64.1627 38.0094C64.2244 37.1975 68.8245 36.8667 70.0887 36.9569C71.3528 37.0471 72.3332 37.7749 72.2716 38.5807C72.2099 39.3866 71.137 39.976 69.8728 39.8858Z" fill="#FDE82F"/>
    <path d="M28.9093 10.0739C29.7356 11.0121 32.1898 14.8251 31.5547 15.3543C30.9196 15.8835 27.4417 12.9487 26.6216 11.9864C25.8014 11.0241 25.6103 9.85139 26.2639 9.32816C26.9176 8.80493 28.0768 9.12969 28.9093 10.0739Z" fill="#FDE82F"/>
    <path d="M15.8795 26.0414C17.1128 26.4383 21.6204 27.2442 21.8917 26.4624C22.1631 25.6806 18.0439 23.6478 16.8414 23.2569C15.639 22.866 14.4489 23.1606 14.1837 23.9305C13.9186 24.7003 14.677 25.6445 15.8795 26.0414Z" fill="#FDE82F"/>
    <path d="M48.5922 48.0229C48.0731 47.4586 47.6934 46.7859 47.4823 46.0563C48.3246 45.2967 48.935 44.3246 49.2459 43.2477C49.4525 42.6178 49.6234 41.9773 49.7577 41.3292C49.8627 41.0506 49.8906 40.7499 49.8387 40.4575C49.7867 40.1651 49.6567 39.8911 49.4617 39.6632C49.0486 39.2182 48.3394 39.4046 47.8954 39.6632C47.41 40.0318 47.0246 40.5109 46.7732 41.0585C46.2351 42.0777 45.956 43.208 45.9592 44.3543C45.9576 44.7569 45.9885 45.1591 46.0517 45.5571C45.7325 45.7182 45.3854 45.8202 45.0281 45.8578C43.9058 45.9781 43.2275 45.2564 42.9191 44.258C42.8698 44.0957 42.8205 43.9273 42.7835 43.7589C42.913 43.5544 43.0363 43.3559 43.1535 43.1574C43.7255 42.1763 44.1708 41.1299 44.4792 40.0421C44.7382 39.146 44.9911 38.0695 44.2079 37.3538C44.0882 37.2587 43.9362 37.2109 43.7821 37.2198C43.628 37.2287 43.4828 37.2937 43.3755 37.4019C41.6982 38.9175 41.2912 41.275 41.5872 43.4161C41.2467 43.9043 40.8739 44.3704 40.4711 44.8113C40.0271 45.2985 39.2378 46.0142 38.4917 45.7676C37.7455 45.521 37.4187 44.5647 37.1782 43.9633C37.0024 43.5217 36.8803 43.0615 36.8144 42.5921C36.9501 42.3816 37.0857 42.1651 37.209 41.9426C37.6958 41.0699 38.0786 40.1457 38.3498 39.1881C38.5842 38.3943 38.8431 37.2636 38.0168 36.6983C37.8971 36.6032 37.7452 36.5554 37.591 36.5643C37.4369 36.5732 37.2918 36.6382 37.1844 36.7464C36.0374 38.3023 35.4815 40.199 35.6119 42.111V42.3034C34.7697 43.5603 33.6974 44.6551 32.4486 45.533C31.8936 45.93 32.4486 46.784 33.0652 46.4051C34.151 45.6842 35.1196 44.8084 35.9388 43.807C36.0427 44.1636 36.1704 44.5131 36.3211 44.8534C36.7527 45.7676 37.3385 46.6577 38.393 46.9283C39.4475 47.1989 40.3477 46.5193 41.0384 45.9179C41.3691 45.6221 41.6743 45.3002 41.951 44.9557C42.0915 45.3892 42.331 45.7859 42.6514 46.1162C42.9719 46.4464 43.3649 46.7014 43.8009 46.8621C44.6492 47.1323 45.5701 47.0851 46.3847 46.7298C46.6655 47.5152 47.0826 48.2475 47.618 48.8949C47.6729 48.9695 47.7434 49.0319 47.8249 49.078C47.9064 49.1241 47.9969 49.1528 48.0906 49.1622C48.1843 49.1716 48.2789 49.1616 48.3683 49.1327C48.4577 49.1038 48.5399 49.0568 48.6092 48.9947C48.6786 48.9326 48.7337 48.8568 48.7709 48.7724C48.808 48.688 48.8264 48.5969 48.8248 48.505C48.8232 48.4132 48.8017 48.3227 48.7616 48.2396C48.7215 48.1565 48.6638 48.0826 48.5922 48.0229ZM43.5605 38.8393C43.4836 39.2706 43.3639 39.6936 43.2028 40.1023C43.0524 40.5943 42.8649 41.0747 42.6417 41.5396C42.6904 40.5748 43.0081 39.6412 43.5605 38.8393ZM47.4885 42.5621C47.6377 42.1038 47.8448 41.6654 48.1051 41.257C48.2192 41.0729 48.3536 40.9014 48.5059 40.7458C48.5407 40.7114 48.5778 40.6793 48.6169 40.6496C48.6226 40.6975 48.6226 40.7459 48.6169 40.7939C48.4579 41.9783 48.0819 43.1251 47.507 44.1798C47.4319 44.3047 47.3496 44.4251 47.2603 44.5407C47.2354 43.8797 47.3123 43.2188 47.4885 42.5801V42.5621Z" fill="white"/>
    <path d="M50.2759 45.455C46.9584 51.1624 43.5422 56.8217 39.978 62.3908C39.5525 63.0524 40.5947 63.7199 41.0263 63.0524C44.572 57.4833 47.9759 51.824 51.1762 46.0565C51.5092 45.455 50.6089 44.8536 50.2759 45.455Z" fill="white"/>
    <path d="M31.6655 41.4135C32.017 47.9629 32.2821 54.5303 32.3191 61.0917C32.3191 61.2512 32.3841 61.4041 32.4997 61.5169C32.6154 61.6297 32.7722 61.6931 32.9358 61.6931C33.0993 61.6931 33.2562 61.6297 33.3718 61.5169C33.4874 61.4041 33.5524 61.2512 33.5524 61.0917C33.4784 54.5243 33.2318 47.9628 32.7384 41.4075C32.7014 40.7459 31.6285 40.7279 31.6655 41.4135Z" fill="white"/>
</svg>