<svg width="325" height="191" viewBox="0 0 325 191" fill="none" xmlns="http://www.w3.org/2000/svg">
    <g clip-path="url(#clip0)">
        <path d="M157.62 126.253C176.496 126.253 191.798 110.947 191.798 92.0659C191.798 73.1849 176.496 57.8788 157.62 57.8788C138.744 57.8788 123.442 73.1849 123.442 92.0659C123.442 110.947 138.744 126.253 157.62 126.253Z" fill="#0B7AC7"/>
        <g style="mix-blend-mode:multiply" opacity="0.3">
            <path d="M89.9295 185.376C89.9295 188.367 72.7826 190.797 51.6239 190.797C30.4651 190.797 13.3086 188.367 13.3086 185.376C13.3086 182.386 30.4555 179.955 51.6239 179.955C72.7923 179.955 89.9295 182.386 89.9295 185.376Z" fill="#4D4D4D"/>
        </g>
        <g style="mix-blend-mode:multiply" opacity="0.3">
            <path d="M309.039 185.81C309.039 188.801 291.893 191.232 270.734 191.232C249.575 191.232 232.418 188.801 232.418 185.81C232.418 182.82 249.565 180.389 270.734 180.389C291.902 180.389 309.039 182.82 309.039 185.81Z" fill="#4D4D4D"/>
        </g>
        <path d="M26.521 170.115C26.8392 174.36 26.8392 178.595 27.4854 182.366C30.6968 184.73 36.4832 183.331 40.3311 182.366C40.3311 178.122 40.3311 173.414 40.659 169.17C36.5835 169.249 32.507 169.091 28.4498 168.697C27.7758 169.662 27.437 170.821 27.4854 171.996" fill="#ED9498"/>
        <path d="M41.0059 170.115C41.3338 174.36 41.3338 178.595 41.9703 182.366C45.1913 184.73 50.968 183.331 54.8256 182.366C54.8256 178.122 54.8256 173.414 55.1438 169.17C51.0684 169.249 46.9918 169.091 42.9346 168.697C42.2652 169.664 41.9269 170.821 41.9703 171.996" fill="#ED9498"/>
        <path d="M77.9712 117.841C81.9541 121.7 86.7471 125.095 89.8428 129.764C90.6626 130.989 92.1091 130.41 92.6299 129.359C94.2435 126.778 95.4016 123.94 96.0535 120.967C96.6032 118.729 97.693 114.619 95.8028 112.68C93.7679 110.606 89.7175 111.87 87.3354 112.516C84.3458 113.336 81.4237 114.388 78.5016 115.41C78.2818 115.51 78.0883 115.66 77.9366 115.848C77.7848 116.036 77.679 116.257 77.6275 116.493C77.576 116.729 77.5803 116.974 77.6399 117.208C77.6996 117.442 77.813 117.659 77.9712 117.841Z" fill="#EF8077"/>
        <path d="M82.2145 111.32C73.6893 102.503 61.6633 99.8023 49.7917 100.362C27.2056 101.423 9.75976 118.217 10.5023 141.842C11.0328 158.434 22.673 172.373 38.0936 177.534C51.354 181.981 67.2954 180.427 78.492 171.746C87.5283 164.752 92.3792 153.466 93.1314 142.266C93.5564 136.633 92.8054 130.972 90.926 125.645C89.0466 120.317 86.0799 115.439 82.2145 111.32Z" fill="#FFA9A2"/>
        <path d="M79.9579 135.735C76.4861 132.552 71.5774 131.578 66.7458 131.78C57.5262 132.166 50.4186 138.224 50.7176 146.732C50.9394 152.723 55.6842 157.749 61.972 159.61C67.3823 161.212 73.8726 160.652 78.4438 157.527C80.1657 156.314 81.5951 154.732 82.6279 152.896C83.6606 151.061 84.2707 149.017 84.4134 146.916C84.5701 144.836 84.2501 142.748 83.478 140.81C82.7059 138.873 81.502 137.137 79.9579 135.735Z" fill="#EF8077"/>
        <path d="M64.9036 141.456C62.5987 142.826 62.9748 147.08 62.8976 149.356C62.8205 151.633 66.6202 151.662 66.4755 149.356C66.408 148.16 66.2634 146.973 66.1862 145.777C66.1091 144.581 66.4177 143.453 66.3598 142.295C66.3615 142.124 66.3177 141.955 66.2328 141.807C66.1479 141.658 66.0251 141.535 65.8769 141.45C65.7287 141.364 65.5605 141.32 65.3894 141.321C65.2184 141.322 65.0507 141.368 64.9036 141.456Z" fill="#852438"/>
        <path d="M73.9107 142.295C73.9107 143.26 74.1325 144.321 74.1133 145.343C74.1133 146.684 73.8818 148.025 73.795 149.356C73.66 151.662 77.479 151.671 77.3729 149.356C77.2668 147.041 77.6815 142.826 75.367 141.456C75.2198 141.368 75.0522 141.322 74.8811 141.321C74.7101 141.32 74.5418 141.364 74.3936 141.45C74.2454 141.535 74.1226 141.658 74.0377 141.807C73.9529 141.955 73.909 142.124 73.9107 142.295Z" fill="#852438"/>
        <path d="M49.618 131.105C50.148 130.421 50.8449 129.884 51.642 129.546C52.4391 129.208 53.3095 129.081 54.1699 129.176C56.3205 129.311 56.8895 131.105 58.4615 132.07C58.5189 132.103 58.5833 132.123 58.6495 132.127C58.7158 132.132 58.7823 132.121 58.8438 132.096C58.9053 132.071 58.9602 132.032 59.0042 131.982C59.0483 131.933 59.0804 131.873 59.098 131.809C59.8309 129.456 56.6388 127.748 54.7775 127.401C53.5669 127.171 52.3148 127.327 51.1973 127.846C50.0798 128.365 49.1531 129.221 48.5475 130.295C48.1907 130.951 49.1261 131.761 49.618 131.124V131.105Z" fill="#852438"/>
        <path d="M85.4932 130.449C85.1721 129.454 84.5159 128.602 83.6365 128.037C82.7571 127.473 81.7091 127.231 80.6712 127.353C78.8485 127.632 75.965 129.784 77.0355 131.906C77.0643 131.955 77.1028 131.999 77.1486 132.034C77.1943 132.068 77.2466 132.094 77.3022 132.108C77.3578 132.122 77.4157 132.125 77.4726 132.117C77.5294 132.109 77.5841 132.09 77.6334 132.06C78.8774 131.337 79.08 129.745 80.5941 129.243C82.1082 128.742 83.4872 129.764 84.2395 130.97C84.6445 131.587 85.7825 131.202 85.4932 130.449Z" fill="#852438"/>
        <path d="M46.8501 115.449C43.9569 114.388 41.0058 113.336 38.0162 112.555C35.6342 111.909 31.5837 110.626 29.5585 112.719C27.5333 114.812 28.7484 118.767 29.2981 121.005C29.9534 123.979 31.1147 126.818 32.7314 129.398C33.2425 130.449 34.6601 131.028 35.5088 129.803C38.6045 125.134 43.3975 121.738 47.3805 117.88C47.5386 117.697 47.6521 117.48 47.7117 117.246C47.7714 117.012 47.7756 116.767 47.7241 116.531C47.6726 116.295 47.5668 116.075 47.4151 115.887C47.2633 115.699 47.0699 115.549 46.8501 115.449Z" fill="#EF8077"/>
        <path d="M47.0142 175.566C47.2553 178.749 47.2553 181.932 47.7375 184.759C50.1484 186.524 54.4882 185.463 57.3814 184.759C57.3814 181.575 57.3814 178.006 57.6225 174.861C54.5642 174.921 51.5051 174.802 48.4607 174.505C47.9551 175.23 47.701 176.1 47.7375 176.984" fill="#FFA9A2"/>
        <path d="M45.9727 175.566C46.0498 177.804 45.9727 180.022 45.9727 182.26C45.9727 184.19 45.7027 185.656 47.5832 186.727C50.4764 188.376 54.8451 187.489 57.8251 186.534C58.2132 186.426 58.5553 186.194 58.7991 185.874C59.043 185.553 59.1751 185.161 59.1752 184.759C59.0595 183.119 59.1752 181.45 59.1752 179.81C59.1752 178.17 59.1077 176.472 59.3006 174.861C59.3006 174.403 59.1187 173.964 58.795 173.64C58.4712 173.317 58.0322 173.135 57.5743 173.135C54.5172 173.029 51.4504 172.951 48.4126 172.623C48.0795 172.624 47.7526 172.713 47.4659 172.883C47.1792 173.053 46.9433 173.296 46.7828 173.588C46.258 174.44 45.9654 175.414 45.9341 176.414C45.932 176.727 46.0131 177.035 46.169 177.306C46.3249 177.577 46.55 177.802 46.8214 177.958C48.7501 179.096 49.2998 176.723 50.0424 175.488L48.4126 176.453C51.4586 176.725 54.5196 176.789 57.5743 176.646L55.9349 174.813C55.9349 176.453 55.6648 178.103 55.6359 179.762C55.607 181.421 55.6938 183.071 55.6359 184.71C56.0795 184.112 56.5328 183.524 56.9861 182.935C54.305 183.389 51.2961 184.585 48.6923 183.244L49.4734 184.209C48.7828 181.368 48.3089 178.478 48.0558 175.566C47.9208 174.254 45.9245 174.196 45.9727 175.566Z" fill="#FFA9A2"/>
        <path d="M61.856 175.566C62.0971 178.749 62.0971 181.932 62.5793 184.759C64.9902 186.524 69.33 185.463 72.2232 184.759C72.2232 181.575 72.2232 178.006 72.4643 174.861C69.406 174.921 66.3469 174.802 63.3025 174.505C62.7969 175.23 62.5428 176.1 62.5793 176.984" fill="#FFA9A2"/>
        <path d="M60.8145 175.566C60.9013 177.804 60.8145 180.022 60.8145 182.26C60.8145 184.19 60.5445 185.656 62.425 186.727C65.3182 188.376 69.6869 187.489 72.6669 186.534C73.0549 186.426 73.3971 186.194 73.6409 185.874C73.8848 185.553 74.0169 185.161 74.017 184.759C73.9013 183.119 74.017 181.45 74.017 179.81C74.017 178.17 73.9495 176.472 74.1424 174.861C74.1424 174.403 73.9605 173.964 73.6368 173.64C73.313 173.317 72.874 173.135 72.4161 173.135C69.359 173.029 66.2922 172.951 63.2544 172.623C62.9213 172.624 62.5944 172.713 62.3077 172.883C62.021 173.053 61.7851 173.296 61.6246 173.588C61.0998 174.44 60.8072 175.414 60.7759 176.414C60.7738 176.727 60.8549 177.035 61.0108 177.306C61.1667 177.577 61.3918 177.802 61.6632 177.958C63.5919 179.096 64.1416 176.723 64.8842 175.488L63.2544 176.453C66.3004 176.725 69.3614 176.789 72.4161 176.646L70.6802 174.919C70.6802 176.559 70.4198 178.209 70.3909 179.868C70.362 181.527 70.3909 183.177 70.333 184.817C70.7767 184.218 71.2299 183.63 71.6832 183.042C69.0022 183.495 65.9933 184.691 63.3894 183.35L64.1706 184.315C63.5218 181.436 63.0994 178.511 62.9072 175.566C62.7626 174.254 60.7663 174.196 60.8145 175.566Z" fill="#FFA9A2"/>
        <path d="M1.64902 100.593C-0.202612 104.182 -1.44668 111.359 3.29813 113.269C5.91163 114.32 8.39976 112.844 9.63418 110.568C10.4443 109.053 11.1483 105.947 8.84338 105.301C4.4554 104.066 2.35303 108.195 2.09264 111.986C1.86119 116.269 3.85748 121.073 7.71504 123.214C9.33408 124.054 11.1819 124.345 12.9806 124.044C14.784 123.793 17.8026 122.828 18.632 121.005C18.6945 120.889 18.7265 120.759 18.7247 120.628C18.7229 120.496 18.6874 120.367 18.6217 120.253C18.556 120.139 18.4621 120.044 18.3491 119.976C18.2362 119.908 18.1078 119.871 17.9762 119.867C16.7996 119.79 15.5652 120.562 14.4658 120.918C13.4044 121.259 12.2905 121.406 11.1772 121.353C10.3404 121.257 9.53056 120.998 8.79415 120.589C8.05774 120.18 7.4092 119.63 6.88567 118.97C5.78292 117.599 5.02087 115.987 4.66211 114.265C4.30335 112.543 4.3581 110.76 4.82187 109.063C5.00448 108.425 5.35788 107.848 5.84395 107.396C6.33002 106.944 6.9303 106.633 7.58003 106.497C9.35451 106.101 9.34487 107.847 8.81445 108.957C8.29844 110.057 7.42944 110.954 6.34561 111.503C3.76104 112.777 2.00584 110.336 1.57187 108.166C1.15938 105.759 1.47505 103.283 2.4784 101.056C2.70985 100.526 1.95763 100.092 1.67795 100.593H1.64902Z" fill="#FFA9A2"/>
        <path d="M49.1841 100.227C49.1841 100.227 58.7316 99.1656 62.9652 108.359H69.716C69.716 108.359 65.0387 97.0434 53.0416 98.1045L49.1841 100.227Z" fill="#ED9498"/>
        <path d="M47.3711 100.931C47.3711 100.931 56.9089 99.8699 61.1523 109.063H67.903C67.903 109.063 63.3125 97.7476 51.2962 98.8087L47.3711 100.931Z" fill="#852438"/>
        <path d="M20.1844 122.105C17.1755 126.031 16.0279 131.298 15.7386 136.141C15.564 138.809 15.7686 141.488 16.3462 144.099C16.7898 146.086 17.6481 148.777 19.7215 149.597C19.8524 149.633 19.9897 149.638 20.1228 149.612C20.2559 149.586 20.3812 149.53 20.4892 149.448C20.5973 149.366 20.6851 149.26 20.7459 149.139C20.8068 149.018 20.839 148.884 20.8402 148.748C20.7438 146.925 19.7505 145.063 19.3743 143.269C18.9222 140.921 18.7378 138.53 18.8246 136.141C18.9018 131.838 19.3551 126.726 21.8432 123.07C22.5472 122.028 20.8788 121.14 20.1844 122.105Z" fill="white"/>
        <path d="M20.0688 158.318L20.3678 158.434C20.7159 158.532 21.0821 158.549 21.4376 158.481C21.7931 158.414 22.1281 158.265 22.4162 158.046C22.7042 157.827 22.9375 157.545 23.0975 157.22C23.2575 156.895 23.3399 156.538 23.3381 156.176C23.3379 155.554 23.0918 154.958 22.6534 154.517C22.3583 154.225 21.9922 154.016 21.5913 153.909C21.1904 153.803 20.7687 153.803 20.3678 153.909L20.0688 154.025C19.5993 154.156 19.1857 154.437 18.8913 154.826C18.5969 155.214 18.438 155.689 18.439 156.176C18.4364 156.569 18.5397 156.956 18.738 157.295L19.0852 157.749C19.3547 158.015 19.686 158.211 20.0495 158.318H20.0688Z" fill="white"/>
        <path d="M96.5068 48.0394C96.5011 50.0934 95.8869 52.0996 94.7417 53.8045C93.5965 55.5093 91.9718 56.8365 90.0729 57.6181C88.1739 58.3997 86.086 58.6007 84.0728 58.1958C82.0597 57.7909 80.2117 56.7982 78.7624 55.3431C77.3131 53.8881 76.3275 52.0359 75.9302 50.0208C75.5329 48.0056 75.7416 45.9179 76.5301 44.0213C77.3185 42.1248 78.6513 40.5046 80.36 39.3654C82.0686 38.2263 84.0766 37.6193 86.13 37.6212C87.4956 37.6225 88.8475 37.8931 90.1085 38.4176C91.3694 38.9421 92.5145 39.7101 93.4784 40.6778C94.4422 41.6455 95.2058 42.7938 95.7255 44.057C96.2451 45.3201 96.5107 46.6734 96.5068 48.0394Z" fill="#F19238"/>
        <path d="M95.3399 48.869C95.3399 50.9238 94.7307 52.9324 93.5895 54.6409C92.4482 56.3494 90.826 57.6811 88.9281 58.4674C87.0303 59.2537 84.9419 59.4595 82.9271 59.0586C80.9123 58.6577 79.0616 57.6682 77.609 56.2153C76.1565 54.7623 75.1672 52.9111 74.7665 50.8958C74.3657 48.8805 74.5714 46.7916 75.3575 44.8932C76.1437 42.9948 77.4749 41.3722 79.183 40.2306C80.891 39.0891 82.8991 38.4797 84.9534 38.4797C87.7081 38.4797 90.3499 39.5743 92.2978 41.5227C94.2456 43.471 95.3399 46.1136 95.3399 48.869Z" fill="#FDC65C"/>
        <path d="M93.2277 48.869C93.2277 50.5059 92.7424 52.1061 91.8332 53.4672C90.924 54.8283 89.6317 55.8892 88.1197 56.5156C86.6077 57.142 84.944 57.3059 83.3389 56.9866C81.7338 56.6672 80.2595 55.879 79.1023 54.7214C77.945 53.5639 77.157 52.0892 76.8377 50.4836C76.5184 48.8781 76.6823 47.214 77.3086 45.7016C77.9348 44.1892 78.9954 42.8966 80.3561 41.9872C81.7169 41.0777 83.3167 40.5923 84.9532 40.5923C87.1477 40.5923 89.2524 41.4643 90.8041 43.0165C92.3559 44.5686 93.2277 46.6738 93.2277 48.869Z" fill="#FDA73A"/>
        <path d="M86.0244 50.2826C86.0244 49.9232 85.8975 49.6205 85.6436 49.3744C85.3936 49.1283 84.9697 48.9056 84.3721 48.7064C83.54 48.4525 82.9326 48.1224 82.5498 47.7162C82.1709 47.306 81.9814 46.7865 81.9814 46.1576C81.9814 45.517 82.167 44.9916 82.5381 44.5814C82.9131 44.1713 83.4268 43.9271 84.0791 43.849V42.5658H84.9521V43.8549C85.6084 43.9447 86.1182 44.2201 86.4814 44.681C86.8486 45.142 87.0322 45.7728 87.0322 46.5736H85.9541C85.9541 46.0228 85.8232 45.5853 85.5615 45.2611C85.2998 44.9369 84.9463 44.7748 84.501 44.7748C84.0361 44.7748 83.6807 44.8959 83.4346 45.1381C83.1885 45.3763 83.0654 45.7103 83.0654 46.14C83.0654 46.5385 83.1943 46.8568 83.4521 47.0951C83.7139 47.3295 84.1416 47.5443 84.7354 47.7396C85.333 47.931 85.7979 48.1439 86.1299 48.3783C86.4658 48.6088 86.7119 48.8783 86.8682 49.1869C87.0283 49.4955 87.1084 49.8568 87.1084 50.2709C87.1084 50.931 86.9092 51.4623 86.5107 51.8646C86.1162 52.267 85.5615 52.5052 84.8467 52.5795V53.6986H83.9795V52.5795C83.2529 52.5131 82.6826 52.2552 82.2686 51.806C81.8584 51.3529 81.6533 50.7396 81.6533 49.9662H82.7373C82.7373 50.5092 82.8799 50.9271 83.165 51.2201C83.4502 51.5131 83.8545 51.6595 84.3779 51.6595C84.8896 51.6595 85.292 51.5365 85.585 51.2904C85.8779 51.0443 86.0244 50.7084 86.0244 50.2826Z" fill="#F3E898"/>
        <path d="M143.28 22.1869C143.287 24.9268 142.482 27.6073 140.965 29.889C139.449 32.1707 137.29 33.9509 134.761 35.0043C132.232 36.0576 129.448 36.3367 126.761 35.8062C124.074 35.2756 121.604 33.9593 119.665 32.024C117.726 30.0886 116.405 27.6213 115.869 24.9344C115.333 22.2475 115.606 19.4619 116.654 16.9304C117.702 14.3989 119.477 12.2353 121.755 10.7137C124.033 9.19214 126.711 8.38092 129.45 8.38282C133.112 8.38535 136.624 9.8396 139.216 12.427C141.808 15.0144 143.269 18.524 143.28 22.1869Z" fill="#F19238"/>
        <path d="M141.765 23.3252C141.765 26.0609 140.955 28.7354 139.436 31.0107C137.918 33.2861 135.759 35.0604 133.233 36.1095C130.708 37.1586 127.927 37.4355 125.244 36.9053C122.561 36.3751 120.095 35.0615 118.158 33.1304C116.22 31.1993 114.899 28.7372 114.359 26.0552C113.82 23.3732 114.087 20.5914 115.127 18.0612C116.167 15.5309 117.933 13.3657 120.203 11.8388C122.472 10.312 125.143 9.49204 127.878 9.48251C129.7 9.47616 131.504 9.82952 133.189 10.5223C134.874 11.2152 136.405 12.2338 137.695 13.5198C138.985 14.8059 140.009 16.334 140.707 18.0167C141.406 19.6993 141.765 21.5033 141.765 23.3252Z" fill="#FDC65C"/>
        <path d="M138.872 23.3251C138.872 25.5071 138.225 27.64 137.012 29.4538C135.8 31.2676 134.077 32.6808 132.061 33.5145C130.045 34.3482 127.827 34.5648 125.688 34.137C123.549 33.7092 121.585 32.6562 120.045 31.1113C118.504 29.5664 117.457 27.5991 117.034 25.4584C116.612 23.3177 116.835 21.0998 117.674 19.0856C118.512 17.0714 119.93 15.3514 121.746 14.1433C123.563 12.9353 125.697 12.2935 127.878 12.2992C130.797 12.3069 133.593 13.4719 135.654 15.5389C137.715 17.6058 138.872 20.4059 138.872 23.3251Z" fill="#FDA73A"/>
        <path d="M128.952 24.182C128.952 23.7028 128.783 23.2992 128.444 22.9711C128.111 22.6429 127.546 22.3461 126.749 22.0804C125.64 21.7419 124.83 21.3018 124.319 20.7601C123.814 20.2133 123.562 19.5205 123.562 18.682C123.562 17.8278 123.809 17.1273 124.304 16.5804C124.804 16.0336 125.489 15.708 126.358 15.6039V13.8929H127.522V15.6117C128.397 15.7315 129.077 16.0987 129.562 16.7133C130.051 17.3278 130.296 18.169 130.296 19.2367H128.858C128.858 18.5023 128.684 17.919 128.335 17.4867C127.986 17.0544 127.515 16.8383 126.921 16.8383C126.301 16.8383 125.827 16.9997 125.499 17.3226C125.171 17.6403 125.007 18.0857 125.007 18.6586C125.007 19.1898 125.179 19.6143 125.522 19.932C125.871 20.2445 126.442 20.531 127.233 20.7914C128.03 21.0466 128.65 21.3304 129.093 21.6429C129.541 21.9502 129.869 22.3096 130.077 22.7211C130.291 23.1325 130.397 23.6143 130.397 24.1664C130.397 25.0466 130.132 25.7549 129.601 26.2914C129.075 26.8278 128.335 27.1455 127.382 27.2445V28.7367H126.226V27.2445C125.257 27.156 124.496 26.8122 123.944 26.2133C123.397 25.6091 123.124 24.7914 123.124 23.7601H124.569C124.569 24.4841 124.759 25.0414 125.14 25.432C125.52 25.8226 126.059 26.0179 126.757 26.0179C127.439 26.0179 127.976 25.8539 128.366 25.5258C128.757 25.1976 128.952 24.7497 128.952 24.182Z" fill="#F3E898"/>
        <path d="M68.7419 82.0625C68.74 83.8479 68.209 85.5926 67.2159 87.0762C66.2229 88.5598 64.8125 89.7155 63.1629 90.3974C61.5133 91.0794 59.6986 91.2568 57.9483 90.9073C56.1979 90.5578 54.5904 89.6971 53.3289 88.434C52.0675 87.1709 51.2087 85.562 50.8612 83.8108C50.5137 82.0596 50.693 80.2447 51.3765 78.5954C52.06 76.9461 53.217 75.5365 54.7012 74.5448C56.1854 73.5531 57.9303 73.0238 59.7152 73.0238C60.9014 73.0238 62.076 73.2577 63.1718 73.712C64.2676 74.1664 65.2631 74.8323 66.1015 75.6718C66.9398 76.5112 67.6045 77.5077 68.0575 78.6043C68.5106 79.7009 68.7432 80.876 68.7419 82.0625Z" fill="#F19238"/>
        <path d="M67.7294 82.7763C67.7294 84.564 67.1995 86.3115 66.2065 87.7979C65.2136 89.2844 63.8023 90.4429 62.1512 91.127C60.5 91.8111 58.6831 91.9901 56.9302 91.6414C55.1773 91.2926 53.5672 90.4317 52.3034 89.1676C51.0397 87.9036 50.179 86.293 49.8304 84.5397C49.4817 82.7863 49.6607 80.9689 50.3446 79.3173C51.0285 77.6657 52.1867 76.254 53.6728 75.2608C55.1588 74.2677 56.9059 73.7375 58.6931 73.7375C61.0897 73.7375 63.3881 74.6898 65.0827 76.3849C66.7774 78.08 67.7294 80.3791 67.7294 82.7763Z" fill="#FDC65C"/>
        <path d="M65.8873 82.7763C65.8873 84.1996 65.4653 85.591 64.6748 86.7744C63.8843 87.9578 62.7607 88.8802 61.4461 89.4248C60.1315 89.9695 58.6849 90.112 57.2893 89.8343C55.8938 89.5567 54.6119 88.8713 53.6057 87.8649C52.5996 86.8585 51.9144 85.5762 51.6368 84.1803C51.3592 82.7843 51.5017 81.3374 52.0462 80.0225C52.5907 78.7075 53.5128 77.5836 54.6959 76.7929C55.879 76.0021 57.27 75.5801 58.6929 75.5801C60.601 75.5801 62.4309 76.3383 63.7801 77.6878C65.1293 79.0374 65.8873 80.8678 65.8873 82.7763Z" fill="#FDA73A"/>
        <path d="M59.1499 83.376C59.1499 83.0765 59.0441 82.8242 58.8325 82.6191C58.6242 82.4141 58.271 82.2285 57.7729 82.0625C57.0796 81.8509 56.5734 81.5758 56.2544 81.2373C55.9386 80.8955 55.7808 80.4626 55.7808 79.9385C55.7808 79.4046 55.9354 78.9668 56.2446 78.625C56.5571 78.2832 56.9852 78.0798 57.5288 78.0146V76.9453H58.2563V78.0195C58.8032 78.0944 59.228 78.3239 59.5308 78.708C59.8368 79.0921 59.9897 79.6178 59.9897 80.2852H59.0913C59.0913 79.8262 58.9823 79.4616 58.7642 79.1914C58.5461 78.9212 58.2515 78.7861 57.8804 78.7861C57.493 78.7861 57.1968 78.887 56.9917 79.0889C56.7866 79.2874 56.6841 79.5658 56.6841 79.9238C56.6841 80.2559 56.7915 80.5212 57.0063 80.7197C57.2244 80.915 57.5809 81.0941 58.0757 81.2568C58.5737 81.4163 58.9611 81.5938 59.2378 81.7891C59.5177 81.9811 59.7228 82.2057 59.853 82.4629C59.9865 82.7201 60.0532 83.0212 60.0532 83.3662C60.0532 83.9163 59.8872 84.359 59.5552 84.6943C59.2264 85.0296 58.7642 85.2282 58.1685 85.29V86.2227H57.4458V85.29C56.8403 85.2347 56.3651 85.0199 56.02 84.6455C55.6782 84.2679 55.5073 83.7568 55.5073 83.1123H56.4106C56.4106 83.5648 56.5295 83.9131 56.7671 84.1572C57.0047 84.4014 57.3416 84.5234 57.7778 84.5234C58.2043 84.5234 58.5396 84.4209 58.7837 84.2158C59.0278 84.0107 59.1499 83.7308 59.1499 83.376Z" fill="#F3E898"/>
        <path d="M42.5585 80.8278C42.3849 85.4002 41.3915 91.0241 42.7803 95.4422C42.8222 95.5809 42.9077 95.7024 43.0241 95.7888C43.1404 95.8752 43.2815 95.9219 43.4264 95.9219C43.5713 95.9219 43.7124 95.8752 43.8287 95.7888C43.9451 95.7024 44.0306 95.5809 44.0725 95.4422C45.4709 91.0144 44.4679 85.4002 44.2944 80.8278C44.2944 80.5975 44.2029 80.3767 44.0401 80.2139C43.8774 80.0511 43.6566 79.9596 43.4264 79.9596C43.1962 79.9596 42.9754 80.0511 42.8127 80.2139C42.6499 80.3767 42.5585 80.5975 42.5585 80.8278Z" fill="#F6AE4B"/>
        <path d="M246.426 17.2671C246.253 21.8395 245.259 27.4634 246.648 31.8815C246.69 32.0202 246.775 32.1418 246.892 32.2282C247.008 32.3146 247.149 32.3612 247.294 32.3612C247.439 32.3612 247.58 32.3146 247.696 32.2282C247.813 32.1418 247.898 32.0202 247.94 31.8815C249.339 27.4538 248.336 21.8395 248.162 17.2671C248.162 17.0369 248.071 16.816 247.908 16.6532C247.745 16.4904 247.524 16.3989 247.294 16.3989C247.064 16.3989 246.843 16.4904 246.68 16.6532C246.518 16.816 246.426 17.0369 246.426 17.2671Z" fill="#F6AE4B"/>
        <path d="M39.3761 84.3487C39.3761 85.6992 39.1543 87.3777 39.6365 88.651C39.6555 88.7089 39.6924 88.7593 39.7417 88.795C39.7911 88.8308 39.8504 88.85 39.9114 88.85C39.9723 88.85 40.0317 88.8308 40.081 88.795C40.1304 88.7593 40.1672 88.7089 40.1862 88.651C40.6684 87.3777 40.4273 85.6992 40.4466 84.3487C40.4292 84.219 40.3653 84.1001 40.2669 84.014C40.1684 83.9279 40.0421 83.8805 39.9114 83.8805C39.7806 83.8805 39.6543 83.9279 39.5559 84.014C39.4574 84.1001 39.3936 84.219 39.3761 84.3487Z" fill="#F6AE4B"/>
        <path d="M254.04 54.7147C254.04 58.3798 252.954 61.9625 250.918 65.0099C248.882 68.0573 245.989 70.4324 242.604 71.835C239.219 73.2375 235.494 73.6045 231.9 72.8895C228.306 72.1745 225.005 70.4096 222.414 67.818C219.824 65.2264 218.059 61.9245 217.344 58.3299C216.629 54.7353 216.996 51.0093 218.399 47.6233C219.801 44.2372 222.175 41.343 225.222 39.3069C228.268 37.2707 231.85 36.1838 235.514 36.1838C240.428 36.1838 245.14 38.1362 248.614 41.6114C252.088 45.0866 254.04 49.8 254.04 54.7147Z" fill="#F19238"/>
        <path d="M251.947 56.1811C251.942 59.8432 250.851 63.4216 248.814 66.4643C246.776 69.5071 243.883 71.8777 240.5 73.277C237.116 74.6762 233.394 75.0413 229.804 74.3262C226.213 73.611 222.915 71.8476 220.325 69.2588C217.736 66.6699 215.971 63.3716 215.254 59.7803C214.537 56.189 214.9 52.4657 216.297 49.0807C217.695 45.6956 220.063 42.8006 223.104 40.761C226.145 38.7215 229.722 37.6289 233.383 37.6213C235.821 37.6162 238.237 38.0927 240.491 39.0235C242.745 39.9543 244.793 41.3211 246.518 43.0454C248.243 44.7697 249.61 46.8177 250.542 49.0718C251.474 51.3259 251.951 53.7419 251.947 56.1811Z" fill="#FDC65C"/>
        <path d="M248.176 56.181C248.176 59.0985 247.312 61.9504 245.692 64.3767C244.073 66.803 241.771 68.6947 239.077 69.8129C236.383 70.9311 233.418 71.2257 230.557 70.6593C227.696 70.0929 225.066 68.6911 223.001 66.6308C220.936 64.5706 219.528 61.9444 218.954 59.084C218.381 56.2235 218.667 53.2572 219.778 50.5596C220.889 47.8621 222.774 45.5544 225.196 43.928C227.617 42.3016 230.466 41.4296 233.383 41.4219C235.324 41.4168 237.246 41.7949 239.041 42.5343C240.836 43.2737 242.467 44.3601 243.841 45.7311C245.215 47.1021 246.306 48.7309 247.05 50.524C247.793 52.3172 248.176 54.2396 248.176 56.181Z" fill="#FDA73A"/>
        <path d="M234.991 57.5326C234.991 56.9336 234.78 56.4291 234.356 56.0189C233.94 55.6088 233.233 55.2377 232.237 54.9056C230.851 54.4825 229.838 53.9323 229.2 53.2552C228.569 52.5717 228.253 51.7058 228.253 50.6576C228.253 49.5899 228.562 48.7142 229.181 48.0306C229.806 47.347 230.662 46.9401 231.749 46.8099V44.6713H233.204V46.8197C234.298 46.9694 235.147 47.4284 235.753 48.1967C236.365 48.9649 236.671 50.0163 236.671 51.351H234.874C234.874 50.433 234.656 49.7038 234.22 49.1635C233.784 48.6231 233.194 48.3529 232.452 48.3529C231.677 48.3529 231.085 48.5547 230.675 48.9584C230.265 49.3555 230.06 49.9122 230.06 50.6283C230.06 51.2924 230.274 51.823 230.704 52.2201C231.14 52.6107 231.853 52.9688 232.843 53.2943C233.839 53.6133 234.614 53.9681 235.167 54.3588C235.727 54.7429 236.137 55.1921 236.397 55.7064C236.664 56.2207 236.798 56.823 236.798 57.5131C236.798 58.6133 236.466 59.4987 235.802 60.1693C235.144 60.8399 234.22 61.237 233.028 61.3607V63.226H231.583V61.3607C230.372 61.25 229.422 60.8204 228.731 60.0717C228.048 59.3164 227.706 58.2943 227.706 57.0052H229.513C229.513 57.9102 229.75 58.6068 230.226 59.0951C230.701 59.5834 231.375 59.8275 232.247 59.8275C233.1 59.8275 233.771 59.6224 234.259 59.2123C234.747 58.8021 234.991 58.2422 234.991 57.5326Z" fill="#F3E898"/>
        <path d="M204.22 20.9715C204.223 24.3607 203.222 27.6749 201.342 30.4948C199.463 33.3147 196.789 35.5136 193.66 36.8132C190.53 38.1129 187.086 38.4549 183.762 37.7961C180.439 37.1372 177.385 35.507 174.988 33.1118C172.59 30.7166 170.957 27.664 170.295 24.3402C169.632 21.0163 169.97 17.5707 171.266 14.4391C172.562 11.3074 174.757 8.63063 177.574 6.74727C180.391 4.86392 183.704 3.85864 187.092 3.85864C191.631 3.85864 195.985 5.66098 199.196 8.8697C202.408 12.0784 204.214 16.4311 204.22 20.9715Z" fill="#F19238"/>
        <path d="M202.291 22.3316C202.291 25.72 201.286 29.0323 199.404 31.8497C197.522 34.667 194.847 36.8629 191.718 38.1596C188.588 39.4563 185.144 39.7956 181.822 39.1345C178.499 38.4735 175.448 36.8418 173.052 34.4458C170.657 32.0499 169.026 28.9972 168.365 25.6739C167.704 22.3506 168.043 18.9059 169.339 15.7754C170.636 12.6449 172.831 9.96925 175.648 8.08675C178.464 6.20424 181.776 5.19946 185.163 5.19946C189.706 5.19946 194.062 7.00445 197.274 10.2173C200.486 13.4302 202.291 17.7879 202.291 22.3316Z" fill="#FDC65C"/>
        <path d="M198.809 22.3315C198.809 25.0312 198.009 27.6702 196.51 29.9149C195.01 32.1596 192.879 33.9091 190.385 34.9422C187.892 35.9754 185.148 36.2457 182.501 35.719C179.854 35.1923 177.422 33.8923 175.514 31.9833C173.606 30.0744 172.306 27.6422 171.779 24.9944C171.253 22.3467 171.523 19.6021 172.556 17.108C173.589 14.6138 175.338 12.482 177.582 10.9822C179.826 9.48231 182.464 8.68176 185.163 8.68176C188.782 8.68176 192.253 10.1199 194.813 12.6797C197.372 15.2395 198.809 18.7114 198.809 22.3315Z" fill="#FDA73A"/>
        <path d="M186.9 24.1008C186.9 23.5618 186.71 23.1077 186.329 22.7385C185.954 22.3694 185.318 22.0354 184.422 21.7366C183.174 21.3557 182.263 20.8606 181.688 20.2512C181.12 19.636 180.836 18.8567 180.836 17.9133C180.836 16.9524 181.114 16.1643 181.671 15.5491C182.233 14.9338 183.004 14.5676 183.982 14.4504V12.5256H185.292V14.4592C186.276 14.594 187.041 15.0071 187.586 15.6985C188.137 16.3899 188.412 17.3362 188.412 18.5374H186.795C186.795 17.7112 186.599 17.0549 186.206 16.5686C185.813 16.0823 185.283 15.8391 184.615 15.8391C183.918 15.8391 183.385 16.0208 183.016 16.384C182.646 16.7415 182.462 17.2424 182.462 17.887C182.462 18.4846 182.655 18.9622 183.042 19.3196C183.435 19.6711 184.076 19.9934 184.967 20.2864C185.863 20.5735 186.561 20.8928 187.059 21.2444C187.562 21.5901 187.932 21.9944 188.166 22.4573C188.406 22.9202 188.526 23.4622 188.526 24.0833C188.526 25.0735 188.228 25.8704 187.63 26.4739C187.038 27.0774 186.206 27.4348 185.134 27.5461V29.2249H183.833V27.5461C182.743 27.4465 181.888 27.0598 181.267 26.386C180.651 25.7063 180.344 24.7864 180.344 23.6262H181.97C181.97 24.4407 182.184 25.0676 182.611 25.5071C183.039 25.9465 183.646 26.1663 184.431 26.1663C185.198 26.1663 185.802 25.9817 186.241 25.6125C186.681 25.2434 186.9 24.7395 186.9 24.1008Z" fill="#F3E898"/>
        <path d="M253.989 28.978C253.989 34.9105 253.025 41.7402 254.278 47.5474C254.323 47.7023 254.417 47.8385 254.545 47.9355C254.674 48.0324 254.831 48.0849 254.992 48.0849C255.153 48.0849 255.31 48.0324 255.439 47.9355C255.567 47.8385 255.661 47.7023 255.706 47.5474C256.998 41.7595 256.033 34.9105 255.995 28.978C255.995 28.7119 255.889 28.4567 255.701 28.2686C255.513 28.0804 255.258 27.9747 254.992 27.9747C254.726 27.9747 254.471 28.0804 254.283 28.2686C254.095 28.4567 253.989 28.7119 253.989 28.978Z" fill="#F6AE4B"/>
        <path d="M271.077 80.8242C271.077 82.9657 270.72 85.6474 271.491 87.5767C271.522 87.6664 271.579 87.7443 271.656 87.7994C271.733 87.8546 271.826 87.8842 271.92 87.8842C272.015 87.8842 272.107 87.8546 272.184 87.7994C272.261 87.7443 272.319 87.6664 272.35 87.5767C273.121 85.5606 272.735 82.9078 272.764 80.8242C272.742 80.6159 272.643 80.4232 272.488 80.2832C272.332 80.1431 272.13 80.0657 271.92 80.0657C271.711 80.0657 271.509 80.1431 271.353 80.2832C271.197 80.4232 271.099 80.6159 271.077 80.8242Z" fill="#F6AE4B"/>
        <path d="M147.054 95.1128H140.974L139.854 98.2128H137.934L142.974 84.3528H145.074L150.094 98.2128H148.174L147.054 95.1128ZM146.534 93.6328L144.014 86.5928L141.494 93.6328H146.534ZM161.611 88.3528C161.611 89.5128 161.211 90.4794 160.411 91.2528C159.624 92.0128 158.418 92.3928 156.791 92.3928H154.111V98.2128H152.291V84.2728H156.791C158.364 84.2728 159.558 84.6528 160.371 85.4128C161.198 86.1728 161.611 87.1528 161.611 88.3528ZM156.791 90.8928C157.804 90.8928 158.551 90.6728 159.031 90.2328C159.511 89.7928 159.751 89.1661 159.751 88.3528C159.751 86.6328 158.764 85.7728 156.791 85.7728H154.111V90.8928H156.791ZM175.393 84.2728L170.133 98.2128H168.033L162.773 84.2728H164.713L169.093 96.2928L173.473 84.2728H175.393Z" fill="white"/>
        <path d="M274.586 188.9C299.785 186.144 317.965 163.478 315.192 138.274C312.42 113.069 289.744 94.8718 264.544 97.628C239.345 100.384 221.165 123.05 223.938 148.254C226.711 173.458 249.386 191.656 274.586 188.9Z" fill="#F7931E"/>
        <path d="M257.88 123.59C261.071 122.982 264.31 122.681 267.556 122.691C271.545 122.313 275.535 123.396 278.815 125.748C279.921 126.617 280.809 127.743 281.406 129.033C282.002 130.323 282.29 131.739 282.245 133.165C282.146 135.21 281.429 137.173 280.192 138.783C278.955 140.393 277.26 141.572 275.34 142.156C277.719 142.643 279.86 143.957 281.399 145.874C282.938 147.792 283.781 150.194 283.784 152.674C283.812 154.243 283.513 155.8 282.906 157.242C282.299 158.684 281.399 159.977 280.266 161.036C276.187 164.096 271.137 165.491 266.105 164.946C263.357 164.964 260.611 164.814 257.88 164.497V123.59ZM263.202 140.762H268.04C273.581 140.762 276.836 137.75 276.836 133.704C276.836 128.85 273.229 126.872 268.04 126.872C266.461 126.812 264.881 126.948 263.334 127.276L263.202 140.762ZM263.202 160.811C264.655 161.059 266.127 161.164 267.6 161.125C273.097 161.125 278.155 159.058 278.155 152.944C278.155 146.831 273.317 144.853 267.556 144.853H263.158L263.202 160.811Z" fill="white"/>
    </g>
    <defs>
        <clipPath id="clip0">
            <rect width="325" height="191" fill="white"/>
        </clipPath>
    </defs>
</svg>