<svg width="266" height="452" viewBox="0 0 266 452" fill="none" xmlns="http://www.w3.org/2000/svg">
    <path d="M177.632 27.7649C177.632 27.7649 180.217 50.9669 189.309 57.3085C172.974 60.4613 164.294 35.7298 164.294 35.7298C164.294 35.7298 166.078 25.55 177.632 27.7649Z" fill="#513311"/>
    <path d="M122.57 123.423C113.449 117.535 114.532 140.615 98.9196 174.444C95.8289 181.139 90.1818 196.917 85.7551 203.468C82.5127 212.977 92.2543 213.431 93.9369 210.877C101.967 198.62 135.683 131.885 122.57 123.423Z" fill="#FCCEA3"/>
    <path d="M91.9509 202.725C75.8112 193.101 38.7007 173.932 38.7007 173.932L31.8115 177.416C31.8115 177.416 78.8586 207.984 86.5854 212.328C94.5866 215.711 99.2083 207.054 91.9509 202.725Z" fill="#FCCEA3"/>
    <path style="mix-blend-mode:overlay" opacity="0.5" d="M102.53 166.118C101.432 168.809 100.241 171.587 98.9194 174.444C97.7062 177.07 96.1031 181.096 94.3339 185.41C96.3269 187.149 100.154 190.958 99.8582 194.37C99.6054 197.177 97.634 202.263 95.056 205.914C93.4312 208.222 91.5609 209.947 89.7266 210.156C88.9612 210.25 87.4086 209.687 85.3433 208.713C74.6557 203.663 50.1753 187.134 49.2366 188.7C63.4843 197.891 81.9926 209.759 86.5926 212.342C91.7197 214.506 95.4604 211.7 95.5615 208.273C101.998 196.986 107.806 185.353 112.958 173.427C109.643 170.259 105.462 166.768 102.53 166.118Z" fill="url(#paint0_linear)"/>
    <path d="M23.0376 176.933C25.0462 178.198 27.2679 179.087 29.5946 179.559C40.0583 181.803 44.355 169.459 25.3196 162.439V162.302C21.7089 160.736 6.86184 158.319 6.39245 159.539C6.30013 159.763 6.25704 160.005 6.26608 160.248C6.27511 160.491 6.33606 160.729 6.44482 160.946C6.55359 161.164 6.70765 161.355 6.89666 161.508C7.08567 161.661 7.30525 161.772 7.54064 161.833C3.81443 161.313 0.644262 161.111 0.434843 161.667C-0.0345441 162.886 0.716475 164.156 3.15729 164.264C4.34881 164.315 8.32777 165.469 12.2201 166.703C6.73908 166.032 0.268752 165.693 0.0593333 166.45C-0.251184 167.605 0.644262 168.73 3.04897 168.694C4.36325 168.694 9.25932 169.718 13.6282 170.757C8.3711 170.13 2.88288 169.827 2.68068 170.562C2.32683 171.825 3.1934 173.015 5.63421 172.9C7.68507 172.792 18.9359 175.75 23.0376 176.933Z" fill="#FCCEA3"/>
    <path d="M111.34 128.812C111.34 128.812 103.007 160.881 96.4137 171.096L114.034 179.191C114.034 179.191 139.922 127.326 126.007 118.344C115.341 117.593 111.34 128.812 111.34 128.812Z" fill="#434040"/>
    <path opacity="0.2" d="M80.9023 434.99C105.483 433.622 130.138 434.497 154.56 437.602C184.131 437.198 209.045 435.755 217.465 435.257C243.657 433.67 264.953 438.54 265.126 441.649C265.299 444.759 240.27 449.78 214.085 451.36C191.497 452.724 181.272 451.36 139.142 451.36C97.0131 451.36 81.1334 451.259 72.7061 451.764C46.5215 453.344 33.9997 446.584 33.8119 443.482C33.6242 440.38 54.7177 436.57 80.9023 434.99Z" fill="black"/>
    <path d="M95.9083 420.806C95.9083 420.806 91.2505 433.829 89.8279 435.777L103.093 434.161L105.332 420.301L95.9083 420.806Z" fill="#636061"/>
    <path d="M197.888 420.871C197.888 420.871 201.542 432.076 200.119 434.023L210.511 432.537L207.81 419.789L197.888 420.871Z" fill="#636061"/>
    <path d="M212.591 220.667C194.458 214.391 141.004 232.855 141.004 232.855C141.35 233.778 138.536 241.539 143.006 249.41C134.586 267.223 105.939 329.542 105.939 329.542L91.6982 423.894C96.096 424.248 99.3384 426.059 106.863 425.965L121.963 334.6L161.861 260.744C161.861 260.744 175.394 264.568 184.139 260.744C181.012 290.288 171.133 337.031 171.133 337.031L196.451 425.258C200.3 424.039 208.005 422.372 212.042 424.854L188.146 336.836C188.146 336.836 200.509 289.263 212.793 252.375C213.826 247.275 215.472 230.999 212.591 220.667Z" fill="#006A83"/>
    <path d="M177.914 231.836C190.002 229.152 193.324 223.496 212.576 220.668C214.36 222.76 214.122 229.036 214.136 229.109C210.143 232.564 200.336 236.749 178.752 240.991C155.643 245.522 145.447 242.298 140.507 241.295C140.327 237.684 140.688 235.367 140.507 234.841C150.581 229.61 165.291 234.635 177.914 231.836Z" fill="#FFA45D"/>
    <path d="M208.913 233.641L212.86 232.177L208.936 221.612L204.989 223.076L208.913 233.641Z" fill="#05586B"/>
    <path d="M194.696 239.504L198.752 238.377L195.728 227.52L191.672 228.647L194.696 239.504Z" fill="#05586B"/>
    <path d="M142.703 242.816L147.021 244.497L145.772 233.293L141.583 233.762L142.703 242.816Z" fill="#05586B"/>
    <path d="M151.924 245.046L156.279 244.642L156.3 235.515L152.112 235.984L151.924 245.046Z" fill="#05586B"/>
    <path d="M163.919 245.298L182.232 243.336L180.095 231.742L161.435 235.176L163.919 245.298Z" fill="#094452"/>
    <g style="mix-blend-mode:color-dodge" opacity="0.29">
        <path style="mix-blend-mode:color-dodge" opacity="0.29" d="M188.464 108.077L188.565 108.034L188.464 108.077Z" fill="url(#paint1_linear)"/>
    </g>
    <path d="M140.507 235.337C140.507 235.337 150.321 240.659 181.019 233.856C211.717 227.052 212.591 220.668 212.591 220.668C212.591 220.668 210.424 219.867 201.217 181.507C188.154 127.261 195.231 106.844 178.073 100.17L115.189 123.257C153.332 212.176 140.507 225.115 140.507 235.337Z" fill="#434040"/>
    <path d="M120.634 124.577C126.411 131.337 149.599 133.415 149.599 133.415C149.599 133.415 180.528 110.076 178.101 103.51C167.814 83.9072 172.671 76.0951 171.162 57.4383C169.652 38.7814 166.201 34.1569 166.201 34.1569C163.233 16.8492 142.291 5.04619 124.194 12.571C106.032 18.9486 98.0745 34.6259 102.739 54.0474C105.809 66.7955 113.947 88.8511 120.634 113.2C121.363 115.805 120.634 124.577 120.634 124.577Z" fill="#FCCEA3"/>
    <path style="mix-blend-mode:overlay" opacity="0.5" d="M149.888 134.266C154.726 133.198 180.528 110.076 178.101 103.51C171.855 86.5707 172.093 79.2191 171.71 67.5964L170.728 63.4048C170.728 63.4048 167.392 78.5553 170.245 89.4782C174.433 105.494 148.328 124.959 148.328 124.959C148.328 124.959 123.335 122.86 119.609 118.993C119.746 120.111 120.634 124.577 120.634 124.577C126.44 131.337 145.049 135.341 149.888 134.266Z" fill="url(#paint2_linear)"/>
    <g style="mix-blend-mode:overlay" opacity="0.43">
        <g style="mix-blend-mode:overlay" opacity="0.43">
            <path d="M117.074 37.8003C117.074 37.8003 121.984 48.8602 145.902 34.4672C145.902 34.4672 152.459 50.0362 163.76 52.9509C163.76 52.9509 159.16 23.3351 155.253 22.9311C153.393 22.6913 151.517 22.6045 149.642 22.6714C149.642 22.6714 132.809 25.0161 125.747 26.5817C118.684 28.1472 104.668 26.5384 102.985 29.9148C102.356 33.2122 101.901 36.5403 101.62 39.8853C101.261 43.9677 101.504 48.0807 102.342 52.0923C102.22 41.9847 105.347 37.8291 117.074 37.8003Z" fill="#050006"/>
        </g>
    </g>
    <path d="M100.532 13.3427C105.426 7.55919 111.6 3.14158 125.379 0.919502C139.157 -1.30258 159.182 0.522702 164.374 6.17891C182.615 25.9251 178.167 34.2147 178.289 51.1544C178.412 68.0942 173.126 75.9436 173.126 75.9436C170.873 77.033 165.392 64.018 165.392 64.018C159.341 56.5798 164.287 27.7576 153.455 25.2109C153.159 25.146 151.209 27.3392 150.986 27.534C132.463 43.9255 115.016 34.5393 115.016 34.5393C109.55 36.545 101.118 47.6353 86.7405 42.2604C101.422 27.534 92.524 28.4238 100.532 13.3427Z" fill="#513311"/>
    <path d="M170.996 71.7592C176.116 64.9414 175.834 52.8931 168.201 52.4891C160.568 52.0851 162.778 64.8621 162.778 64.8621C162.778 64.8621 162.359 83.2736 170.996 71.7592Z" fill="#FCCEA3"/>
    <path d="M114.633 85.2143C106.986 81.4484 101.787 70.576 108.408 66.7667C115.03 62.9575 119.862 78.8655 119.862 78.8655C119.862 78.8655 127.552 91.5776 114.633 85.2143Z" fill="#FCCEA3"/>
    <path opacity="0.05" d="M165.284 65.2661C165.284 65.2661 165.616 63.715 166.829 63.5346C168.042 63.3543 169.754 63.6068 170.599 59.5089C170.494 59.1422 170.302 58.8062 170.039 58.5298C169.777 58.2534 169.451 58.0447 169.089 57.9217C167.941 57.6331 166.988 57.7774 166.425 59.3069C165.861 60.8364 164.576 63.5851 165.284 65.2661Z" fill="#222221"/>
    <path d="M136.037 44.921C137.993 43.7583 140.136 42.943 142.37 42.5113C146.313 41.6889 151.144 43.2328 151.144 43.2328C151.144 43.2328 157.275 45.2745 156.51 46.0104C156.141 46.3639 148.566 44.4665 145.952 44.5242C143.338 44.5819 136.889 47.3018 136.297 47.1863C136.045 47.1411 135.814 47.0159 135.639 46.8293C135.464 46.6427 135.353 46.4045 135.324 46.1503C135.295 45.896 135.348 45.6391 135.477 45.4176C135.605 45.1962 135.802 45.022 136.037 44.921Z" fill="#513311"/>
    <path d="M119.782 48.9612C118.193 48.5572 115.449 48.9612 113.109 49.4806C109.499 50.2021 106.704 53.3765 106.704 53.3765C106.704 53.3765 102.877 58.1165 103.888 58.5926C104.372 58.8235 109.47 53.629 111.578 52.619C113.687 51.6089 120.367 51.847 120.778 51.4791C120.94 51.2614 121.043 51.0061 121.078 50.7374C121.114 50.4688 121.08 50.1956 120.98 49.9436C120.881 49.6916 120.718 49.4691 120.508 49.2973C120.299 49.1254 120.049 49.0097 119.782 48.9612Z" fill="#513311"/>
    <g style="mix-blend-mode:multiply" opacity="0.58">
        <g style="mix-blend-mode:multiply" opacity="0.58">
            <path d="M131.415 101.613C134.6 103.056 142.37 100.892 144.363 98.5685C144.363 98.5685 139.965 105.393 131.415 101.613Z" fill="#D4BDA0"/>
        </g>
    </g>
    <path d="M118.569 87.3859C119.342 84.1755 123.494 87.3066 129.199 86.8016C134.904 86.2965 155.918 73.9741 155.918 82.9346C155.918 91.4766 139.958 100.249 134.001 100.019C123.01 99.6651 118.193 88.8288 118.54 87.3859" fill="#333333"/>
    <path d="M154.524 87.5229C151.635 88.0929 147.389 89.0596 145.36 90.1418C140.933 92.4938 140.558 93.4172 140.009 93.8862C139.93 93.5182 140.681 92.6092 142.024 91.6641C141.504 91.2601 139.547 91.5054 136.933 92.5371C133.156 94.0233 129.509 97.0029 127.776 98.5396C129.732 99.4443 131.853 99.9356 134.008 99.9825C138.911 100.177 150.53 94.3335 154.524 87.5229Z" fill="#FD6C6C"/>
    <path d="M129.379 85.4669C125.971 85.7699 123.198 84.8248 121.306 84.7455C121.294 84.9566 121.354 85.1655 121.476 85.3384C121.597 85.5113 121.774 85.6379 121.977 85.6978C124.203 86.5475 126.596 86.871 128.968 86.6429C131.596 86.2389 146.486 83.0789 148.653 81.7875C149.26 81.4869 149.79 81.0518 150.203 80.5155C150.616 79.9791 150.901 79.3556 151.036 78.6924C144.854 79.2191 133.04 85.1855 129.372 85.4813" fill="#CF7F7D"/>
    <path d="M121.457 85.3513C121.69 86.0373 121.963 86.7094 122.273 87.3641C122.439 87.6797 122.673 87.954 122.96 88.1663C123.246 88.3787 123.577 88.5237 123.927 88.5906C124.582 88.6515 125.242 88.5395 125.841 88.2659C126.389 88.0062 126.888 89.0956 127.826 89.377C128.895 89.7089 130.419 89.2471 131.033 89.0451C131.646 88.8431 132.99 89.3553 133.921 89.0884C135.438 88.6772 136.579 87.5156 136.81 87.5733C137.629 87.7629 138.486 87.6923 139.263 87.3716C140.039 87.0508 140.697 86.4959 141.143 85.7841C143.085 86.2964 145.475 85.005 145.966 83.8579C147.006 83.9661 149.057 83.2951 149.498 82.6674C149.938 82.0398 150.444 80.0125 148.4 79.8393C147.598 79.7672 145.981 81.2823 145.511 81.6069C145.042 81.9316 143.179 81.5276 142.507 81.7079C141.063 82.0975 140.81 83.1508 140.341 83.3889C139.872 83.627 139.099 83.0426 138.232 83.1508C135.835 83.4683 135.806 84.5937 135.279 84.738C134.458 84.8211 133.633 84.8476 132.809 84.8174C131.603 84.8895 130.347 86.0511 129.921 86.1593C129.495 86.2675 128.635 85.7192 127.487 85.8058C126.765 85.8635 125.898 86.5272 125.516 86.4334C124.721 86.1882 123.775 84.6947 121.407 85.3513" fill="white"/>
    <path d="M164.128 21.8274C164.128 21.8274 167.941 59.408 172.455 66.9184C172.455 66.9184 147.252 48.2687 149.411 25.1966" fill="#513311"/>
    <path opacity="0.1" d="M157.174 16.7699C157.174 16.7699 162.829 38.7382 166.439 42.7784C170.05 46.8185 161.312 21.1491 157.174 16.7699Z" fill="black"/>
    <path opacity="0.1" d="M159.579 11.7991C160.041 14.4252 169.775 30.2972 171.4 38.2332C171.4 38.2332 170.895 28.407 166.547 21.6397C164.403 18.2369 162.077 14.9519 159.579 11.7991Z" fill="black"/>
    <path opacity="0.1" d="M131.674 11.5632C131.674 11.5632 121.703 11.7089 117.224 15.3393C112.746 18.9697 99.6094 26.4572 99.6422 27.5792C99.6422 27.5792 116.233 20.1457 118.472 17.4539C120.712 14.7621 131.674 11.5632 131.674 11.5632Z" fill="black"/>
    <path d="M101.18 2.36236L101.606 2.18921L101.18 2.36236Z" fill="#808080"/>
    <path d="M95.5833 414.833C98.544 394.459 108.163 330.458 108.163 330.458L144.912 261.321" stroke="#7C98A6" stroke-width="1.15" stroke-miterlimit="10" stroke-dasharray="5.74 5.74"/>
    <path d="M197.021 260.391C197.021 260.391 178.137 333.821 178.044 337.233C177.95 340.646 203.629 421.643 203.629 421.643" stroke="#7C98A6" stroke-width="1.15" stroke-miterlimit="10" stroke-dasharray="5.73 5.73"/>
    <path d="M118.632 74.0518C122.636 72.9796 125.093 69.1684 124.119 65.5392C123.146 61.91 119.11 59.8372 115.106 60.9094C111.102 61.9816 108.646 65.7929 109.619 69.4221C110.593 73.0512 114.628 75.1241 118.632 74.0518Z" fill="#534741"/>
    <path d="M118.415 74.144C122.265 73.1211 124.634 69.4638 123.705 65.975C122.777 62.4863 118.903 60.4873 115.052 61.5102C111.202 62.533 108.833 66.1904 109.762 69.6791C110.69 73.1678 114.564 75.1668 118.415 74.144Z" fill="white"/>
    <path d="M126.101 70.8069L127.783 76.1024L112.308 81.0083C112.308 81.0083 111.138 76.3838 110.777 76.1962C110.416 76.0086 111.976 73.2743 117.847 71.4129C123.718 69.5516 126.101 70.8069 126.101 70.8069Z" fill="#FCCEA3"/>
    <path opacity="0.05" d="M124.498 72.4085C124.498 72.4085 119.363 72.0117 116.424 73.8514C113.485 75.6912 110.091 77.7978 113.579 76.7373C117.067 75.6767 125.285 73.4546 124.498 72.4085Z" fill="black"/>
    <path opacity="0.4" d="M212.591 220.667C212.591 220.667 210.424 219.867 201.217 181.507C196.162 160.635 194.147 144.77 192.551 132.773C191.99 132.703 191.421 132.746 190.877 132.898C190.333 133.05 189.824 133.309 189.381 133.66C182.882 138.79 191.273 171.435 193.974 184.111C196.675 196.787 204.806 213.525 202.64 219.463C200.473 225.4 186.139 228.091 169.689 231.583C158.503 233.971 155.658 236.099 154.986 237.225C161.449 237.131 170.028 236.28 181.041 233.834C211.71 227.045 212.591 220.667 212.591 220.667Z" fill="url(#paint3_linear)"/>
    <path d="M220.411 186.911C202.293 191.817 160.323 205.798 160.323 205.798L160.395 212.457C160.395 212.457 215.111 199.991 223.61 197.473C231.59 194.067 228.579 184.689 220.411 186.911Z" fill="#FCCEA3"/>
    <path d="M149.038 67.7199C153.087 66.9168 155.773 63.2686 155.039 59.5714C154.304 55.8743 150.426 53.5282 146.377 54.3313C142.328 55.1345 139.642 58.7827 140.377 62.4798C141.111 66.177 144.989 68.523 149.038 67.7199Z" fill="#534741"/>
    <path d="M148.662 67.9109C152.57 67.1357 155.163 63.6147 154.454 60.0465C153.745 56.4783 150.002 54.2141 146.094 54.9893C142.186 55.7645 139.593 59.2855 140.302 62.8537C141.011 66.4219 144.754 68.6861 148.662 67.9109Z" fill="white"/>
    <path d="M147.858 63.1739C149.274 63.1739 150.422 62.0272 150.422 60.6127C150.422 59.1982 149.274 58.0516 147.858 58.0516C146.443 58.0516 145.295 59.1982 145.295 60.6127C145.295 62.0272 146.443 63.1739 147.858 63.1739Z" fill="#745022"/>
    <path d="M151.003 60.8637C152.415 60.5836 153.428 59.6943 153.266 58.8775C153.104 58.0607 151.827 57.6256 150.415 57.9058C149.003 58.1859 147.99 59.0751 148.152 59.8919C148.314 60.7088 149.591 61.1438 151.003 60.8637Z" fill="white"/>
    <path d="M117.283 69.465C118.699 69.465 119.847 68.3183 119.847 66.9038C119.847 65.4893 118.699 64.3427 117.283 64.3427C115.868 64.3427 114.72 65.4893 114.72 66.9038C114.72 68.3183 115.868 69.465 117.283 69.465Z" fill="#745022"/>
    <path d="M120.427 67.1538C121.839 66.8737 122.853 65.9844 122.69 65.1676C122.528 64.3508 121.252 63.9157 119.839 64.1959C118.427 64.476 117.414 65.3652 117.576 66.182C117.739 66.9989 119.015 67.4339 120.427 67.1538Z" fill="white"/>
    <path d="M140.283 68.26L141.114 73.7575L157.167 71.3551C157.167 71.3551 156.178 66.6873 156.445 66.3626C156.712 66.038 154.083 64.2632 147.988 65.1722C141.894 66.0812 140.283 68.26 140.283 68.26Z" fill="#FCCEA3"/>
    <path opacity="0.05" d="M142.428 68.996C142.428 68.996 146.869 66.3844 150.328 66.7667C153.787 67.1491 157.752 67.4882 154.141 68.0726C150.53 68.657 142.19 70.2802 142.428 68.996Z" fill="black"/>
    <path d="M180.817 108.366C170.469 111.656 188.991 125.493 205.196 159.041C208.402 165.685 216.302 186.247 218.555 193.829C223.834 202.379 229.59 192.827 228.665 189.919C224.318 175.93 195.685 103.64 180.817 108.366Z" fill="#FCCEA3"/>
    <path style="mix-blend-mode:overlay" opacity="0.5" d="M228.68 189.919C226.903 184.22 221.105 168.86 213.854 152.966L204.589 157.807L205.196 159.041C206.25 161.205 207.817 164.928 209.529 169.141C212.511 169.718 217.783 171.486 219.429 173.903C220.924 176.067 225.076 185.684 225.575 190.092C226.189 195.453 218.974 194.269 213.963 195.864C200.011 200.38 177.943 206.527 172.909 209.535C189.598 205.69 217.718 199.161 223.618 197.415C223.914 197.285 224.188 197.155 224.448 197.011C227.272 196.023 229.243 191.708 228.68 189.919Z" fill="url(#paint4_linear)"/>
    <path d="M177.842 120.479C177.842 120.479 199.404 152.497 203.116 164.062L221.957 155.347C221.957 155.347 194.869 97.4719 179.076 102.486C171.725 110.234 177.842 120.479 177.842 120.479Z" fill="#434040"/>
    <path d="M101.859 65.0713C101.375 63.6284 123.963 59.04 123.963 59.04C123.963 59.04 127.971 69.8113 126.13 73.0434C124.288 76.2755 119.255 78.8728 113.211 79.5365C110.127 79.854 105.419 75.3232 101.859 65.0713Z" stroke="#333333" stroke-width="2.61" stroke-miterlimit="10"/>
    <path d="M156.755 51.0751C156.474 49.6322 134.145 56.2623 134.145 56.2623C134.145 56.2623 136.485 68.1952 139.677 70.0926C142.869 71.9901 148.552 71.7159 154.12 69.2702C156.965 68.0148 158.799 61.731 156.755 51.0751Z" stroke="#333333" stroke-width="2.61" stroke-miterlimit="10"/>
    <path d="M123.609 59.2996C127.166 57.7711 130.936 56.7978 134.788 56.4138L135.423 58.4267C132.391 58.8523 126.202 60.3746 124.281 61.6011L123.609 59.2996Z" fill="#333333"/>
    <path d="M156.755 51.0751L163.803 54.8266C163.474 55.399 163.231 56.0164 163.081 56.6591L156.827 54.2134C156.993 53.1715 156.968 52.1083 156.755 51.0751Z" fill="#333333"/>
    <path opacity="0.2" d="M102.285 65.8276C101.819 64.5703 123.558 60.572 123.558 60.572C123.558 60.572 127.416 69.9579 125.643 72.7743C123.871 75.5906 119.027 77.8538 113.21 78.4322C110.242 78.7088 105.711 74.7608 102.285 65.8276Z" fill="white"/>
    <path opacity="0.2" d="M156.082 51.8245C155.82 50.4944 135.046 56.6063 135.046 56.6063C135.046 56.6063 137.223 67.6065 140.192 69.3556C143.162 71.1047 148.45 70.852 153.63 68.5974C156.277 67.4402 157.984 61.6475 156.082 51.8245Z" fill="white"/>
    <path d="M156.567 215.286C167.233 214.376 161.167 199.839 147.519 198.396C133.871 196.953 113.788 197.357 113.102 199.579C111.781 203.858 133.437 202.595 134.694 202.696C130.975 203.288 131.083 208.468 135.134 208.511C132.672 209.463 134.412 212.082 137.842 212.046C134.123 216.635 153.881 215.509 156.567 215.286Z" fill="#FCCEA3"/>
    <path opacity="0.1" d="M99.8582 18.4507C100.804 17.2387 106.357 10.2261 120.381 6.4457C134.405 2.66528 139.417 4.15148 139.417 4.15148C139.417 4.15148 122.136 7.25373 115.247 10.356C108.358 13.4583 99.8582 18.4507 99.8582 18.4507Z" fill="black"/>
    <path opacity="0.1" d="M142.731 3.74773C142.515 3.74773 151.166 4.89484 153.195 7.65801C154.885 9.97389 148.263 25.2687 148.602 24.8647C148.942 24.4607 158.134 8.40111 161.023 5.43593C157.513 7.45601 158.192 6.38104 154.95 6.10689C151.186 4.17078 146.946 3.35211 142.731 3.74773Z" fill="black"/>
    <path d="M86.3905 425.453C86.6938 425.453 98.313 425.308 98.2552 427.617C98.1974 429.926 98.1324 432.465 98.3563 432.48C98.5801 432.494 104.083 432.48 104.083 432.48C104.083 432.48 105.404 439.305 105.282 440.661L105.195 442.782C105.195 442.782 98.7462 445.444 97.3814 445.92C96.0166 446.396 74.9952 448.987 66.6618 449.65C61.9347 450.076 57.1703 449.769 52.5369 448.741C52.5369 448.741 53.4107 442.428 55.9814 440.993C58.5522 439.557 69.1315 439.103 69.1315 439.103L83.0326 433.72L86.3905 425.453Z" fill="#4D4D4D"/>
    <path d="M52.5369 448.741C57.1718 449.759 61.9362 450.056 66.6618 449.621C74.9664 448.958 96.0166 446.36 97.3814 445.892C98.7462 445.423 105.195 442.753 105.195 442.753L105.282 440.632C105.293 440.495 105.293 440.358 105.282 440.221C102.92 441.382 97.9591 443.828 96.8109 444.355C95.2944 445.076 70.8141 447.796 67.2395 447.962C65.5133 448.138 63.77 448.036 62.0763 447.659C62.1824 446.542 62.4575 445.447 62.8923 444.413C63.6 442.76 66.4235 441.527 66.4235 441.527C67.4273 440.38 67.3839 439.665 66.6907 439.247C63.405 439.471 57.7507 439.968 55.967 440.993C53.4251 442.45 52.5369 448.741 52.5369 448.741Z" fill="white"/>
    <path d="M99.4539 441.058C101.177 441.058 102.573 439.388 102.573 437.328C102.573 435.268 101.177 433.598 99.4539 433.598C97.7309 433.598 96.3342 435.268 96.3342 437.328C96.3342 439.388 97.7309 441.058 99.4539 441.058Z" fill="white"/>
    <path d="M69.1676 438.965C69.1676 438.965 72.7783 438.41 74.2875 439.687C75.7968 440.964 75.7751 439.607 74.5114 438.821C73.4897 438.197 72.27 437.981 71.0957 438.215C70.3956 438.281 69.7279 438.541 69.1676 438.965Z" fill="white"/>
    <path d="M72.7422 437.653C72.7422 437.653 76.3095 437.097 77.8549 438.374C79.4003 439.651 79.3497 438.302 78.0788 437.515C77.0584 436.888 75.8374 436.671 74.6631 436.909C73.9656 436.972 73.2999 437.229 72.7422 437.653Z" fill="white"/>
    <path d="M76.4612 436.13C76.4612 436.13 80.0285 435.575 81.5739 436.852C83.1193 438.129 83.0687 436.78 81.805 435.993C80.7846 435.366 79.5636 435.149 78.3893 435.387C77.69 435.451 77.0224 435.709 76.4612 436.13Z" fill="white"/>
    <path d="M80.7941 434.565C80.7941 434.565 84.3614 434.009 85.9068 435.286C87.4521 436.563 87.4016 435.207 86.1306 434.42C85.109 433.796 83.8893 433.58 82.7149 433.814C82.0167 433.879 81.3509 434.139 80.7941 434.565Z" fill="white"/>
    <path d="M83.0686 432.869C83.0686 432.869 86.4554 431.614 88.2319 432.566C90.0083 433.519 89.6761 432.191 88.2824 431.679C87.1548 431.271 85.9148 431.302 84.8089 431.765C84.1378 431.965 83.5353 432.347 83.0686 432.869Z" fill="white"/>
    <path d="M196.675 437.198C195.71 438.665 195.145 440.359 195.035 442.111C195.035 444.052 194.739 446.584 194.891 447.161C195.043 447.738 199.224 449.095 203.831 449.095C208.438 449.095 216.649 447.609 217.992 446.122C219.335 444.636 217.544 439.629 217.84 438.23C218.137 436.83 212.331 432.566 211.435 431.823C210.54 431.08 210.511 426.095 210.511 426.095L198.957 427.242L199.563 432.775L196.675 437.198Z" fill="#4D4D4D"/>
    <path d="M194.891 447.197C195.036 447.796 199.224 449.131 203.831 449.131C208.438 449.131 216.649 447.645 217.992 446.158C218.469 445.632 218.548 444.658 218.469 443.561C217.537 445.365 213.558 446.252 213.284 446.303C213.01 446.353 211.912 441.397 210.85 440.582C209.789 439.766 204.929 440.178 203.203 441.144C201.477 442.111 201.759 447.111 201.535 447.262C201.311 447.414 200.625 447.515 199.101 447.464C198.126 447.464 196.162 446.526 194.87 445.884C194.828 446.321 194.835 446.762 194.891 447.197Z" fill="white"/>
    <path d="M200.495 439.038C200.423 439.709 201.86 438.59 206.142 438.316C210.424 438.042 211.103 438.922 211.811 438.367C212.641 437.725 210.013 437.147 205.911 437.422C202.907 437.595 200.611 438.006 200.495 439.038Z" fill="white"/>
    <path d="M201.217 436.577C201.152 437.162 202.416 436.181 206.149 435.914C209.883 435.647 210.482 436.44 211.11 435.957C211.739 435.474 209.536 434.889 205.954 435.127C203.29 435.308 201.318 435.676 201.217 436.577Z" fill="white"/>
    <path d="M202.221 434.824C202.17 435.3 203.188 434.507 206.221 434.283C209.254 434.06 209.724 434.716 210.229 434.327C210.735 433.937 208.958 433.461 206.055 433.656C203.903 433.8 202.307 434.096 202.221 434.824Z" fill="white"/>
    <path d="M202.907 433.064C202.863 433.439 203.672 432.819 206.07 432.645C208.467 432.472 208.843 432.985 209.24 432.645C209.637 432.306 208.236 431.924 205.94 432.112C204.264 432.256 203.001 432.487 202.907 433.064Z" fill="white"/>
    <path d="M202.531 431.426C202.488 431.801 203.297 431.181 205.694 431.008C208.092 430.835 208.467 431.34 208.864 431.008C209.262 430.676 207.861 430.286 205.564 430.474C203.86 430.604 202.596 430.835 202.531 431.426Z" fill="white"/>
    <g style="mix-blend-mode:overlay" opacity="0.5">
        <path style="mix-blend-mode:overlay" opacity="0.5" d="M194.646 250.622C194.646 250.622 190.999 253.184 182.896 255.074C174.794 256.964 169.804 255.074 156.842 251.567C143.88 248.061 157.376 254.67 157.109 257.505C156.842 260.34 134.961 300.54 134.961 300.54C134.961 300.54 118.085 329.138 114.741 329.398C111.398 329.658 116.496 331.966 116.186 333.041C115.875 334.116 101.837 421.42 100.299 425.503C102.462 425.846 104.651 425.998 106.841 425.958L121.941 334.593L161.839 260.737C161.839 260.737 175.372 264.561 184.117 260.737C181.012 290.288 171.133 337.031 171.133 337.031L174.91 350.169C174.671 345.761 174.296 340.22 173.834 338.445C173.039 335.343 194.646 250.622 194.646 250.622Z" fill="url(#paint5_linear)"/>
    </g>
    <path opacity="0.2" d="M115.471 31.5958C115.471 31.5958 129.545 41.0541 148.227 29.8066C132.881 41.4004 118.865 36.2997 115.731 34.8568L115.362 34.6909H115.29H115.254H115.211L115.117 34.6404C109.65 36.646 101.563 47.6353 87.1852 42.2605C87.113 42.1595 102.22 42.2605 115.471 31.5958Z" fill="white"/>
    <path d="M178.791 162.218C178.791 165.496 177.819 168.7 175.998 171.425C174.177 174.151 171.589 176.275 168.56 177.529C165.532 178.784 162.199 179.112 158.985 178.473C155.77 177.833 152.817 176.255 150.499 173.937C148.181 171.619 146.602 168.666 145.963 165.451C145.324 162.236 145.652 158.904 146.906 155.875C148.161 152.847 150.285 150.259 153.01 148.438C155.736 146.616 158.94 145.644 162.218 145.644C166.613 145.644 170.829 147.391 173.937 150.499C177.045 153.607 178.791 157.822 178.791 162.218Z" fill="#80BC00"/>
    <path d="M164.609 172.764C162.782 170.018 161.732 166.86 161.562 163.603C161.504 163.053 161.561 162.498 161.729 161.97C161.896 161.442 162.172 160.951 162.539 160.526C162.906 160.101 163.357 159.751 163.866 159.496C164.376 159.241 164.933 159.086 165.505 159.04C166.476 159.04 168.533 159.59 168.838 162.705C169.105 165.563 168.838 172.215 168.838 172.215L170.686 171.867C170.686 171.867 170.914 168.367 171.295 165.178C171.543 162.851 171.714 159.535 173.429 158.674C175.734 157.519 176.667 159.388 176.724 161.55C176.86 163.912 176.228 166.257 174.915 168.257C174.534 168.752 174.19 169.272 173.886 169.814C176.2 168.421 177.855 166.211 178.496 163.658C179.154 161.027 178.702 158.253 177.239 155.943C176.788 155.337 176.12 154.913 175.363 154.754C174.607 154.595 173.815 154.712 173.143 155.082C171.976 155.72 170.973 156.603 170.21 157.666C169.892 157.106 169.442 156.625 168.896 156.262C168.35 155.899 167.724 155.665 167.067 155.577C165.673 155.323 164.232 155.475 162.929 156.014C161.626 156.553 160.52 157.453 159.752 158.6C158.855 159.731 158.229 161.039 157.92 162.429C157.61 163.82 157.625 165.26 157.962 166.644C158.555 168.781 159.438 170.832 160.59 172.746L164.609 172.764Z" fill="white"/>
    <defs>
        <linearGradient id="paint0_linear" x1="49.2294" y1="189.602" x2="112.95" y2="189.602" gradientUnits="userSpaceOnUse">
            <stop stop-opacity="0"/>
            <stop offset="1"/>
        </linearGradient>
        <linearGradient id="paint1_linear" x1="188.406" y1="107.937" x2="188.512" y2="107.914" gradientUnits="userSpaceOnUse">
            <stop stop-color="#C5A838"/>
            <stop offset="1" stop-color="#C5A838" stop-opacity="0"/>
        </linearGradient>
        <linearGradient id="paint2_linear" x1="-13317.5" y1="56414.9" x2="-15343.6" y2="49660.3" gradientUnits="userSpaceOnUse">
            <stop stop-opacity="0"/>
            <stop offset="1"/>
        </linearGradient>
        <linearGradient id="paint3_linear" x1="12502" y1="26924.7" x2="19188.7" y2="26924.7" gradientUnits="userSpaceOnUse">
            <stop stop-opacity="0"/>
            <stop offset="1"/>
        </linearGradient>
        <linearGradient id="paint4_linear" x1="-7673.02" y1="14367.1" x2="24866.6" y2="14367.1" gradientUnits="userSpaceOnUse">
            <stop stop-opacity="0"/>
            <stop offset="1"/>
        </linearGradient>
        <linearGradient id="paint5_linear" x1="13206" y1="82489.2" x2="25532.4" y2="82489.2" gradientUnits="userSpaceOnUse">
            <stop stop-opacity="0"/>
            <stop offset="1"/>
        </linearGradient>
    </defs>
</svg>