<svg width="592" height="852" viewBox="0 0 592 852" fill="none" xmlns="http://www.w3.org/2000/svg">
    <ellipse cx="296" cy="284" rx="296" ry="284" fill="#F7931E"/>
    <g clip-path="url(#clip0)">
        <path d="M392.514 810.163C392.833 812.898 405.304 841.8 394.036 848.792C382.768 855.784 366.781 846.355 365.527 843.651C364.272 840.947 373.834 812.929 373.515 810.492C373.196 808.055 365.414 719.959 365.414 719.959L385.513 715.127L392.514 810.163Z" fill="#FACC9E"/>
        <path d="M310.472 725.553L314.584 796.334C315.294 801.783 316.527 811.695 316.301 813.443C315.993 815.879 290.002 831.693 275.28 834.737C260.558 837.78 251.356 835.384 250.102 832.958C248.848 830.531 268.71 823.704 272.155 820.342C275.599 816.98 298.464 802.801 298.464 802.801V792.385L285.211 719.898" fill="#FACC9E"/>
        <path d="M353.754 145.27C353.754 145.27 362.216 73.3478 329.8 76.8128C329.8 76.8128 350.701 20.7144 398.682 67.8572C398.682 67.8572 436.948 106.271 415.389 177.771C382.027 288.405 415.595 298.317 415.595 298.317C415.595 298.317 305.485 309.802 354.094 155.398L353.734 145.321" fill="#3F280D"/>
        <path d="M267.302 246.547C250.256 236.348 253.186 277.65 225.787 338.869C220.359 350.991 210.54 379.462 202.696 391.389C197.093 408.55 215.033 408.982 218.066 404.344C232.367 382.063 291.76 261.199 267.302 246.547Z" fill="#F3C49F"/>
        <path d="M142.882 362.888C166.528 380.665 194.287 401.414 201.648 406.318C215.774 413.516 225.664 398.782 213.029 389.929C184.931 370.332 119.852 330.355 119.852 330.355L106.651 335.496C106.651 335.496 123.348 348.205 142.882 362.888Z" fill="#F3C49F"/>
        <path d="M111.462 342.951C113.88 345.463 116.862 347.363 120.16 348.493C133.988 353.233 139.694 327.106 114.516 312.341L114.464 312.054C109.735 308.743 90.0677 303.643 89.4508 306.224C89.1604 307.086 89.1502 308.017 89.4217 308.885C89.6932 309.754 90.2324 310.513 90.9622 311.056C86.0376 309.966 81.8532 309.545 81.5756 310.717C80.9485 313.287 81.9457 315.971 85.174 316.197C86.7469 316.31 92.0108 318.747 97.1513 321.338C89.9546 319.919 81.3494 319.21 81.0821 320.804C80.6709 323.23 81.8429 325.616 85.03 325.533C86.7675 325.533 93.2548 327.703 99.0122 329.893C92.0622 328.577 84.8141 327.939 84.5365 329.492C84.0739 332.145 85.2151 334.633 88.4433 334.417C91.1781 334.201 106.044 340.452 111.462 342.951Z" fill="#F3C49F"/>
        <g style="mix-blend-mode:color-dodge" opacity="0.29">
            <path style="mix-blend-mode:color-dodge" opacity="0.29" d="M382.429 257.2L382.615 257.138L382.429 257.2Z" fill="url(#paint0_linear)"/>
        </g>
        <path d="M264.639 456.474C264.639 456.474 265.986 470.067 323.302 464.453C380.619 458.839 382.613 440.249 382.613 440.249C382.613 440.249 373.042 432.311 363.172 393.877C356.829 369.201 387.24 252.912 353.261 237.283C353.261 237.283 338.765 230.374 299.091 234.26C259.416 238.147 257.895 254.104 257.895 254.104C258.717 269.908 246.586 325.903 255.561 349.449C260.126 361.448 268.176 381.56 269.512 394.299C274.2 439.19 264.639 456.474 264.639 456.474Z" fill="#F3C49F"/>
        <path d="M306.822 68.1759C320.732 61.6365 371.952 85.2747 376.27 102.754C380.588 120.233 401.633 145.136 373.453 188.979C351.39 223.238 279.423 221.634 279.783 201.574C280.143 181.514 274.447 83.4137 306.822 68.1759Z" fill="#3F280D"/>
        <path d="M265.769 243.185C273.367 253.662 298.011 276.427 298.011 276.427C298.011 276.427 355.152 253.477 353.754 241.725C353.754 241.725 358.895 195.251 361.136 152.58C362.812 121.025 356.54 80.5143 320.012 79.8254C283.484 79.1365 262.181 86.3441 262.13 120.069C262.109 142.247 265.769 243.185 265.769 243.185Z" fill="#F3C49F"/>
        <path d="M316.928 136.078C316.765 135.792 316.677 135.47 316.673 135.141C316.669 134.812 316.749 134.488 316.906 134.199C317.062 133.909 317.29 133.665 317.567 133.488C317.844 133.311 318.162 133.208 318.491 133.189C324.464 132.848 330.456 133.378 336.277 134.762C341.343 136.147 346.092 138.504 350.259 141.702C351.505 142.813 352.676 144.005 353.765 145.27C353.765 145.27 343.484 139.975 336.009 138.926C326.499 137.6 323.672 137.476 319.303 137.898C318.92 137.922 318.538 137.838 318.2 137.657C317.862 137.475 317.582 137.202 317.391 136.87L316.928 136.078Z" fill="#643E00"/>
        <path d="M289.129 134.474C289.355 134.222 289.523 133.924 289.62 133.6C289.718 133.276 289.743 132.935 289.694 132.6C289.645 132.265 289.523 131.946 289.336 131.664C289.15 131.381 288.903 131.144 288.614 130.968C285.113 129.063 281.27 127.872 277.305 127.462C273.486 127.307 269.691 128.135 266.284 129.868C265.127 130.567 264.021 131.347 262.974 132.202C262.974 132.202 271.096 130.227 276.205 131.461C282.055 132.88 284.132 133.621 286.435 134.957C286.877 135.203 287.39 135.29 287.888 135.202C288.386 135.114 288.839 134.857 289.17 134.474H289.129Z" fill="#643E00"/>
        <path d="M346.835 144.756C345.191 145.198 334.159 143.121 332.699 142.905C325.78 141.877 319.087 145.291 317.771 150.637C316.455 155.984 320.989 161.166 327.908 162.235C334.827 163.305 341.52 159.85 342.846 154.503C343.311 152.588 343.035 150.569 342.075 148.848C344.327 147.923 346.835 144.756 346.835 144.756Z" fill="#393936"/>
        <path d="M341.51 154.904C340.245 160.045 333.881 163.294 327.281 162.276C320.681 161.258 316.363 156.303 317.627 151.213C318.892 146.123 325.256 142.833 331.846 143.851C338.436 144.869 342.764 149.825 341.51 154.904Z" fill="white"/>
        <path d="M315.406 160.827L314.975 166.996L341.315 168.713L341.715 162.842C341.715 162.842 339.834 159.439 327.867 158.657C315.9 157.876 315.406 160.827 315.406 160.827Z" fill="#F3C49F"/>
        <g opacity="0.05">
            <path opacity="0.05" d="M336.123 163.572C335.301 164.6 331.178 163.407 327.672 163.716C324.167 164.024 316.949 164.569 317.71 163.253C320.477 161.509 323.694 160.61 326.964 160.666C330.235 160.723 333.418 161.733 336.123 163.572Z" fill="#141413"/>
        </g>
        <path d="M327.496 149.763C327.844 150.093 328.122 150.49 328.314 150.93C328.505 151.369 328.606 151.843 328.611 152.323C328.616 152.802 328.524 153.278 328.341 153.721C328.159 154.165 327.889 154.567 327.548 154.904C326.84 155.6 325.89 155.995 324.897 156.006C323.905 156.018 322.946 155.645 322.222 154.966C321.879 154.631 321.606 154.232 321.42 153.79C321.234 153.349 321.138 152.875 321.138 152.395C321.138 151.916 321.234 151.442 321.42 151C321.606 150.559 321.879 150.159 322.222 149.825C322.927 149.142 323.866 148.755 324.847 148.743C325.828 148.732 326.776 149.097 327.496 149.763Z" fill="#8A4714"/>
        <path d="M324.814 150.524C324.814 151.696 323.149 152.673 321.061 152.694C318.974 152.714 317.288 151.778 317.268 150.637C317.247 149.496 318.933 148.499 321.02 148.478C323.107 148.457 324.804 149.352 324.814 150.524Z" fill="white"/>
        <path d="M289.705 151.203C289.088 146.247 283.392 142.586 276.987 142.977C275.044 143.111 267.076 145.147 265.226 145.033C265.458 146.438 266.188 147.711 267.282 148.622C266.634 149.889 266.376 151.321 266.542 152.735C267.158 157.691 272.864 161.361 279.269 160.96C285.674 160.559 290.373 156.159 289.705 151.203Z" fill="#393936"/>
        <path d="M267.806 153.3C268.392 157.999 273.8 161.526 279.865 161.063C285.931 160.6 290.383 156.508 289.797 151.809C289.211 147.11 283.813 143.645 277.737 144.057C271.661 144.468 267.22 148.612 267.806 153.3Z" fill="white"/>
        <path d="M291.668 159.439L291.812 165.083L267.837 165.659L267.703 160.313C267.703 160.313 269.543 157.29 280.441 157.033C291.339 156.776 291.668 159.439 291.668 159.439Z" fill="#F3C49F"/>
        <g opacity="0.05">
            <path opacity="0.05" d="M267.641 162.893C268.504 163.777 272.257 162.276 275.567 162.245C278.878 162.215 285.663 162.05 284.82 160.888C282.067 159.521 278.975 158.987 275.923 159.352C272.872 159.717 269.993 160.966 267.641 162.945" fill="#141413"/>
        </g>
        <path d="M278.735 151.717C278.763 152.422 278.58 153.121 278.21 153.722C277.839 154.323 277.298 154.8 276.655 155.092C276.011 155.383 275.296 155.476 274.599 155.358C273.903 155.241 273.258 154.918 272.746 154.431C272.234 153.944 271.88 153.316 271.727 152.626C271.575 151.936 271.632 151.217 271.891 150.56C272.15 149.903 272.599 149.338 273.181 148.938C273.762 148.538 274.451 148.32 275.157 148.313C276.082 148.291 276.979 148.637 277.649 149.275C278.32 149.913 278.71 150.791 278.735 151.717Z" fill="#8A4714"/>
        <path d="M274.283 150.072C274.283 151.172 272.72 152.128 270.767 152.128C268.813 152.128 267.21 151.264 267.199 150.164C267.189 149.064 268.762 148.108 270.726 148.108C272.689 148.108 274.283 148.961 274.283 150.072Z" fill="white"/>
        <g opacity="0.08">
            <path opacity="0.08" d="M310.739 67.8674C321.349 67.2813 369.012 116.121 365.928 146.946C355.842 141.425 331.137 128.521 324.105 107.566C324.105 107.566 304.972 115.02 289.303 114.208L288.563 111.35C288.563 111.35 267.765 113.632 262.172 123.976C262.172 122.495 262.172 121.19 262.172 120.069C262.203 86.3441 300.14 68.4535 310.739 67.8674Z" fill="#010101"/>
        </g>
        <path d="M342.836 74.5198C342.836 74.5198 339.752 93.5311 317.946 102.651C304.865 108.133 292.973 116.101 282.928 126.115V105.427C282.928 105.427 261.811 120.398 253.443 133.559C246.883 82.7865 305.207 37.6898 342.836 74.5198Z" fill="#3F280D"/>
        <path d="M342.837 74.5198C342.837 74.5198 375.253 77.2342 384.69 105.612C394.128 133.991 383.159 162.77 383.159 162.77C383.159 162.77 331.013 121.385 328.669 101.89C326.325 82.3958 342.837 74.5198 342.837 74.5198Z" fill="#3F280D"/>
        <path opacity="0.2" d="M347.761 78.2112C347.761 78.2112 387.363 89.5933 383.744 133.734C380.681 112.656 368.868 94.1071 347.761 78.2112Z" fill="#010101"/>
        <path opacity="0.2" d="M355.76 88.8118C357.662 92.1843 383.57 120.871 380.558 142.113C374.753 133.476 370.007 124.173 366.421 114.404C363.359 105.676 359.8 97.1316 355.76 88.8118Z" fill="#010101"/>
        <g opacity="0.08">
            <path opacity="0.44" d="M309.33 280.478C314.409 280.57 349.488 242.774 351.698 216.524C352.12 211.589 356.839 187.858 359.131 185.277C357.188 213.748 353.754 241.725 353.754 241.725C355.153 253.477 311.756 312.413 311.756 312.413C311.756 312.413 267.548 246.167 264.639 234.034C275.989 244.851 306.246 280.416 309.33 280.478Z" fill="#010101"/>
        </g>
        <path d="M370.379 188.238C379.169 177.771 384.001 159.984 371.263 156.282C358.525 152.581 355.204 186.305 355.204 186.305C355.204 186.305 360.478 200.021 370.379 188.238Z" fill="#F3C49F"/>
        <path opacity="0.05" d="M361.096 176.126C361.096 176.126 362.288 173.7 364.416 173.885C366.545 174.07 369.32 175.17 372.436 168.744C372.408 168.095 372.219 167.463 371.887 166.905C371.555 166.347 371.09 165.88 370.534 165.546C368.704 164.61 367.038 164.466 365.465 166.759C363.892 169.052 360.582 173.072 361.096 176.126Z" fill="#141413"/>
        <path d="M359.379 187.21C359.345 187.942 359.529 188.667 359.908 189.293C360.288 189.919 360.846 190.417 361.51 190.725C362.175 191.032 362.916 191.135 363.638 191.019C364.361 190.903 365.033 190.574 365.568 190.074C366.103 189.574 366.477 188.926 366.642 188.213C366.807 187.499 366.755 186.753 366.493 186.069C366.232 185.385 365.772 184.795 365.173 184.374C364.574 183.952 363.864 183.719 363.132 183.704C362.655 183.686 362.179 183.763 361.732 183.93C361.284 184.097 360.875 184.35 360.526 184.676C360.177 185.002 359.896 185.394 359.699 185.829C359.503 186.263 359.394 186.733 359.379 187.21Z" fill="#80BC00"/>
        <path d="M277.531 183.241C278.148 183.241 293.878 181.863 297.147 182.964C302.463 184.732 304.961 183.406 308.94 182.655C312.26 182.028 333.079 180.846 333.079 180.846C333.079 180.846 323.086 189.071 303.614 188.865C286.949 188.67 277.531 183.241 277.531 183.241Z" fill="#FF8092"/>
        <path d="M274.468 182.059C275.025 182.42 275.636 182.691 276.278 182.861C276.919 183.065 277.575 183.216 278.241 183.313C279.578 183.55 280.914 183.745 282.261 183.93C284.944 184.29 287.648 184.578 290.352 184.794C295.76 185.214 301.19 185.279 306.607 184.989C312.026 184.76 317.427 184.201 322.779 183.313C325.453 182.895 328.101 182.315 330.705 181.576C332.006 181.266 333.217 180.657 334.242 179.797C335.248 178.905 336.036 177.793 336.545 176.548C336.554 176.538 336.567 176.533 336.581 176.533C336.594 176.533 336.607 176.538 336.617 176.548C336.626 176.557 336.631 176.57 336.631 176.584C336.631 176.597 336.626 176.61 336.617 176.62C336.203 177.941 335.448 179.129 334.427 180.064C333.384 180.979 332.135 181.628 330.787 181.956C328.169 182.716 325.509 183.32 322.82 183.766C317.457 184.696 312.043 185.293 306.607 185.555C301.167 185.733 295.721 185.572 290.301 185.072C287.597 184.856 284.893 184.578 282.199 184.218C280.842 184.043 279.506 183.848 278.159 183.622C277.48 183.53 276.812 183.372 276.164 183.149C275.488 182.948 274.866 182.597 274.345 182.121L274.417 182.049L274.468 182.059Z" fill="#6F4C2D"/>
        <path opacity="0.2" d="M341.962 75.4761L337.953 77.6558C337.953 77.6558 323.302 73.7179 313.957 78.4887C313.957 78.4887 332.802 77.3782 333.84 81.9846C334.879 86.5909 330.098 92.7292 330.674 92.3796C331.25 92.03 340.143 84.8532 341.962 75.4761Z" fill="#010101"/>
        <path d="M335.208 67.8571C335.208 67.8571 338.056 72.3503 353.714 80.6068C353.714 80.6068 356.624 80.5451 358.433 76.6379C356.4 72.8988 353.596 69.6337 350.207 67.0583C346.819 64.483 342.922 62.6561 338.776 61.6982C338.776 61.6982 333.656 64.423 335.208 67.8571Z" fill="#80BC00"/>
        <path d="M270.622 425.793C270.622 425.793 264.052 447.22 262.222 465.81C257.257 491.021 262.675 625.406 262.675 625.406L285.19 731.547C296.088 737.49 301.917 736.102 311.623 733.429L296.355 628.902C296.355 628.902 303.675 560.939 309.011 511.585C311.396 511.76 322.613 513.097 331.876 512.901C335.752 545.66 341.592 571.817 350.721 633.118L363.058 734.806C370.204 737.459 385.677 738.919 390.509 734.94L382.13 633.673C382.13 633.673 394.57 492.954 389.367 460.556C389.367 460.556 385.749 436.126 374.604 423.325C374.604 423.325 329.008 435.273 270.622 425.793Z" fill="#6B6B6B"/>
        <g opacity="0.3">
            <path opacity="0.3" d="M357.559 614.754C355.029 601.059 348.881 500.244 351.051 497.437C353.22 494.63 299.348 493.921 298.258 493.921C297.168 493.921 281.613 618.62 285.951 630.959C290.29 643.297 303.676 735.989 303.676 735.989C303.676 735.989 306.914 731.681 311.623 733.47L296.356 628.902C296.356 628.902 303.676 560.928 309.012 511.575C311.397 511.75 322.614 513.086 331.877 512.891C335.753 545.649 341.592 571.807 350.722 633.108L363.059 734.796C363.511 735.064 368.066 736.174 368.066 736.174C368.066 736.174 360.077 628.46 357.559 614.754Z" fill="#294950"/>
            <path style="mix-blend-mode:multiply" opacity="0.3" d="M357.559 614.754C355.029 601.059 348.881 500.244 351.051 497.437C353.22 494.63 299.348 493.921 298.258 493.921C297.168 493.921 281.613 618.62 285.951 630.959C290.29 643.297 303.676 735.989 303.676 735.989C303.676 735.989 306.914 731.681 311.623 733.47L296.356 628.902C296.356 628.902 303.676 560.928 309.012 511.575C311.397 511.75 322.613 513.086 331.877 512.891C335.753 545.649 341.592 571.807 350.722 633.108L363.059 734.796C366.044 732.917 368.911 730.857 371.644 728.627C371.644 728.627 360.077 628.46 357.559 614.754Z" fill="url(#paint1_linear)"/>
        </g>
        <path d="M265.77 444.567L263.2 462.828C263.2 462.828 337.038 479.557 388.094 453.574C388.094 453.574 381.74 423.757 371.644 418.492C371.644 418.492 323.149 433.782 270.695 424.805L265.77 444.567Z" fill="#4D4D4D"/>
        <path d="M355.76 238.692L361.517 242.321C361.517 242.321 350.928 277.28 369.238 301.905C369.238 301.905 361.517 404.209 388.094 436.393C388.094 436.393 304.283 461.409 260.126 445.832C260.126 445.832 285.978 408.933 256.939 353.037C251.881 336.422 249.804 320.269 264.64 293.649C279.475 267.029 259.304 246.187 259.304 246.187L265.74 242.249C265.74 242.249 289.705 278.452 309.239 286.811C309.239 286.811 336.442 273.352 355.76 238.692Z" fill="#1A171C"/>
        <path d="M288.789 797.691C289.293 797.742 308.405 797.454 308.323 801.125C308.241 804.796 308.117 808.878 308.487 808.908C308.857 808.939 312.939 808.908 315.684 808.908C316.311 808.901 316.922 809.112 317.41 809.506C317.898 809.901 318.233 810.453 318.357 811.068C318.984 814.368 320.064 820.434 319.92 821.987L319.776 825.38C319.776 825.38 309.166 829.637 306.925 830.398C304.683 831.158 270.057 835.302 256.404 836.361C242.751 837.42 239.533 834.099 239.533 834.099C239.533 834.099 237.898 827.663 242.124 825.37C246.349 823.077 260.465 819.54 260.465 819.54L283.361 810.903L288.789 797.691Z" fill="#80BC00"/>
        <path d="M239.481 834.11C239.481 834.11 244.252 838.15 257.905 837.091C271.558 836.032 304.622 831.159 306.873 830.408C309.125 829.657 319.725 825.39 319.725 825.39C320.297 824.596 320.609 823.645 320.619 822.666C320.619 821.062 319.416 821.494 318.82 821.637C317.946 821.905 307.295 826.943 305.239 827.262C300.047 828.064 266.387 832.557 260.558 832.876C258.02 833.029 255.473 832.95 252.95 832.639C252.426 832.585 251.921 832.411 251.476 832.13C251.03 831.848 250.656 831.468 250.382 831.018C250.108 830.568 249.942 830.06 249.897 829.535C249.852 829.01 249.929 828.482 250.122 827.992V827.909C251.284 825.329 255.952 823.385 255.952 823.385C257.607 821.555 257.535 820.414 256.394 819.735C252.98 818.902 244.314 822.882 240.972 825.257C237.045 828.053 239.481 834.11 239.481 834.11Z" fill="#4D4D4D"/>
        <path d="M310.277 822.645C313.11 822.645 315.407 819.975 315.407 816.682C315.407 813.388 313.11 810.718 310.277 810.718C307.443 810.718 305.146 813.388 305.146 816.682C305.146 819.975 307.443 822.645 310.277 822.645Z" fill="#4D4D4D"/>
        <path d="M260.476 819.303C260.476 819.303 266.346 818.409 268.885 820.476C271.425 822.542 271.343 820.352 269.266 819.098C267.575 818.093 265.572 817.749 263.642 818.131C262.498 818.22 261.402 818.626 260.476 819.303Z" fill="white"/>
        <path d="M266.346 817.195C266.346 817.195 272.216 816.311 274.756 818.368C277.295 820.424 277.213 818.244 275.136 816.99C273.445 815.985 271.442 815.641 269.512 816.023C268.37 816.121 267.276 816.526 266.346 817.195Z" fill="white"/>
        <path d="M272.474 814.769C272.474 814.769 278.344 813.885 280.883 815.941C283.423 817.998 283.341 815.818 281.254 814.563C279.563 813.558 277.559 813.214 275.63 813.597C274.491 813.692 273.399 814.098 272.474 814.769Z" fill="white"/>
        <path d="M279.588 812.26C279.588 812.26 285.458 811.376 287.998 813.432C290.537 815.489 290.455 813.309 288.378 812.065C286.688 811.058 284.685 810.71 282.754 811.088C281.613 811.186 280.518 811.591 279.588 812.26Z" fill="white"/>
        <path d="M283.341 809.556C283.341 809.556 288.913 807.5 291.823 809.063C294.732 810.625 294.208 808.477 291.905 807.644C290.05 806.99 288.019 807.041 286.199 807.788C285.101 808.101 284.111 808.713 283.341 809.556Z" fill="white"/>
        <path d="M400.543 828.825C402.54 831.152 403.878 833.97 404.419 836.988C404.81 840.33 405.838 844.638 405.694 845.697C405.55 846.756 398.405 849.81 390.211 850.746C382.017 851.681 367.182 850.643 364.508 848.34C361.835 846.036 365.28 833.883 366.236 831.59C367.675 828.125 369.32 822.697 370.79 821.237C371.576 820.608 372.181 819.781 372.542 818.842C372.904 817.902 373.008 816.883 372.846 815.89C372.558 813.104 374.676 810.327 377.534 810.749C377.534 810.749 392.956 810.636 395.238 812.62C397.521 814.605 396.102 821.874 396.102 821.874L400.543 828.825Z" fill="#80BC00"/>
        <path d="M405.694 845.697C405.54 846.725 397.212 850.9 389.018 851.784C380.824 852.668 367.182 850.643 364.508 848.34C363.552 847.517 363.223 845.851 363.151 843.959C365.156 846.89 372.404 847.651 372.887 847.682C373.371 847.712 374.337 838.952 376.064 837.4C377.792 835.847 386.499 835.559 389.738 836.886C392.977 838.212 393.521 846.9 393.912 847.167C394.303 847.435 395.578 847.424 398.271 847.044C399.988 846.797 403.299 844.864 405.468 843.497C405.621 844.22 405.696 844.958 405.694 845.697Z" fill="#4D4D4D"/>
        <path d="M394.128 832.701C394.396 833.842 391.62 832.187 383.96 832.475C376.301 832.763 375.293 834.531 373.916 833.657C372.322 832.711 376.866 831.2 384.197 830.891C389.635 830.655 393.717 830.943 394.128 832.701Z" fill="white"/>
        <path d="M392.36 828.588C392.596 829.616 390.16 828.146 383.477 828.393C376.794 828.639 375.9 830.141 374.697 829.421C373.299 828.588 377.267 827.282 383.672 827.005C388.402 826.799 392 827.056 392.36 828.588Z" fill="white"/>
        <path d="M390.232 825.761C390.417 826.563 388.453 825.401 383.035 825.606C377.617 825.812 376.866 827.015 375.931 826.439C374.8 825.76 377.987 824.702 383.199 824.475C387.045 824.311 389.944 824.516 390.232 825.761Z" fill="white"/>
        <path d="M388.618 822.871C388.762 823.509 387.209 822.583 382.932 822.738C378.656 822.892 378.08 823.858 377.309 823.406C376.538 822.953 378.954 822.028 383.056 821.853C386.099 821.72 388.402 821.884 388.618 822.871Z" fill="white"/>
        <path d="M389.008 819.941C389.152 820.578 387.6 819.653 383.323 819.818C379.046 819.982 378.47 820.928 377.699 820.476C376.928 820.023 379.344 819.098 383.446 818.923C386.49 818.8 388.782 818.954 389.008 819.941Z" fill="white"/>
        <path d="M354.104 330.098C354.118 330.826 353.988 331.549 353.722 332.226C353.456 332.903 353.059 333.521 352.553 334.044C352.048 334.567 351.445 334.986 350.778 335.276C350.111 335.566 349.393 335.721 348.666 335.733L270.437 338.17C268.967 338.237 267.53 337.718 266.441 336.728C265.352 335.737 264.701 334.355 264.629 332.885L264.361 324.577C264.348 323.85 264.478 323.127 264.744 322.45C265.01 321.773 265.407 321.155 265.912 320.631C266.417 320.108 267.021 319.69 267.688 319.4C268.355 319.11 269.073 318.955 269.8 318.942L348.028 316.506C348.757 316.471 349.485 316.58 350.171 316.827C350.857 317.074 351.488 317.454 352.027 317.945C352.567 318.435 353.004 319.028 353.315 319.688C353.625 320.347 353.803 321.062 353.837 321.791L354.104 330.098Z" fill="black"/>
        <path fill-rule="evenodd" clip-rule="evenodd" d="M274.344 332.021V330.715L274.283 328.669C274.272 328.408 274.205 328.152 274.087 327.919C273.979 327.68 273.821 327.466 273.625 327.291C273.432 327.113 273.205 326.977 272.956 326.89C272.709 326.788 272.442 326.742 272.175 326.757C271.898 326.764 271.625 326.827 271.373 326.942C271.131 327.046 270.911 327.196 270.725 327.384C270.547 327.573 270.404 327.792 270.304 328.032C270.21 328.278 270.168 328.54 270.181 328.803C270.188 329.069 270.248 329.331 270.355 329.574C270.471 329.809 270.628 330.021 270.818 330.201C271.015 330.381 271.246 330.521 271.497 330.613C271.757 330.706 272.033 330.748 272.309 330.736L274.046 330.685V331.99L272.309 332.042C271.858 332.057 271.408 331.987 270.983 331.836C270.572 331.68 270.195 331.446 269.872 331.147C269.548 330.86 269.286 330.511 269.101 330.119C268.915 329.722 268.81 329.292 268.793 328.854C268.779 328.416 268.852 327.979 269.009 327.569C269.174 327.182 269.415 326.833 269.718 326.541C270.012 326.232 270.36 325.981 270.746 325.801C271.156 325.611 271.601 325.51 272.052 325.502C272.944 325.47 273.812 325.792 274.468 326.397C274.792 326.681 275.052 327.032 275.229 327.425C275.426 327.818 275.531 328.25 275.537 328.69L275.65 332.001L274.344 332.021Z" fill="white"/>
        <path fill-rule="evenodd" clip-rule="evenodd" d="M279.629 323.919C279.355 323.923 279.085 323.986 278.837 324.104C278.592 324.204 278.372 324.354 278.189 324.546C278.011 324.735 277.868 324.954 277.768 325.194C277.674 325.44 277.632 325.702 277.645 325.965V326.644L280.369 326.551V327.857L277.645 327.939L277.778 331.908H276.431L276.236 325.965C276.211 325.526 276.285 325.087 276.452 324.68C276.617 324.296 276.854 323.946 277.151 323.652C277.786 323.023 278.633 322.656 279.526 322.623H280.194V323.94L279.629 323.919Z" fill="white"/>
        <path fill-rule="evenodd" clip-rule="evenodd" d="M284.245 325.143C284.697 325.118 285.15 325.192 285.571 325.358C285.981 325.512 286.358 325.742 286.682 326.037C287.006 326.321 287.265 326.672 287.442 327.065C287.639 327.458 287.745 327.89 287.751 328.33C287.775 328.77 287.698 329.21 287.525 329.615C287.362 329.998 287.128 330.347 286.836 330.643C286.529 330.965 286.16 331.222 285.753 331.398C285.345 331.575 284.905 331.668 284.461 331.672L282.405 331.733L282.487 334.376H281.14L280.945 328.433C280.924 327.994 280.998 327.556 281.161 327.147C281.326 326.766 281.559 326.417 281.849 326.119C282.145 325.813 282.493 325.562 282.878 325.379C283.311 325.204 283.777 325.123 284.245 325.143ZM284.42 330.427C284.692 330.417 284.96 330.358 285.211 330.253C285.452 330.15 285.669 330 285.849 329.811C286.036 329.625 286.18 329.4 286.27 329.152C286.37 328.901 286.419 328.632 286.414 328.361C286.404 328.099 286.338 327.843 286.219 327.61C286.116 327.37 285.958 327.159 285.756 326.993C285.569 326.811 285.344 326.67 285.098 326.582C284.839 326.483 284.563 326.438 284.286 326.448C284.012 326.457 283.743 326.52 283.494 326.633C283.255 326.737 283.038 326.887 282.857 327.076C282.678 327.264 282.535 327.484 282.435 327.723C282.341 327.969 282.299 328.232 282.312 328.494L282.374 330.489L284.42 330.427Z" fill="white"/>
        <path fill-rule="evenodd" clip-rule="evenodd" d="M314.379 324.186C314.829 324.16 315.279 324.237 315.695 324.412C316.108 324.554 316.487 324.782 316.805 325.081C317.436 325.676 317.806 326.497 317.833 327.363L317.936 330.664H316.6L316.486 327.363C316.455 326.838 316.223 326.345 315.839 325.986C315.646 325.807 315.418 325.671 315.17 325.585C314.916 325.484 314.642 325.439 314.369 325.451C314.092 325.461 313.82 325.524 313.567 325.636C313.332 325.743 313.119 325.893 312.939 326.078C312.761 326.267 312.618 326.486 312.518 326.726C312.424 326.972 312.382 327.234 312.395 327.497L312.497 330.798H311.161L311.048 327.497C311.042 327.232 310.975 326.972 310.852 326.736C310.751 326.499 310.596 326.288 310.4 326.119C310.212 325.94 309.988 325.803 309.742 325.718C309.484 325.616 309.208 325.567 308.93 325.574C308.656 325.583 308.387 325.646 308.138 325.759C307.9 325.869 307.683 326.023 307.501 326.212C307.322 326.396 307.179 326.612 307.079 326.849C306.987 327.096 306.945 327.358 306.956 327.621L307.069 330.921H305.722L305.609 327.621C305.595 327.182 305.669 326.745 305.825 326.335C306.152 325.528 306.784 324.882 307.583 324.536C307.992 324.344 308.437 324.239 308.889 324.227C309.415 324.212 309.937 324.317 310.417 324.534C310.896 324.752 311.319 325.076 311.654 325.482C311.948 325.053 312.339 324.701 312.796 324.454C313.294 324.238 313.837 324.147 314.379 324.186Z" fill="white"/>
        <path fill-rule="evenodd" clip-rule="evenodd" d="M342.908 326.613C342.89 326.181 342.961 325.75 343.116 325.346C343.272 324.943 343.509 324.576 343.813 324.268C344.103 323.956 344.453 323.704 344.841 323.528C345.245 323.332 345.687 323.227 346.136 323.22C346.593 323.203 347.047 323.28 347.473 323.446C347.88 323.593 348.254 323.821 348.573 324.114C348.896 324.4 349.155 324.75 349.334 325.142C349.529 325.537 349.637 325.969 349.651 326.409C349.665 326.848 349.585 327.286 349.416 327.692C349.261 328.08 349.026 328.43 348.727 328.721C348.435 329.034 348.086 329.289 347.699 329.471C347.288 329.656 346.844 329.757 346.393 329.769C345.942 329.781 345.492 329.708 345.067 329.553C344.66 329.395 344.284 329.165 343.957 328.875C343.645 328.579 343.387 328.231 343.196 327.847C343.02 327.458 342.922 327.039 342.908 326.613ZM344.234 326.613C344.245 326.878 344.304 327.14 344.409 327.384C344.525 327.619 344.682 327.831 344.872 328.011C345.074 328.185 345.303 328.324 345.55 328.422C345.808 328.51 346.08 328.552 346.352 328.546C346.628 328.537 346.9 328.477 347.154 328.371C347.394 328.262 347.61 328.109 347.792 327.919C347.976 327.733 348.117 327.508 348.203 327.261C348.308 327.014 348.357 326.747 348.347 326.479C348.34 326.217 348.274 325.96 348.151 325.729C348.053 325.489 347.897 325.278 347.699 325.112C347.508 324.929 347.28 324.789 347.031 324.7C346.782 324.603 346.517 324.555 346.249 324.556C345.976 324.565 345.707 324.628 345.458 324.741C345.21 324.846 344.986 325 344.8 325.194C344.622 325.379 344.48 325.595 344.378 325.831C344.266 326.077 344.203 326.343 344.193 326.613H344.234Z" fill="white"/>
        <path fill-rule="evenodd" clip-rule="evenodd" d="M336.328 324.885C336.069 324.949 335.825 325.066 335.612 325.229C335.4 325.392 335.224 325.597 335.095 325.831C334.942 326.091 334.857 326.384 334.848 326.685L335.578 326.479L336.606 326.191L337.696 325.883L338.518 325.677C338.264 325.324 337.904 325.062 337.49 324.926C337.115 324.801 336.712 324.787 336.328 324.885ZM337.819 329.975C337.388 330.093 336.938 330.131 336.493 330.088C336.049 330.039 335.619 329.903 335.228 329.687C334.835 329.479 334.486 329.196 334.2 328.854C333.923 328.515 333.716 328.123 333.594 327.703C333.471 327.282 333.44 326.841 333.501 326.407C333.614 325.548 334.061 324.769 334.745 324.238C335.095 323.954 335.502 323.751 335.938 323.641C336.369 323.521 336.819 323.486 337.264 323.538C337.702 323.592 338.127 323.724 338.518 323.929C338.911 324.134 339.26 324.414 339.546 324.752C339.833 325.09 340.044 325.486 340.163 325.914L340.348 326.531L335.208 327.949C335.445 328.286 335.778 328.544 336.164 328.69C336.583 328.818 337.03 328.818 337.449 328.69C337.855 328.578 338.215 328.341 338.477 328.011L340.153 327.559C340.015 328.133 339.726 328.66 339.315 329.085C338.905 329.51 338.388 329.817 337.819 329.975Z" fill="white"/>
        <path fill-rule="evenodd" clip-rule="evenodd" d="M318.563 327.374C318.549 326.935 318.622 326.498 318.779 326.088C318.948 325.706 319.185 325.358 319.478 325.06C319.769 324.751 320.119 324.503 320.506 324.33C320.914 324.133 321.36 324.028 321.812 324.022C322.265 324.001 322.718 324.078 323.138 324.248C323.55 324.394 323.927 324.621 324.249 324.916C324.564 325.209 324.817 325.561 324.994 325.953C325.17 326.346 325.267 326.769 325.277 327.199C325.288 327.634 325.213 328.067 325.055 328.473C324.898 328.879 324.663 329.249 324.362 329.564C324.069 329.876 323.72 330.131 323.334 330.314C322.923 330.5 322.479 330.598 322.028 330.602C321.577 330.623 321.126 330.553 320.702 330.397C319.881 330.085 319.211 329.471 318.831 328.679C318.659 328.265 318.568 327.822 318.563 327.374ZM319.9 327.374C319.902 327.64 319.961 327.903 320.075 328.145C320.19 328.38 320.346 328.593 320.537 328.772C320.735 328.946 320.961 329.085 321.206 329.183C321.467 329.272 321.742 329.31 322.018 329.296C322.29 329.294 322.559 329.239 322.809 329.132C323.05 329.026 323.267 328.872 323.447 328.679C323.635 328.497 323.776 328.271 323.858 328.021C323.968 327.776 324.017 327.508 324.002 327.24C324.001 326.974 323.933 326.713 323.807 326.479C323.705 326.245 323.55 326.037 323.354 325.873C323.165 325.687 322.937 325.547 322.686 325.461C322.432 325.359 322.158 325.313 321.884 325.328C321.611 325.336 321.341 325.399 321.092 325.513C320.844 325.61 320.622 325.765 320.445 325.965C320.261 326.145 320.117 326.363 320.023 326.603C319.935 326.835 319.893 327.083 319.9 327.333V327.374Z" fill="white"/>
        <path d="M303.223 327.528C303.306 328.912 302.975 330.289 302.271 331.484C301.568 332.678 300.524 333.636 299.274 334.234C298.023 334.832 296.622 335.044 295.251 334.842C293.879 334.641 292.599 334.034 291.574 333.101C290.549 332.168 289.825 330.951 289.495 329.604C289.165 328.257 289.244 326.843 289.722 325.542C290.2 324.24 291.056 323.111 292.178 322.298C293.301 321.485 294.641 321.026 296.027 320.978C296.93 320.933 297.833 321.066 298.685 321.371C299.536 321.676 300.319 322.147 300.988 322.755C301.657 323.364 302.199 324.099 302.582 324.918C302.966 325.737 303.184 326.624 303.223 327.528Z" fill="#80BC00"/>
        <path d="M297.383 332.217C296.577 331.079 296.088 329.749 295.964 328.361C295.927 328.119 295.94 327.871 296.002 327.634C296.064 327.397 296.174 327.175 296.325 326.982C296.476 326.789 296.666 326.63 296.881 326.513C297.097 326.396 297.334 326.325 297.579 326.304C297.979 326.304 298.864 326.489 299.038 327.867C299.193 329.08 299.193 331.98 299.193 331.98L299.923 331.774C299.923 331.774 299.974 330.273 300.077 328.906C300.159 327.878 300.18 326.479 300.899 326.088C301.866 325.564 302.277 326.345 302.328 327.281C302.425 328.291 302.19 329.305 301.66 330.17C301.506 330.386 301.368 330.613 301.249 330.849C301.73 330.543 302.144 330.144 302.467 329.674C302.79 329.205 303.016 328.675 303.13 328.117C303.244 327.558 303.245 326.982 303.132 326.424C303.019 325.865 302.794 325.335 302.472 324.865C302.269 324.608 301.979 324.435 301.657 324.379C301.335 324.322 301.003 324.385 300.724 324.556C300.241 324.842 299.826 325.232 299.511 325.698C299.367 325.46 299.169 325.259 298.934 325.11C298.698 324.962 298.431 324.871 298.154 324.844C297.56 324.751 296.951 324.834 296.403 325.082C295.855 325.331 295.392 325.734 295.07 326.243C294.706 326.733 294.46 327.301 294.349 327.901C294.239 328.502 294.267 329.12 294.433 329.708C294.711 330.618 295.112 331.487 295.625 332.288L297.383 332.217Z" fill="white"/>
        <path fill-rule="evenodd" clip-rule="evenodd" d="M332.627 320.999L332.822 326.921C332.842 327.361 332.765 327.8 332.596 328.207C332.439 328.608 332.205 328.975 331.907 329.286C331.616 329.6 331.267 329.855 330.879 330.037C330.467 330.219 330.024 330.32 329.573 330.335C329.122 330.347 328.672 330.274 328.247 330.119C327.837 329.967 327.46 329.736 327.137 329.44C326.81 329.153 326.545 328.804 326.355 328.412C326.177 328.013 326.076 327.584 326.057 327.147C326.043 326.709 326.117 326.272 326.273 325.862C326.439 325.476 326.68 325.126 326.983 324.834C327.612 324.203 328.457 323.836 329.347 323.806L331.403 323.744L331.311 321.102L332.627 320.999ZM329.543 329.029C329.812 329.021 330.077 328.962 330.324 328.854C330.563 328.749 330.779 328.599 330.961 328.412C331.145 328.226 331.286 328.001 331.373 327.754C331.482 327.505 331.532 327.234 331.517 326.962L331.455 324.988L329.399 325.05C329.122 325.057 328.849 325.12 328.597 325.235C328.356 325.342 328.137 325.492 327.949 325.677C327.77 325.863 327.63 326.084 327.538 326.325C327.44 326.57 327.395 326.833 327.404 327.096C327.413 327.363 327.476 327.625 327.589 327.867C327.699 328.103 327.852 328.316 328.042 328.494C328.242 328.67 328.471 328.81 328.72 328.906C328.97 328.996 329.236 329.037 329.501 329.029H329.543Z" fill="white"/>
        <path fill-rule="evenodd" clip-rule="evenodd" d="M341.027 329.975L340.852 324.69L340.801 323.384L340.719 320.742H342.066L342.364 329.996" fill="white"/>
        <path d="M254.019 341.09C253.916 341.09 282.898 270.319 267.754 248.85C267.754 248.85 262.151 238.692 252.62 253.076C241.095 270.473 223.978 330.098 223.978 330.098C223.978 330.098 235.832 347.732 254.019 341.09Z" fill="#1A171C"/>
        <path style="mix-blend-mode:multiply" opacity="0.3" d="M371.304 329.975C371.304 329.975 336.698 290.739 354.114 243.607L369.535 320.958L371.304 329.975Z" fill="url(#paint2_linear)"/>
        <path d="M361.517 242.301C341.51 242.763 367.13 275.851 378.481 341.686C380.732 354.724 388.505 383.77 388.577 397.939C393.501 415.295 408.83 406.164 408.727 400.674C408.234 374.444 390.273 241.643 361.517 242.301Z" fill="#F3C49F"/>
        <path d="M401.932 468.041C405.15 439.18 408.789 405.321 409.211 396.664C408.183 381.179 390.016 380.737 388.885 395.831C386.418 429.35 385.482 504.141 385.482 504.141L396.925 512.367C396.925 512.367 399.279 491.916 401.932 468.051" fill="#F3C49F"/>
        <path d="M406.517 504.306C406.934 500.064 406.554 495.781 405.396 491.679C400.451 473.172 376.506 476.195 380.722 512.243L380.537 512.408C380.907 519.4 389.224 545.146 391.63 544.909C393.398 544.745 394.652 543.48 394.457 541.228C396.678 547.613 398.97 552.837 400.06 552.734C402.456 552.508 403.936 550.276 402.116 546.287C401.222 544.344 399.834 537.033 398.652 529.836C402.075 539.141 406.877 549.772 408.285 549.495C410.434 549.073 411.565 546.739 409.509 542.914C408.378 540.858 406.064 532.149 404.162 524.325C407.483 533.249 411.513 542.267 412.901 541.999C415.266 541.557 416.52 539.203 414.299 535.398C412.367 532.19 407.936 511.812 406.517 504.306Z" fill="#F3C49F"/>
        <path d="M385.06 471.907L384.187 481.428L400.718 483.413L402.723 473.768L387.98 472.216L385.06 471.907Z" fill="#80BC00"/>
        <path d="M386.85 479.557C386.87 480.363 387.174 481.136 387.708 481.739C388.242 482.343 388.972 482.739 389.77 482.857L395.383 483.557C395.765 483.604 396.153 483.575 396.524 483.472C396.895 483.369 397.243 483.193 397.545 482.955C397.848 482.717 398.101 482.422 398.289 482.085C398.478 481.749 398.597 481.379 398.642 480.996L399.372 474.755C399.421 474.378 399.391 473.995 399.286 473.629C399.181 473.263 399.002 472.923 398.76 472.629C398.518 472.335 398.219 472.094 397.88 471.92C397.542 471.747 397.171 471.644 396.791 471.619L389.78 471.095C389.404 471.063 389.027 471.111 388.671 471.234C388.315 471.357 387.988 471.553 387.712 471.809C387.436 472.066 387.217 472.377 387.069 472.723C386.92 473.07 386.846 473.443 386.85 473.82V479.557Z" fill="#736A5B"/>
        <path d="M402.723 324.33C407.205 338.283 374.162 335.178 374.162 335.178C358.288 308.445 352.654 262.844 352.654 245.365C353.483 244.155 354.529 243.109 355.739 242.28C358.915 240.111 364.477 238.568 372.188 244.82C384.916 255.133 402.723 324.33 402.723 324.33Z" fill="#1A171C"/>
        <path style="mix-blend-mode:multiply" opacity="0.2" d="M260.125 445.883C260.125 445.883 266.13 448.526 268.926 448.361C268.926 448.361 281.561 396.52 258.748 328.35L254.019 341.141C254.019 341.141 275.691 393.209 260.125 445.883Z" fill="url(#paint3_linear)"/>
    </g>
    <defs>
        <linearGradient id="paint0_linear" x1="383.068" y1="257.961" x2="383.263" y2="257.941" gradientUnits="userSpaceOnUse">
            <stop stop-color="#D1A211"/>
            <stop offset="1" stop-color="#D1A211" stop-opacity="0"/>
        </linearGradient>
        <linearGradient id="paint1_linear" x1="315.777" y1="689.165" x2="360.877" y2="505.624" gradientUnits="userSpaceOnUse">
            <stop stop-opacity="0"/>
            <stop offset="1"/>
        </linearGradient>
        <linearGradient id="paint2_linear" x1="6112.04" y1="20219.8" x2="6586.76" y2="20219.8" gradientUnits="userSpaceOnUse">
            <stop stop-opacity="0"/>
            <stop offset="1"/>
        </linearGradient>
        <linearGradient id="paint3_linear" x1="3350.11" y1="39934.4" x2="3679.24" y2="39934.4" gradientUnits="userSpaceOnUse">
            <stop stop-opacity="0"/>
            <stop offset="1"/>
        </linearGradient>
        <clipPath id="clip0">
            <rect width="341" height="803" fill="white" transform="translate(81 49)"/>
        </clipPath>
    </defs>
</svg>