<svg width="327" height="192" viewBox="0 0 327 192" fill="none" xmlns="http://www.w3.org/2000/svg">
    <g clip-path="url(#clip0)">
        <path d="M158.59 126.914C177.582 126.914 192.978 111.528 192.978 92.548C192.978 73.5681 177.582 58.1819 158.59 58.1819C139.598 58.1819 124.202 73.5681 124.202 92.548C124.202 111.528 139.598 126.914 158.59 126.914Z" fill="#0B7AC7"/>
        <g style="mix-blend-mode:multiply" opacity="0.3">
            <path d="M90.4831 186.347C90.4831 189.353 73.2307 191.796 51.9417 191.796C30.6527 191.796 13.3906 189.353 13.3906 186.347C13.3906 183.341 30.643 180.897 51.9417 180.897C73.2404 180.897 90.4831 183.341 90.4831 186.347Z" fill="#4D4D4D"/>
        </g>
        <g style="mix-blend-mode:multiply" opacity="0.3">
            <path d="M310.941 186.783C310.941 189.789 293.689 192.233 272.4 192.233C251.111 192.233 233.849 189.789 233.849 186.783C233.849 183.777 251.101 181.333 272.4 181.333C293.698 181.333 310.941 183.777 310.941 186.783Z" fill="#4D4D4D"/>
        </g>
        <path d="M26.6841 171.006C27.0043 175.273 27.0043 179.53 27.6544 183.321C30.8856 185.697 36.7076 184.291 40.5792 183.321C40.5792 179.055 40.5792 174.322 40.9091 170.056C36.8085 170.135 32.7069 169.976 28.6247 169.581C27.9467 170.55 27.6058 171.715 27.6544 172.897" fill="#ED9498"/>
        <path d="M41.2583 171.006C41.5882 175.273 41.5882 179.53 42.2286 183.321C45.4695 185.697 51.2818 184.291 55.1631 183.321C55.1631 179.055 55.1631 174.322 55.4833 170.056C51.3828 170.135 47.2811 169.976 43.199 169.581C42.5254 170.552 42.185 171.716 42.2286 172.897" fill="#ED9498"/>
        <path d="M78.451 118.458C82.4585 122.337 87.281 125.75 90.3958 130.444C91.2205 131.675 92.676 131.093 93.2 130.036C94.8235 127.442 95.9887 124.589 96.6446 121.6C97.1977 119.35 98.2942 115.219 96.3924 113.27C94.345 111.186 90.2696 112.456 87.8729 113.106C84.8649 113.93 81.9248 114.987 78.9847 116.015C78.7636 116.115 78.5689 116.266 78.4162 116.455C78.2636 116.644 78.1571 116.866 78.1053 117.103C78.0535 117.34 78.0577 117.586 78.1178 117.821C78.1778 118.057 78.2919 118.275 78.451 118.458Z" fill="#EF8077"/>
        <path d="M82.7204 111.903C74.1427 103.04 62.0428 100.325 50.098 100.887C27.373 101.954 9.81978 118.836 10.5669 142.584C11.1006 159.263 22.8125 173.275 38.328 178.463C51.67 182.933 67.7095 181.372 78.9749 172.645C88.0669 165.615 92.9476 154.269 93.7045 143.011C94.1321 137.348 93.3765 131.658 91.4855 126.303C89.5945 120.947 86.6096 116.044 82.7204 111.903Z" fill="#FFA9A2"/>
        <path d="M80.4495 136.446C76.9563 133.246 72.0173 132.267 67.156 132.47C57.8797 132.858 50.7284 138.948 51.0292 147.501C51.2523 153.522 56.0264 158.574 62.3529 160.446C67.7964 162.056 74.3267 161.493 78.926 158.351C80.6585 157.132 82.0967 155.542 83.1358 153.697C84.1749 151.851 84.7887 149.797 84.9324 147.685C85.09 145.594 84.7681 143.495 83.9912 141.547C83.2144 139.6 82.003 137.855 80.4495 136.446Z" fill="#EF8077"/>
        <path d="M65.3031 142.196C62.9841 143.573 63.3625 147.85 63.2849 150.138C63.2072 152.427 67.0303 152.456 66.8847 150.138C66.8168 148.936 66.6713 147.743 66.5936 146.541C66.516 145.338 66.8265 144.204 66.7683 143.04C66.77 142.868 66.7259 142.699 66.6405 142.549C66.5551 142.4 66.4316 142.276 66.2824 142.19C66.1333 142.104 65.964 142.06 65.792 142.061C65.6199 142.062 65.4512 142.109 65.3031 142.196Z" fill="#852438"/>
        <path d="M74.3656 143.04C74.3656 144.01 74.5887 145.076 74.5693 146.104C74.5693 147.452 74.3365 148.8 74.2491 150.138C74.1133 152.456 77.9558 152.465 77.849 150.138C77.7423 147.811 78.1595 143.573 75.8308 142.196C75.6827 142.109 75.514 142.062 75.3419 142.061C75.1698 142.06 75.0005 142.104 74.8514 142.19C74.7023 142.276 74.5787 142.4 74.4934 142.549C74.408 142.699 74.3639 142.868 74.3656 143.04Z" fill="#852438"/>
        <path d="M49.9234 131.792C50.4567 131.103 51.1579 130.564 51.9599 130.224C52.7618 129.884 53.6376 129.756 54.5033 129.852C56.6672 129.988 57.2397 131.792 58.8213 132.761C58.8791 132.795 58.9438 132.815 59.0105 132.819C59.0772 132.824 59.1441 132.813 59.206 132.788C59.2678 132.763 59.3231 132.723 59.3674 132.673C59.4118 132.623 59.444 132.564 59.4617 132.499C60.1992 130.133 56.9874 128.417 55.1146 128.068C53.8966 127.837 52.6368 127.993 51.5125 128.515C50.3881 129.037 49.4556 129.898 48.8463 130.977C48.4873 131.636 49.4285 132.451 49.9234 131.811V131.792Z" fill="#852438"/>
        <path d="M86.0193 131.132C85.6962 130.132 85.036 129.275 84.1512 128.708C83.2664 128.14 82.2119 127.897 81.1677 128.019C79.3338 128.301 76.4325 130.463 77.5095 132.596C77.5386 132.646 77.5773 132.69 77.6233 132.725C77.6694 132.76 77.7219 132.785 77.7779 132.8C77.8339 132.814 77.8921 132.817 77.9493 132.809C78.0065 132.801 78.0615 132.781 78.1111 132.752C79.3629 132.024 79.5666 130.424 81.09 129.92C82.6134 129.416 84.001 130.444 84.7579 131.656C85.1654 132.276 86.3104 131.889 86.0193 131.132Z" fill="#852438"/>
        <path d="M47.1387 116.053C44.2277 114.987 41.2585 113.93 38.2505 113.144C35.8538 112.495 31.7784 111.205 29.7407 113.309C27.7031 115.413 28.9257 119.389 29.4787 121.639C30.1381 124.628 31.3065 127.482 32.9331 130.075C33.4474 131.132 34.8738 131.714 35.7276 130.482C38.8424 125.789 43.6649 122.376 47.6724 118.497C47.8315 118.313 47.9456 118.095 48.0057 117.86C48.0657 117.625 48.07 117.379 48.0181 117.142C47.9663 116.904 47.8599 116.682 47.7072 116.494C47.5545 116.305 47.3599 116.154 47.1387 116.053Z" fill="#EF8077"/>
        <path d="M47.3032 176.485C47.5458 179.685 47.5458 182.885 48.031 185.726C50.4568 187.501 54.8232 186.434 57.7342 185.726C57.7342 182.526 57.7342 178.938 57.9768 175.777C54.8997 175.837 51.8218 175.717 48.7587 175.418C48.2499 176.147 47.9943 177.022 48.031 177.91" fill="#FFA9A2"/>
        <path d="M46.2552 176.485C46.3328 178.735 46.2552 180.965 46.2552 183.215C46.2552 185.154 45.9835 186.628 47.8756 187.704C50.7866 189.362 55.1822 188.47 58.1805 187.51C58.5709 187.402 58.9152 187.169 59.1605 186.847C59.4059 186.525 59.5388 186.131 59.5389 185.726C59.4225 184.078 59.5389 182.4 59.5389 180.751C59.5389 179.103 59.471 177.396 59.6651 175.777C59.6651 175.317 59.4821 174.875 59.1564 174.55C58.8306 174.224 58.3888 174.041 57.9282 174.041C54.8523 173.934 51.7666 173.857 48.7101 173.527C48.3749 173.527 48.046 173.618 47.7575 173.788C47.4691 173.959 47.2317 174.203 47.0702 174.497C46.5423 175.353 46.2479 176.333 46.2163 177.338C46.2142 177.653 46.2958 177.962 46.4526 178.235C46.6095 178.507 46.836 178.733 47.109 178.89C49.0497 180.034 49.6028 177.648 50.3499 176.407L48.7101 177.377C51.7748 177.65 54.8546 177.715 57.9282 177.571L56.2786 175.728C56.2786 177.377 56.0069 179.035 55.9778 180.703C55.9487 182.371 56.036 184.029 55.9778 185.678C56.4242 185.076 56.8802 184.485 57.3363 183.893C54.6388 184.349 51.6114 185.551 48.9915 184.204L49.7774 185.173C49.0825 182.317 48.6057 179.413 48.3511 176.485C48.2152 175.166 46.2066 175.108 46.2552 176.485Z" fill="#FFA9A2"/>
        <path d="M62.2368 176.485C62.4794 179.685 62.4794 182.885 62.9646 185.726C65.3904 187.501 69.7569 186.434 72.6678 185.726C72.6678 182.526 72.6678 178.938 72.9104 175.777C69.8333 175.837 66.7554 175.717 63.6923 175.418C63.1835 176.147 62.9279 177.022 62.9646 177.91" fill="#FFA9A2"/>
        <path d="M61.1888 176.485C61.2761 178.735 61.1888 180.965 61.1888 183.215C61.1888 185.154 60.9171 186.628 62.8092 187.704C65.7202 189.362 70.1158 188.47 73.1141 187.51C73.5045 187.402 73.8488 187.169 74.0941 186.847C74.3395 186.525 74.4724 186.131 74.4725 185.726C74.3561 184.078 74.4725 182.4 74.4725 180.751C74.4725 179.103 74.4046 177.396 74.5987 175.777C74.5987 175.317 74.4157 174.875 74.0899 174.55C73.7642 174.224 73.3224 174.041 72.8618 174.041C69.7858 173.934 66.7002 173.857 63.6437 173.527C63.3085 173.527 62.9796 173.618 62.6911 173.788C62.4027 173.959 62.1653 174.203 62.0038 174.497C61.4759 175.353 61.1815 176.333 61.1499 177.338C61.1478 177.653 61.2294 177.962 61.3862 178.235C61.5431 178.507 61.7696 178.733 62.0426 178.89C63.9833 180.034 64.5364 177.648 65.2835 176.407L63.6437 177.377C66.7085 177.65 69.7882 177.715 72.8618 177.571L71.1152 175.835C71.1152 177.484 70.8532 179.142 70.8241 180.81C70.795 182.478 70.8241 184.136 70.7659 185.784C71.2122 185.183 71.6683 184.591 72.1243 184C69.4268 184.456 66.3994 185.658 63.7795 184.31L64.5655 185.28C63.9127 182.386 63.4877 179.445 63.2944 176.485C63.1488 175.166 61.1402 175.108 61.1888 176.485Z" fill="#FFA9A2"/>
        <path d="M1.65967 101.12C-0.203356 104.727 -1.45508 111.942 3.31893 113.862C5.94851 114.919 8.45195 113.435 9.69397 111.147C10.509 109.624 11.2174 106.502 8.8983 105.852C4.48332 104.611 2.36801 108.761 2.10602 112.572C1.87314 116.878 3.88172 121.707 7.76302 123.859C9.39202 124.703 11.2512 124.996 13.061 124.693C14.8755 124.441 17.9126 123.472 18.7471 121.639C18.8101 121.522 18.8422 121.392 18.8404 121.259C18.8386 121.127 18.8029 120.997 18.7368 120.883C18.6706 120.768 18.5762 120.672 18.4626 120.604C18.3489 120.536 18.2197 120.498 18.0873 120.495C16.9035 120.417 15.6615 121.193 14.5553 121.552C13.4874 121.894 12.3667 122.041 11.2465 121.988C10.4045 121.892 9.58971 121.631 8.84877 121.22C8.10783 120.809 7.45529 120.256 6.92854 119.593C5.81901 118.215 5.05227 116.594 4.6913 114.863C4.33033 113.132 4.38542 111.34 4.85204 109.634C5.03578 108.992 5.39136 108.413 5.88041 107.958C6.36947 107.504 6.97345 107.191 7.62718 107.055C9.41258 106.657 9.40287 108.412 8.8692 109.527C8.35001 110.634 7.47566 111.535 6.38516 112.087C3.78469 113.367 2.01869 110.914 1.58204 108.732C1.16702 106.312 1.48463 103.824 2.49415 101.585C2.72703 101.052 1.97018 100.616 1.68878 101.12H1.65967Z" fill="#FFA9A2"/>
        <path d="M49.4868 100.752C49.4868 100.752 59.0931 99.6849 63.3528 108.926H70.1451C70.1451 108.926 65.439 97.5515 53.3681 98.6182L49.4868 100.752Z" fill="#ED9498"/>
        <path d="M47.6626 101.459C47.6626 101.459 57.2591 100.393 61.5286 109.634H68.3209C68.3209 109.634 63.7021 98.2594 51.6118 99.3261L47.6626 101.459Z" fill="#852438"/>
        <path d="M20.3088 122.744C17.2814 126.691 16.1267 131.985 15.8356 136.853C15.66 139.535 15.8658 142.229 16.4469 144.853C16.8933 146.851 17.7569 149.556 19.8431 150.381C19.9748 150.416 20.1129 150.421 20.2468 150.395C20.3807 150.369 20.5068 150.313 20.6155 150.23C20.7242 150.148 20.8126 150.042 20.8738 149.92C20.935 149.798 20.9675 149.664 20.9687 149.527C20.8716 147.695 19.8722 145.823 19.4938 144.019C19.0388 141.659 18.8533 139.255 18.9407 136.853C19.0183 132.529 19.4744 127.389 21.9778 123.714C22.6861 122.667 21.0075 121.775 20.3088 122.744Z" fill="white"/>
        <path d="M20.1926 159.147L20.4934 159.263C20.8436 159.362 21.2121 159.379 21.5698 159.311C21.9275 159.244 22.2646 159.094 22.5544 158.874C22.8443 158.654 23.0789 158.369 23.2399 158.043C23.4009 157.717 23.4838 157.358 23.482 156.994C23.4819 156.369 23.2342 155.769 22.7931 155.326C22.4962 155.033 22.1278 154.822 21.7245 154.715C21.3211 154.608 20.8968 154.608 20.4934 154.715L20.1926 154.832C19.7202 154.963 19.304 155.246 19.0078 155.636C18.7116 156.027 18.5518 156.504 18.5528 156.994C18.5502 157.389 18.6541 157.778 18.8536 158.119L19.2029 158.575C19.4741 158.842 19.8075 159.039 20.1732 159.147H20.1926Z" fill="white"/>
        <path d="M97.1005 48.2908C97.0948 50.3556 96.4767 52.3723 95.3245 54.0861C94.1723 55.7999 92.5375 57.134 90.6269 57.9197C88.7163 58.7054 86.6155 58.9075 84.59 58.5004C82.5644 58.0934 80.7051 57.0955 79.2469 55.6328C77.7887 54.1701 76.797 52.3083 76.3972 50.2826C75.9974 48.2569 76.2075 46.1582 77.0008 44.2517C77.7941 42.3453 79.135 40.7166 80.8542 39.5715C82.5735 38.4264 84.5937 37.8162 86.6598 37.8181C88.0338 37.8194 89.3941 38.0914 90.6628 38.6187C91.9314 39.1459 93.0836 39.918 94.0534 40.8907C95.0231 41.8634 95.7915 43.0177 96.3143 44.2875C96.8372 45.5574 97.1043 46.9177 97.1005 48.2908Z" fill="#F19238"/>
        <path d="M95.9262 49.1249C95.9262 51.1905 95.3133 53.2096 94.165 54.9271C93.0167 56.6445 91.3846 57.9831 89.475 58.7736C87.5655 59.564 85.4642 59.7708 83.437 59.3679C81.4099 58.9649 79.5478 57.9702 78.0863 56.5097C76.6247 55.0491 75.6294 53.1882 75.2262 51.1624C74.823 49.1365 75.0299 47.0366 75.8209 45.1283C76.6119 43.22 77.9513 41.5889 79.6699 40.4413C81.3884 39.2938 83.4089 38.6813 85.4758 38.6813C88.2474 38.6813 90.9055 39.7816 92.8654 41.7401C94.8252 43.6987 95.9262 46.3551 95.9262 49.1249Z" fill="#FDC65C"/>
        <path d="M93.8017 49.1248C93.8017 50.7704 93.3134 52.3789 92.3986 53.7472C91.4838 55.1154 90.1835 56.1818 88.6623 56.8115C87.141 57.4412 85.467 57.606 83.8521 57.285C82.2371 56.9639 80.7537 56.1715 79.5893 55.0079C78.425 53.8444 77.6321 52.3619 77.3109 50.748C76.9896 49.134 77.1545 47.4612 77.7846 45.9409C78.4147 44.4206 79.4818 43.1212 80.8509 42.207C82.22 41.2928 83.8297 40.8048 85.4763 40.8048C87.6843 40.8048 89.8019 41.6814 91.3632 43.2417C92.9245 44.802 93.8017 46.9182 93.8017 49.1248Z" fill="#FDA73A"/>
        <path d="M87.3618 52.1765C87.3618 51.8171 87.2349 51.5144 86.981 51.2683C86.731 51.0222 86.3071 50.7996 85.7095 50.6003C84.8774 50.3464 84.27 50.0164 83.8872 49.6101C83.5083 49.2 83.3188 48.6804 83.3188 48.0515C83.3188 47.4109 83.5044 46.8855 83.8755 46.4753C84.2505 46.0652 84.7642 45.821 85.4165 45.7429V44.4597H86.2896V45.7488C86.9458 45.8386 87.4556 46.114 87.8188 46.575C88.186 47.0359 88.3696 47.6667 88.3696 48.4675H87.2915C87.2915 47.9167 87.1606 47.4792 86.8989 47.155C86.6372 46.8308 86.2837 46.6687 85.8384 46.6687C85.3735 46.6687 85.0181 46.7898 84.772 47.032C84.5259 47.2703 84.4028 47.6042 84.4028 48.0339C84.4028 48.4324 84.5317 48.7507 84.7896 48.989C85.0513 49.2234 85.479 49.4382 86.0728 49.6335C86.6704 49.825 87.1353 50.0378 87.4673 50.2722C87.8032 50.5027 88.0493 50.7722 88.2056 51.0808C88.3657 51.3894 88.4458 51.7507 88.4458 52.1648C88.4458 52.825 88.2466 53.3562 87.8481 53.7585C87.4536 54.1609 86.8989 54.3992 86.1841 54.4734V55.5925H85.3169V54.4734C84.5903 54.407 84.02 54.1492 83.606 53.7C83.1958 53.2468 82.9907 52.6335 82.9907 51.8601H84.0747C84.0747 52.4031 84.2173 52.821 84.5024 53.114C84.7876 53.407 85.1919 53.5535 85.7153 53.5535C86.2271 53.5535 86.6294 53.4304 86.9224 53.1843C87.2153 52.9382 87.3618 52.6023 87.3618 52.1765Z" fill="#F3E898"/>
        <path d="M144.161 22.303C144.169 25.0572 143.359 27.7518 141.833 30.0454C140.307 32.339 138.135 34.1286 135.59 35.1875C133.046 36.2464 130.245 36.5269 127.541 35.9936C124.837 35.4603 122.352 34.1371 120.402 32.1916C118.451 30.2461 117.122 27.7658 116.582 25.0649C116.043 22.3639 116.318 19.5637 117.372 17.019C118.426 14.4742 120.212 12.2993 122.504 10.7698C124.796 9.2402 127.491 8.42473 130.247 8.42664C133.931 8.42919 137.465 9.89106 140.073 12.492C142.681 15.0929 144.151 18.6209 144.161 22.303Z" fill="#F19238"/>
        <path d="M142.638 23.4472C142.638 26.1973 141.822 28.8857 140.295 31.173C138.767 33.4603 136.595 35.2438 134.053 36.2984C131.512 37.3531 128.715 37.6314 126.015 37.0984C123.315 36.5654 120.834 35.245 118.885 33.3037C116.936 31.3625 115.606 28.8876 115.063 26.1915C114.52 23.4955 114.789 20.6991 115.836 18.1556C116.882 15.6121 118.659 13.4356 120.943 11.9007C123.226 10.3659 125.913 9.54165 128.665 9.53207C130.498 9.52569 132.314 9.8809 134.009 10.5773C135.704 11.2738 137.244 12.2978 138.542 13.5905C139.841 14.8833 140.871 16.4195 141.573 18.1109C142.276 19.8023 142.638 21.6158 142.638 23.4472Z" fill="#FDC65C"/>
        <path d="M139.727 23.4472C139.727 25.6406 139.076 27.7846 137.856 29.608C136.636 31.4313 134.902 32.8519 132.874 33.6899C130.845 34.5279 128.614 34.7457 126.462 34.3157C124.31 33.8857 122.333 32.8272 120.784 31.2742C119.234 29.7212 118.18 27.7435 117.755 25.5916C117.33 23.4397 117.554 21.2102 118.398 19.1855C119.242 17.1607 120.668 15.4317 122.496 14.2173C124.323 13.003 126.471 12.3578 128.665 12.3636C131.602 12.3713 134.415 13.5424 136.489 15.6202C138.563 17.6979 139.727 20.5127 139.727 23.4472Z" fill="#FDA73A"/>
        <path d="M131.382 26.7606C131.382 26.2815 131.213 25.8778 130.874 25.5497C130.541 25.2216 129.976 24.9247 129.179 24.6591C128.069 24.3205 127.259 23.8804 126.749 23.3387C126.244 22.7919 125.991 22.0992 125.991 21.2606C125.991 20.4065 126.239 19.7059 126.733 19.1591C127.233 18.6122 127.918 18.2867 128.788 18.1825V16.4716H129.952V18.1903C130.827 18.3101 131.507 18.6773 131.991 19.2919C132.481 19.9065 132.726 20.7476 132.726 21.8153H131.288C131.288 21.0809 131.114 20.4976 130.765 20.0653C130.416 19.633 129.944 19.4169 129.351 19.4169C128.731 19.4169 128.257 19.5783 127.929 19.9012C127.601 20.219 127.437 20.6643 127.437 21.2372C127.437 21.7684 127.608 22.1929 127.952 22.5106C128.301 22.8231 128.871 23.1096 129.663 23.37C130.46 23.6252 131.08 23.9091 131.522 24.2216C131.97 24.5288 132.299 24.8882 132.507 25.2997C132.72 25.7111 132.827 26.1929 132.827 26.745C132.827 27.6252 132.562 28.3335 132.03 28.87C131.504 29.4065 130.765 29.7242 129.812 29.8231V31.3153H128.655V29.8231C127.687 29.7346 126.926 29.3908 126.374 28.7919C125.827 28.1877 125.554 27.37 125.554 26.3387H126.999C126.999 27.0627 127.189 27.62 127.569 28.0106C127.95 28.4012 128.489 28.5966 129.187 28.5966C129.869 28.5966 130.405 28.4325 130.796 28.1044C131.187 27.7762 131.382 27.3283 131.382 26.7606Z" fill="#F3E898"/>
        <path d="M69.165 82.4922C69.1631 84.2869 68.6288 86.0408 67.6296 87.5321C66.6305 89.0234 65.2114 90.1852 63.5517 90.8707C61.8919 91.5562 60.0661 91.7346 58.3049 91.3833C56.5438 91.0319 54.9264 90.1667 53.6572 88.897C52.388 87.6273 51.524 86.01 51.1743 84.2496C50.8246 82.4893 51.0051 80.6648 51.6928 79.0069C52.3805 77.349 53.5446 75.932 55.0379 74.9351C56.5313 73.9382 58.2869 73.4061 60.0827 73.4061C61.2763 73.4061 62.4581 73.6412 63.5606 74.098C64.6632 74.5547 65.6648 75.2241 66.5083 76.068C67.3518 76.9118 68.0206 77.9135 68.4764 79.0158C68.9323 80.1182 69.1663 81.2994 69.165 82.4922Z" fill="#F19238"/>
        <path d="M68.1458 83.2097C68.1458 85.0068 67.6126 86.7635 66.6136 88.2577C65.6145 89.7519 64.1946 90.9165 62.5332 91.6042C60.8719 92.2919 59.0438 92.4718 57.2801 92.1212C55.5165 91.7706 53.8964 90.9053 52.6249 89.6345C51.3534 88.3638 50.4874 86.7449 50.1366 84.9823C49.7858 83.2198 49.9659 81.3929 50.654 79.7326C51.3422 78.0724 52.5075 76.6533 54.0027 75.6549C55.4978 74.6565 57.2557 74.1237 59.0539 74.1237C61.4652 74.1237 63.7778 75.0809 65.4829 76.7849C67.1879 78.4889 68.1458 80.7999 68.1458 83.2097Z" fill="#FDC65C"/>
        <path d="M66.2927 83.2097C66.2927 84.6404 65.8682 86.039 65.0728 87.2286C64.2774 88.4182 63.1469 89.3454 61.8242 89.893C60.5015 90.4405 59.046 90.5837 57.6419 90.3046C56.2377 90.0255 54.9479 89.3365 53.9356 88.3248C52.9232 87.3131 52.2338 86.0242 51.9545 84.6209C51.6752 83.2177 51.8186 81.7632 52.3664 80.4413C52.9143 79.1195 53.8421 77.9897 55.0325 77.1949C56.2229 76.4 57.6224 75.9757 59.0541 75.9757C60.9739 75.9757 62.815 76.7379 64.1726 78.0945C65.5301 79.4511 66.2927 81.2911 66.2927 83.2097Z" fill="#FDA73A"/>
        <path d="M61.165 85.4518C61.165 85.1523 61.0592 84.9 60.8477 84.6949C60.6393 84.4899 60.2861 84.3043 59.7881 84.1383C59.0947 83.9267 58.5885 83.6517 58.2695 83.3131C57.9538 82.9713 57.7959 82.5384 57.7959 82.0143C57.7959 81.4804 57.9505 81.0426 58.2598 80.7008C58.5723 80.359 59.0003 80.1556 59.5439 80.0905V79.0211H60.2715V80.0953C60.8184 80.1702 61.2432 80.3997 61.5459 80.7838C61.8519 81.1679 62.0049 81.6936 62.0049 82.361H61.1064C61.1064 81.902 60.9974 81.5374 60.7793 81.2672C60.5612 80.997 60.2666 80.8619 59.8955 80.8619C59.5081 80.8619 59.2119 80.9628 59.0068 81.1647C58.8018 81.3632 58.6992 81.6416 58.6992 81.9996C58.6992 82.3317 58.8066 82.597 59.0215 82.7955C59.2396 82.9908 59.596 83.1699 60.0908 83.3326C60.5889 83.4921 60.9762 83.6696 61.2529 83.8649C61.5329 84.0569 61.738 84.2815 61.8682 84.5387C62.0016 84.7959 62.0684 85.097 62.0684 85.442C62.0684 85.9921 61.9023 86.4349 61.5703 86.7701C61.2415 87.1054 60.7793 87.304 60.1836 87.3658V88.2985H59.4609V87.3658C58.8555 87.3105 58.3802 87.0957 58.0352 86.7213C57.6934 86.3437 57.5225 85.8326 57.5225 85.1881H58.4258C58.4258 85.6406 58.5446 85.9889 58.7822 86.233C59.0199 86.4772 59.3568 86.5992 59.793 86.5992C60.2194 86.5992 60.5547 86.4967 60.7988 86.2916C61.043 86.0865 61.165 85.8066 61.165 85.4518Z" fill="#F3E898"/>
        <path d="M42.8208 81.2509C42.6462 85.8473 41.6467 91.5006 43.044 95.9418C43.0862 96.0813 43.1723 96.2034 43.2893 96.2903C43.4064 96.3771 43.5483 96.424 43.6941 96.424C43.8399 96.424 43.9819 96.3771 44.0989 96.2903C44.216 96.2034 44.302 96.0813 44.3443 95.9418C45.7512 91.4909 44.7421 85.8473 44.5674 81.2509C44.5674 81.0194 44.4754 80.7975 44.3117 80.6338C44.1479 80.4701 43.9257 80.3782 43.6941 80.3782C43.4625 80.3782 43.2404 80.4701 43.0766 80.6338C42.9129 80.7975 42.8208 81.0194 42.8208 81.2509Z" fill="#F6AE4B"/>
        <path d="M247.942 17.3576C247.768 21.954 246.768 27.6073 248.166 32.0485C248.208 32.188 248.294 32.3101 248.411 32.397C248.528 32.4838 248.67 32.5307 248.816 32.5307C248.961 32.5307 249.103 32.4838 249.221 32.397C249.338 32.3101 249.424 32.188 249.466 32.0485C250.873 27.5976 249.864 21.954 249.689 17.3576C249.689 17.1261 249.597 16.9041 249.433 16.7405C249.269 16.5768 249.047 16.4849 248.816 16.4849C248.584 16.4849 248.362 16.5768 248.198 16.7405C248.034 16.9041 247.942 17.1261 247.942 17.3576Z" fill="#F6AE4B"/>
        <path d="M39.6181 84.7903C39.6181 86.1479 39.395 87.8352 39.8801 89.1152C39.8993 89.1734 39.9363 89.2241 39.986 89.26C40.0356 89.2959 40.0954 89.3153 40.1567 89.3153C40.218 89.3153 40.2777 89.2959 40.3274 89.26C40.377 89.2241 40.4141 89.1734 40.4332 89.1152C40.9184 87.8352 40.6758 86.1479 40.6952 84.7903C40.6777 84.66 40.6134 84.5405 40.5144 84.454C40.4153 84.3674 40.2882 84.3197 40.1567 84.3197C40.0251 84.3197 39.898 84.3674 39.799 84.454C39.6999 84.5405 39.6357 84.66 39.6181 84.7903Z" fill="#F6AE4B"/>
        <path d="M255.603 55.0012C255.603 58.6854 254.51 62.2869 252.462 65.3503C250.414 68.4136 247.502 70.8012 244.096 72.2111C240.69 73.621 236.943 73.9899 233.327 73.2711C229.711 72.5524 226.39 70.7782 223.783 68.1731C221.176 65.5679 219.401 62.2487 218.681 58.6353C217.962 55.0218 218.331 51.2764 219.742 47.8726C221.153 44.4688 223.542 41.5595 226.607 39.5127C229.673 37.4658 233.277 36.3733 236.963 36.3733C241.907 36.3733 246.648 38.3359 250.144 41.8293C253.639 45.3227 255.603 50.0608 255.603 55.0012Z" fill="#F19238"/>
        <path d="M253.498 56.4751C253.492 60.1565 252.395 63.7536 250.345 66.8122C248.295 69.8709 245.384 72.254 241.98 73.6605C238.575 75.0671 234.831 75.4341 231.218 74.7152C227.605 73.9963 224.286 72.2237 221.681 69.6213C219.075 67.0189 217.3 63.7033 216.579 60.0932C215.857 56.4831 216.223 52.7404 217.628 49.3376C219.034 45.9348 221.417 43.0246 224.477 40.9743C227.536 38.9241 231.135 37.8258 234.819 37.8182C237.272 37.813 239.703 38.2921 241.971 39.2277C244.239 40.1634 246.299 41.5373 248.035 43.2707C249.77 45.004 251.146 47.0627 252.083 49.3286C253.021 51.5946 253.502 54.0232 253.498 56.4751Z" fill="#FDC65C"/>
        <path d="M249.704 56.4752C249.704 59.4079 248.834 62.2748 247.204 64.7138C245.575 67.1528 243.258 69.0544 240.548 70.1785C237.837 71.3025 234.854 71.5986 231.976 71.0293C229.097 70.46 226.452 69.0508 224.374 66.9797C222.296 64.9087 220.879 62.2688 220.302 59.3933C219.725 56.5179 220.013 53.5361 221.131 50.8244C222.248 48.1127 224.145 45.793 226.582 44.1581C229.018 42.5232 231.884 41.6465 234.819 41.6388C236.772 41.6337 238.706 42.0137 240.512 42.757C242.318 43.5004 243.959 44.5924 245.342 45.9706C246.724 47.3488 247.821 48.986 248.57 50.7886C249.318 52.5912 249.704 54.5236 249.704 56.4752Z" fill="#FDA73A"/>
        <path d="M238.063 60.274C238.063 59.6751 237.851 59.1705 237.428 58.7604C237.012 58.3502 236.305 57.9791 235.309 57.6471C233.922 57.2239 232.91 56.6738 232.272 55.9967C231.64 55.3131 231.325 54.4472 231.325 53.399C231.325 52.3313 231.634 51.4557 232.252 50.7721C232.877 50.0885 233.734 49.6816 234.821 49.5514V47.4127H236.276V49.5612C237.37 49.7109 238.219 50.1699 238.825 50.9381C239.437 51.7063 239.743 52.7578 239.743 54.0924H237.946C237.946 53.1744 237.728 52.4453 237.292 51.9049C236.855 51.3645 236.266 51.0944 235.524 51.0944C234.749 51.0944 234.157 51.2962 233.747 51.6998C233.336 52.097 233.131 52.6536 233.131 53.3698C233.131 54.0338 233.346 54.5644 233.776 54.9615C234.212 55.3522 234.925 55.7102 235.915 56.0358C236.911 56.3548 237.685 56.7096 238.239 57.1002C238.799 57.4843 239.209 57.9336 239.469 58.4479C239.736 58.9622 239.87 59.5644 239.87 60.2545C239.87 61.3548 239.538 62.2402 238.874 62.9108C238.216 63.5813 237.292 63.9785 236.1 64.1022V65.9674H234.655V64.1022C233.444 63.9915 232.493 63.5618 231.803 62.8131C231.12 62.0579 230.778 61.0358 230.778 59.7467H232.584C232.584 60.6517 232.822 61.3483 233.297 61.8365C233.773 62.3248 234.446 62.569 235.319 62.569C236.172 62.569 236.842 62.3639 237.331 61.9537C237.819 61.5436 238.063 60.9837 238.063 60.274Z" fill="#F3E898"/>
        <path d="M205.476 21.0812C205.48 24.4882 204.473 27.8198 202.581 30.6544C200.69 33.4891 198 35.6995 194.851 37.0059C191.703 38.3124 188.237 38.6562 184.893 37.9939C181.549 37.3316 178.477 35.6929 176.065 33.2851C173.653 30.8774 172.009 27.8088 171.343 24.4676C170.676 21.1263 171.016 17.6626 172.32 14.5146C173.624 11.3666 175.833 8.67575 178.667 6.78254C181.501 4.88932 184.834 3.87879 188.243 3.87878C192.81 3.87878 197.191 5.69056 200.422 8.91608C203.653 12.1416 205.471 16.5171 205.476 21.0812Z" fill="#F19238"/>
        <path d="M203.536 22.4485C203.536 25.8547 202.525 29.1843 200.632 32.0164C198.738 34.8485 196.047 37.0559 192.898 38.3594C189.749 39.6629 186.284 40.0039 182.941 39.3394C179.598 38.6749 176.527 37.0347 174.117 34.6262C171.707 32.2177 170.066 29.149 169.401 25.8083C168.736 22.4676 169.077 19.0049 170.382 15.858C171.686 12.7111 173.895 10.0214 176.729 8.12908C179.563 6.23673 182.894 5.22668 186.303 5.22668C190.873 5.22668 195.257 7.04112 198.488 10.2708C201.72 13.5006 203.536 17.881 203.536 22.4485Z" fill="#FDC65C"/>
        <path d="M200.033 22.4485C200.033 25.1623 199.228 27.8152 197.719 30.0716C196.21 32.328 194.066 34.0867 191.557 35.1253C189.048 36.1638 186.288 36.4355 183.624 35.9061C180.961 35.3766 178.514 34.0698 176.594 32.1509C174.674 30.2319 173.366 27.787 172.837 25.1254C172.307 22.4637 172.579 19.7049 173.618 17.1976C174.657 14.6904 176.417 12.5474 178.675 11.0397C180.933 9.53203 183.587 8.72729 186.303 8.72729C189.944 8.72729 193.437 10.1729 196.012 12.7461C198.586 15.3194 200.033 18.8094 200.033 22.4485Z" fill="#FDA73A"/>
        <path d="M188.843 25.8322C188.843 25.2931 188.652 24.839 188.271 24.4698C187.896 24.1007 187.261 23.7667 186.364 23.4679C185.116 23.087 184.205 22.5919 183.631 21.9825C183.062 21.3673 182.778 20.588 182.778 19.6447C182.778 18.6837 183.057 17.8956 183.613 17.2804C184.176 16.6652 184.946 16.299 185.925 16.1818V14.257H187.234V16.1906C188.219 16.3253 188.983 16.7384 189.528 17.4298C190.079 18.1212 190.354 19.0675 190.354 20.2687H188.737C188.737 19.4425 188.541 18.7863 188.148 18.2999C187.756 17.8136 187.226 17.5704 186.558 17.5704C185.86 17.5704 185.327 17.7521 184.958 18.1154C184.589 18.4728 184.404 18.9738 184.404 19.6183C184.404 20.2159 184.598 20.6935 184.984 21.0509C185.377 21.4025 186.019 21.7247 186.909 22.0177C187.806 22.3048 188.503 22.6241 189.001 22.9757C189.505 23.3214 189.874 23.7257 190.108 24.1886C190.349 24.6515 190.469 25.1935 190.469 25.8146C190.469 26.8048 190.17 27.6017 189.572 28.2052C188.98 28.8087 188.148 29.1661 187.076 29.2775V30.9562H185.775V29.2775C184.686 29.1779 183.83 28.7911 183.209 28.1173C182.594 27.4376 182.286 26.5177 182.286 25.3575H183.912C183.912 26.172 184.126 26.799 184.554 27.2384C184.981 27.6779 185.588 27.8976 186.373 27.8976C187.141 27.8976 187.744 27.713 188.184 27.3439C188.623 26.9747 188.843 26.4708 188.843 25.8322Z" fill="#F3E898"/>
        <path d="M255.552 29.1297C255.552 35.0933 254.582 41.9588 255.843 47.7964C255.888 47.9521 255.982 48.089 256.112 48.1865C256.241 48.2839 256.399 48.3366 256.561 48.3366C256.723 48.3366 256.881 48.2839 257.011 48.1865C257.14 48.089 257.235 47.9521 257.279 47.7964C258.58 41.9782 257.609 35.0933 257.57 29.1297C257.57 28.8622 257.464 28.6057 257.275 28.4166C257.086 28.2275 256.829 28.1212 256.561 28.1212C256.294 28.1212 256.037 28.2275 255.848 28.4166C255.659 28.6057 255.552 28.8622 255.552 29.1297Z" fill="#F6AE4B"/>
        <path d="M272.745 81.2474C272.745 83.4001 272.385 86.0958 273.162 88.0352C273.192 88.1254 273.251 88.2036 273.328 88.2591C273.405 88.3145 273.498 88.3443 273.594 88.3443C273.689 88.3443 273.782 88.3145 273.859 88.2591C273.937 88.2036 273.995 88.1254 274.025 88.0352C274.802 86.0086 274.413 83.3419 274.443 81.2474C274.42 81.038 274.321 80.8443 274.164 80.7035C274.008 80.5627 273.804 80.4849 273.594 80.4849C273.383 80.4849 273.18 80.5627 273.023 80.7035C272.866 80.8443 272.767 81.038 272.745 81.2474Z" fill="#F6AE4B"/>
        <path d="M147.899 95.5118H141.819L140.699 98.6118H138.779L143.819 84.7518H145.919L150.939 98.6118H149.019L147.899 95.5118ZM147.379 94.0318L144.859 86.9918L142.339 94.0318H147.379ZM162.456 88.7518C162.456 89.9118 162.056 90.8785 161.256 91.6518C160.469 92.4118 159.262 92.7918 157.636 92.7918H154.956V98.6118H153.136V84.6718H157.636C159.209 84.6718 160.402 85.0518 161.216 85.8118C162.042 86.5718 162.456 87.5518 162.456 88.7518ZM157.636 91.2918C158.649 91.2918 159.396 91.0718 159.876 90.6318C160.356 90.1918 160.596 89.5651 160.596 88.7518C160.596 87.0318 159.609 86.1718 157.636 86.1718H154.956V91.2918H157.636ZM176.238 84.6718L170.978 98.6118H168.878L163.618 84.6718H165.558L169.938 96.6918L174.318 84.6718H176.238Z" fill="white"/>
        <path d="M276.276 189.889C301.63 187.118 319.922 164.334 317.132 138.998C314.342 113.662 291.527 95.3686 266.172 98.1392C240.818 100.91 222.526 123.695 225.316 149.031C228.106 174.367 250.921 192.66 276.276 189.889Z" fill="#8EC045"/>
        <path d="M264.071 147.781L259.508 161.144H253.94L268.452 118.594H275.023L289.763 161.144H283.694L279.131 147.781H264.071ZM278.035 143.495L273.837 131.227C272.879 128.445 272.24 125.937 271.646 123.474C271.053 125.982 270.369 128.582 269.547 131.181L265.349 143.495H278.035Z" fill="white"/>
    </g>
    <defs>
        <clipPath id="clip0">
            <rect width="327" height="192" fill="white"/>
        </clipPath>
    </defs>
</svg>