<svg width="327" height="200" viewBox="0 0 327 200" fill="none" xmlns="http://www.w3.org/2000/svg">
    <g clip-path="url(#clip0)">
        <path d="M158.591 126.726C177.583 126.726 192.979 111.363 192.979 92.4109C192.979 73.4592 177.583 58.0957 158.591 58.0957C139.598 58.0957 124.202 73.4592 124.202 92.4109C124.202 111.363 139.598 126.726 158.591 126.726Z" fill="#0B7AC7"/>
        <g style="mix-blend-mode:multiply" opacity="0.3">
            <path d="M90.4831 186.071C90.4831 189.073 73.2307 191.513 51.9417 191.513C30.6527 191.513 13.3906 189.073 13.3906 186.071C13.3906 183.069 30.643 180.629 51.9417 180.629C73.2404 180.629 90.4831 183.069 90.4831 186.071Z" fill="#4D4D4D"/>
        </g>
        <g style="mix-blend-mode:multiply" opacity="0.3">
            <path d="M310.413 184.024C310.413 188.267 285.755 191.716 255.328 191.716C224.9 191.716 200.229 188.267 200.229 184.024C200.229 179.781 224.887 176.331 255.328 176.331C285.769 176.331 310.413 179.781 310.413 184.024Z" fill="#4D4D4D"/>
        </g>
        <path d="M26.6836 170.753C27.0038 175.013 27.0038 179.264 27.6539 183.05C30.8851 185.422 36.7071 184.018 40.5787 183.05C40.5787 178.79 40.5787 174.064 40.9086 169.804C36.8081 169.883 32.7064 169.725 28.6242 169.33C27.9462 170.298 27.6053 171.461 27.6539 172.641" fill="#ED9498"/>
        <path d="M41.2578 170.753C41.5877 175.013 41.5877 179.264 42.2281 183.05C45.469 185.422 51.2813 184.018 55.1626 183.05C55.1626 178.79 55.1626 174.064 55.4828 169.804C51.3823 169.883 47.2806 169.725 43.1985 169.33C42.5249 170.3 42.1845 171.462 42.2281 172.641" fill="#ED9498"/>
        <path d="M78.451 118.283C82.4585 122.156 87.281 125.564 90.3958 130.251C91.2205 131.48 92.676 130.899 93.2 129.844C94.8235 127.254 95.9887 124.404 96.6447 121.42C97.1977 119.174 98.2942 115.049 96.3924 113.103C94.345 111.021 90.2696 112.289 87.8729 112.938C84.8649 113.761 81.9248 114.817 78.9847 115.843C78.7636 115.943 78.5689 116.094 78.4162 116.283C78.2636 116.471 78.1571 116.693 78.1053 116.93C78.0535 117.166 78.0577 117.412 78.1178 117.647C78.1778 117.882 78.2919 118.1 78.451 118.283Z" fill="#EF8077"/>
        <path d="M82.7204 111.737C74.1427 102.888 62.0428 100.176 50.098 100.738C27.373 101.803 9.81978 118.661 10.5669 142.373C11.1006 159.027 22.8125 173.019 38.328 178.199C51.67 182.663 67.7095 181.104 78.975 172.389C88.0669 165.37 92.9477 154.041 93.7045 142.799C94.1321 137.145 93.3765 131.463 91.4855 126.116C89.5946 120.768 86.6096 115.872 82.7204 111.737Z" fill="#FFA9A2"/>
        <path d="M80.45 136.244C76.9568 133.049 72.0178 132.071 67.1565 132.274C57.8802 132.662 50.7289 138.742 51.0297 147.282C51.2528 153.295 56.0268 158.34 62.3534 160.209C67.7969 161.816 74.3272 161.254 78.9265 158.117C80.659 156.9 82.0972 155.312 83.1363 153.469C84.1754 151.627 84.7892 149.576 84.9329 147.466C85.0905 145.379 84.7686 143.283 83.9917 141.338C83.2149 139.393 82.0035 137.651 80.45 136.244Z" fill="#EF8077"/>
        <path d="M65.3026 141.986C62.9836 143.361 63.362 147.631 63.2844 149.916C63.2067 152.201 67.0298 152.23 66.8843 149.916C66.8164 148.715 66.6708 147.524 66.5932 146.324C66.5156 145.123 66.8261 143.99 66.7678 142.828C66.7695 142.657 66.7254 142.488 66.6401 142.338C66.5547 142.189 66.4311 142.066 66.282 141.98C66.1329 141.894 65.9636 141.85 65.7915 141.851C65.6194 141.852 65.4507 141.898 65.3026 141.986Z" fill="#852438"/>
        <path d="M74.3661 142.828C74.3661 143.797 74.5892 144.862 74.5698 145.888C74.5698 147.234 74.3369 148.58 74.2496 149.916C74.1138 152.23 77.9563 152.24 77.8495 149.916C77.7428 147.592 78.16 143.361 75.8312 141.986C75.6832 141.898 75.5145 141.852 75.3424 141.851C75.1703 141.85 75.001 141.894 74.8519 141.98C74.7028 142.066 74.5792 142.189 74.4938 142.338C74.4085 142.488 74.3644 142.657 74.3661 142.828Z" fill="#852438"/>
        <path d="M49.9234 131.597C50.4567 130.909 51.1579 130.37 51.9599 130.031C52.7618 129.692 53.6376 129.564 54.5033 129.66C56.6672 129.796 57.2397 131.597 58.8213 132.565C58.8791 132.598 58.9438 132.618 59.0105 132.623C59.0772 132.627 59.1441 132.617 59.206 132.591C59.2678 132.566 59.3231 132.527 59.3674 132.477C59.4118 132.427 59.444 132.368 59.4617 132.303C60.1992 129.941 56.9874 128.227 55.1146 127.878C53.8966 127.648 52.6369 127.804 51.5125 128.325C50.3881 128.846 49.4556 129.706 48.8463 130.783C48.4873 131.442 49.4285 132.255 49.9234 131.616V131.597Z" fill="#852438"/>
        <path d="M86.0193 130.938C85.6962 129.94 85.036 129.084 84.1512 128.517C83.2664 127.95 82.2119 127.708 81.1677 127.83C79.3338 128.111 76.4325 130.27 77.5095 132.4C77.5386 132.45 77.5773 132.494 77.6233 132.529C77.6694 132.563 77.7219 132.589 77.7779 132.603C77.8339 132.618 77.8921 132.621 77.9493 132.613C78.0065 132.604 78.0615 132.585 78.1111 132.555C79.3629 131.829 79.5666 130.231 81.09 129.728C82.6134 129.224 84.001 130.251 84.7579 131.461C85.1654 132.081 86.3104 131.693 86.0193 130.938Z" fill="#852438"/>
        <path d="M47.1387 115.882C44.2277 114.817 41.2585 113.761 38.2505 112.977C35.8538 112.328 31.7784 111.04 29.7407 113.141C27.7031 115.243 28.9257 119.213 29.4787 121.459C30.1381 124.444 31.3065 127.293 32.9331 129.883C33.4474 130.938 34.8738 131.519 35.7277 130.289C38.8424 125.603 43.6649 122.195 47.6724 118.322C47.8315 118.138 47.9456 117.921 48.0057 117.686C48.0657 117.451 48.07 117.205 48.0182 116.968C47.9663 116.731 47.8599 116.51 47.7072 116.321C47.5545 116.133 47.3599 115.982 47.1387 115.882Z" fill="#EF8077"/>
        <path d="M47.3037 176.224C47.5463 179.419 47.5463 182.614 48.0315 185.451C50.4573 187.223 54.8237 186.158 57.7347 185.451C57.7347 182.256 57.7347 178.673 57.9773 175.517C54.9002 175.576 51.8223 175.457 48.7592 175.159C48.2504 175.886 47.9948 176.761 48.0315 177.647" fill="#FFA9A2"/>
        <path d="M46.2556 176.224C46.3333 178.47 46.2556 180.697 46.2556 182.943C46.2556 184.88 45.984 186.352 47.8761 187.427C50.7871 189.082 55.1827 188.191 58.181 187.233C58.5714 187.125 58.9157 186.892 59.161 186.57C59.4064 186.249 59.5393 185.856 59.5394 185.451C59.423 183.805 59.5394 182.13 59.5394 180.484C59.5394 178.838 59.4715 177.134 59.6656 175.517C59.6656 175.057 59.4826 174.616 59.1568 174.291C58.8311 173.966 58.3893 173.784 57.9287 173.784C54.8527 173.677 51.7671 173.6 48.7106 173.271C48.3754 173.271 48.0465 173.361 47.758 173.531C47.4696 173.701 47.2322 173.946 47.0707 174.239C46.5427 175.094 46.2484 176.072 46.2168 177.076C46.2147 177.39 46.2963 177.699 46.4531 177.971C46.61 178.243 46.8365 178.469 47.1095 178.625C49.0502 179.768 49.6033 177.386 50.3504 176.146L48.7106 177.115C51.7753 177.387 54.8551 177.452 57.9287 177.308L56.2791 175.468C56.2791 177.115 56.0074 178.77 55.9783 180.436C55.9492 182.101 56.0365 183.757 55.9783 185.403C56.4247 184.803 56.8807 184.212 57.3368 183.621C54.6393 184.076 51.6119 185.277 48.992 183.931L49.7779 184.899C49.083 182.048 48.6062 179.147 48.3516 176.224C48.2157 174.907 46.2071 174.849 46.2556 176.224Z" fill="#FFA9A2"/>
        <path d="M62.2363 176.224C62.4789 179.419 62.4789 182.614 62.9641 185.451C65.3899 187.223 69.7564 186.158 72.6673 185.451C72.6673 182.256 72.6673 178.673 72.9099 175.517C69.8329 175.576 66.7549 175.457 63.6918 175.159C63.1831 175.886 62.9274 176.761 62.9641 177.647" fill="#FFA9A2"/>
        <path d="M61.1883 176.224C61.2756 178.47 61.1883 180.697 61.1883 182.943C61.1883 184.88 60.9166 186.352 62.8087 187.427C65.7197 189.082 70.1153 188.191 73.1136 187.233C73.504 187.125 73.8483 186.892 74.0936 186.57C74.339 186.249 74.4719 185.856 74.472 185.451C74.3556 183.805 74.472 182.13 74.472 180.484C74.472 178.838 74.4041 177.134 74.5982 175.517C74.5982 175.057 74.4152 174.616 74.0895 174.291C73.7637 173.966 73.3219 173.784 72.8613 173.784C69.7854 173.677 66.6997 173.6 63.6432 173.271C63.308 173.271 62.9791 173.361 62.6906 173.531C62.4022 173.701 62.1648 173.946 62.0033 174.239C61.4754 175.094 61.181 176.072 61.1495 177.076C61.1473 177.39 61.2289 177.699 61.3857 177.971C61.5426 178.243 61.7691 178.469 62.0422 178.625C63.9828 179.768 64.5359 177.386 65.283 176.146L63.6432 177.115C66.708 177.387 69.7877 177.452 72.8613 177.308L71.1147 175.575C71.1147 177.221 70.8527 178.877 70.8236 180.542C70.7945 182.208 70.8236 183.863 70.7654 185.509C71.2117 184.909 71.6678 184.318 72.1238 183.728C69.4263 184.183 66.3989 185.383 63.779 184.038L64.565 185.006C63.9122 182.116 63.4872 179.18 63.2939 176.224C63.1483 174.907 61.1398 174.849 61.1883 176.224Z" fill="#FFA9A2"/>
        <path d="M1.65967 100.97C-0.203356 104.572 -1.45508 111.776 3.31893 113.693C5.94851 114.749 8.45196 113.267 9.69397 110.982C10.509 109.462 11.2174 106.344 8.89831 105.696C4.48332 104.456 2.36801 108.6 2.10602 112.406C1.87314 116.705 3.88172 121.527 7.76302 123.676C9.39202 124.519 11.2512 124.811 13.061 124.509C14.8755 124.257 17.9126 123.289 18.7471 121.459C18.8101 121.343 18.8422 121.212 18.8404 121.08C18.8386 120.948 18.8029 120.818 18.7368 120.704C18.6706 120.589 18.5762 120.494 18.4626 120.426C18.3489 120.358 18.2197 120.32 18.0873 120.316C16.9035 120.239 15.6615 121.013 14.5553 121.372C13.4874 121.713 12.3667 121.861 11.2465 121.807C10.4045 121.712 9.58971 121.451 8.84877 121.041C8.10783 120.63 7.45529 120.078 6.92854 119.416C5.81901 118.04 5.05227 116.422 4.6913 114.693C4.33033 112.964 4.38542 111.175 4.85204 109.472C5.03578 108.831 5.39136 108.252 5.88042 107.799C6.36947 107.345 6.97345 107.033 7.62718 106.896C9.41258 106.499 9.40288 108.252 8.8692 109.365C8.35001 110.47 7.47566 111.37 6.38516 111.921C3.78469 113.2 2.01869 110.75 1.58204 108.571C1.16702 106.155 1.48463 103.67 2.49415 101.435C2.72703 100.903 1.97018 100.467 1.68878 100.97H1.65967Z" fill="#FFA9A2"/>
        <path d="M49.4863 100.603C49.4863 100.603 59.0926 99.5374 63.3523 108.765H70.1446C70.1446 108.765 65.4385 97.4073 53.3676 98.4723L49.4863 100.603Z" fill="#ED9498"/>
        <path d="M47.6621 101.309C47.6621 101.309 57.2586 100.244 61.5281 109.472H68.3204C68.3204 109.472 63.7016 98.114 51.6113 99.1791L47.6621 101.309Z" fill="#852438"/>
        <path d="M20.3093 122.563C17.2819 126.503 16.1272 131.79 15.8361 136.651C15.6605 139.329 15.8663 142.019 16.4474 144.639C16.8938 146.634 17.7574 149.335 19.8436 150.158C19.9753 150.194 20.1134 150.199 20.2473 150.172C20.3812 150.146 20.5073 150.09 20.616 150.008C20.7247 149.926 20.8131 149.82 20.8743 149.698C20.9355 149.576 20.9679 149.442 20.9692 149.306C20.8721 147.476 19.8727 145.607 19.4943 143.806C19.0393 141.45 18.8538 139.049 18.9412 136.651C19.0188 132.332 19.4749 127.201 21.9783 123.531C22.6866 122.485 21.008 121.594 20.3093 122.563Z" fill="white"/>
        <path d="M20.1926 158.911L20.4934 159.027C20.8436 159.127 21.2121 159.143 21.5698 159.076C21.9275 159.008 22.2646 158.859 22.5544 158.639C22.8443 158.419 23.0789 158.135 23.2399 157.809C23.4009 157.484 23.4838 157.125 23.482 156.762C23.4819 156.138 23.2342 155.539 22.7931 155.096C22.4962 154.804 22.1278 154.593 21.7245 154.486C21.3211 154.379 20.8968 154.379 20.4934 154.486L20.1926 154.602C19.7202 154.734 19.304 155.016 19.0078 155.406C18.7116 155.796 18.5518 156.272 18.5528 156.762C18.5502 157.156 18.6541 157.544 18.8536 157.885L19.2029 158.34C19.4741 158.607 19.8075 158.804 20.1732 158.911H20.1926Z" fill="white"/>
        <path d="M97.101 48.2194C97.0952 50.2811 96.4772 52.2948 95.325 54.0061C94.1727 55.7174 92.538 57.0495 90.6274 57.834C88.7168 58.6186 86.616 58.8204 84.5904 58.4139C82.5649 58.0075 80.7056 57.0111 79.2474 55.5505C77.7891 54.09 76.7975 52.2309 76.3977 50.2082C75.9979 48.1855 76.208 46.09 77.0013 44.1863C77.7946 42.2827 79.1355 40.6564 80.8547 39.513C82.5739 38.3696 84.5942 37.7603 86.6603 37.7622C88.0343 37.7635 89.3946 38.0351 90.6632 38.5616C91.9319 39.088 93.0841 39.8589 94.0539 40.8302C95.0236 41.8015 95.7919 42.9541 96.3148 44.2221C96.8377 45.49 97.1048 46.8484 97.101 48.2194Z" fill="#F19238"/>
        <path d="M95.9262 49.0522C95.9262 51.1147 95.3133 53.1309 94.165 54.8458C93.0167 56.5607 91.3846 57.8973 89.475 58.6866C87.5655 59.4759 85.4642 59.6824 83.437 59.28C81.4099 58.8776 79.5478 57.8845 78.0863 56.4261C76.6247 54.9676 75.6294 53.1095 75.2262 51.0866C74.823 49.0638 75.0299 46.967 75.8209 45.0615C76.6119 43.156 77.9513 41.5274 79.6699 40.3815C81.3884 39.2356 83.4089 38.624 85.4758 38.624C88.2474 38.624 90.9055 39.7227 92.8654 41.6784C94.8252 43.634 95.9262 46.2865 95.9262 49.0522Z" fill="#FDC65C"/>
        <path d="M93.8012 49.0522C93.8012 50.6953 93.3129 52.3015 92.3981 53.6677C91.4833 55.0339 90.183 56.0987 88.6618 56.7275C87.1405 57.3563 85.4666 57.5208 83.8516 57.2003C82.2366 56.8797 80.7532 56.0885 79.5888 54.9266C78.4245 53.7648 77.6316 52.2845 77.3104 50.673C76.9891 49.0614 77.154 47.391 77.7841 45.873C78.4143 44.3549 79.4813 43.0575 80.8504 42.1446C82.2195 41.2317 83.8292 40.7445 85.4758 40.7445C87.6838 40.7445 89.8014 41.6198 91.3627 43.1778C92.924 44.7358 93.8012 46.8489 93.8012 49.0522Z" fill="#FDA73A"/>
        <path d="M86.5234 50.438C86.5234 50.0786 86.3965 49.7759 86.1426 49.5298C85.8926 49.2837 85.4688 49.061 84.8711 48.8618C84.0391 48.6079 83.4316 48.2778 83.0488 47.8716C82.6699 47.4614 82.4805 46.9419 82.4805 46.313C82.4805 45.6724 82.666 45.147 83.0371 44.7368C83.4121 44.3267 83.9258 44.0825 84.5781 44.0044V42.7212H85.4512V44.0103C86.1074 44.1001 86.6172 44.3755 86.9805 44.8364C87.3477 45.2974 87.5312 45.9282 87.5312 46.729H86.4531C86.4531 46.1782 86.3223 45.7407 86.0605 45.4165C85.7988 45.0923 85.4453 44.9302 85 44.9302C84.5352 44.9302 84.1797 45.0513 83.9336 45.2935C83.6875 45.5317 83.5645 45.8657 83.5645 46.2954C83.5645 46.6938 83.6934 47.0122 83.9512 47.2505C84.2129 47.4849 84.6406 47.6997 85.2344 47.895C85.832 48.0864 86.2969 48.2993 86.6289 48.5337C86.9648 48.7642 87.2109 49.0337 87.3672 49.3423C87.5273 49.6509 87.6074 50.0122 87.6074 50.4263C87.6074 51.0864 87.4082 51.6177 87.0098 52.02C86.6152 52.4224 86.0605 52.6606 85.3457 52.7349V53.854H84.4785V52.7349C83.752 52.6685 83.1816 52.4106 82.7676 51.9614C82.3574 51.5083 82.1523 50.895 82.1523 50.1216H83.2363C83.2363 50.6646 83.3789 51.0825 83.6641 51.3755C83.9492 51.6685 84.3535 51.8149 84.877 51.8149C85.3887 51.8149 85.791 51.6919 86.084 51.4458C86.377 51.1997 86.5234 50.8638 86.5234 50.438Z" fill="#F3E898"/>
        <path d="M144.162 22.27C144.17 25.0202 143.359 27.7107 141.833 30.001C140.308 32.2912 138.135 34.0781 135.591 35.1354C133.047 36.1927 130.245 36.4729 127.541 35.9403C124.838 35.4078 122.353 34.0866 120.402 32.144C118.451 30.2014 117.122 27.7248 116.583 25.0278C116.043 22.3308 116.318 19.5348 117.372 16.9938C118.427 14.4528 120.213 12.2812 122.505 10.7539C124.797 9.22654 127.491 8.41228 130.247 8.41419C133.932 8.41674 137.465 9.87644 140.073 12.4735C142.681 15.0706 144.152 18.5933 144.162 22.27Z" fill="#F19238"/>
        <path d="M142.638 23.4126C142.638 26.1586 141.823 28.8431 140.295 31.127C138.767 33.4108 136.595 35.1918 134.054 36.2448C131.512 37.2979 128.715 37.5758 126.016 37.0436C123.316 36.5114 120.835 35.1929 118.885 33.2545C116.936 31.3162 115.606 28.8449 115.064 26.1528C114.521 23.4608 114.79 20.6686 115.836 18.1288C116.883 15.5891 118.66 13.4157 120.943 11.8832C123.227 10.3506 125.914 9.5276 128.666 9.51803C130.498 9.51166 132.314 9.86635 134.009 10.5618C135.704 11.2572 137.245 12.2796 138.543 13.5705C139.841 14.8614 140.871 16.3952 141.574 18.0842C142.277 19.7731 142.638 21.5839 142.638 23.4126Z" fill="#FDC65C"/>
        <path d="M139.727 23.4126C139.727 25.6027 139.075 27.7436 137.855 29.5643C136.635 31.3849 134.902 32.8034 132.873 33.6402C130.845 34.477 128.614 34.6944 126.461 34.265C124.309 33.8356 122.333 32.7787 120.783 31.228C119.233 29.6773 118.179 27.7026 117.754 25.5539C117.33 23.4051 117.554 21.179 118.398 19.1572C119.241 17.1354 120.668 15.409 122.495 14.1964C124.323 12.9838 126.47 12.3396 128.665 12.3454C131.601 12.3531 134.415 13.5225 136.488 15.5971C138.562 17.6718 139.727 20.4824 139.727 23.4126Z" fill="#FDA73A"/>
        <path d="M129.704 24.2274C129.704 23.7483 129.535 23.3446 129.196 23.0165C128.863 22.6884 128.298 22.3915 127.501 22.1259C126.392 21.7873 125.582 21.3472 125.071 20.8055C124.566 20.2587 124.313 19.566 124.313 18.7274C124.313 17.8733 124.561 17.1727 125.056 16.6259C125.556 16.079 126.241 15.7535 127.11 15.6493V13.9384H128.274V15.6571C129.149 15.7769 129.829 16.1441 130.313 16.7587C130.803 17.3733 131.048 18.2144 131.048 19.2821H129.61C129.61 18.5477 129.436 17.9644 129.087 17.5321C128.738 17.0998 128.267 16.8837 127.673 16.8837C127.053 16.8837 126.579 17.0451 126.251 17.368C125.923 17.6858 125.759 18.1311 125.759 18.704C125.759 19.2352 125.931 19.6597 126.274 19.9774C126.623 20.2899 127.194 20.5764 127.985 20.8368C128.782 21.092 129.402 21.3759 129.845 21.6884C130.293 21.9956 130.621 22.355 130.829 22.7665C131.043 23.1779 131.149 23.6597 131.149 24.2118C131.149 25.092 130.884 25.8003 130.353 26.3368C129.826 26.8733 129.087 27.191 128.134 27.2899V28.7821H126.978V27.2899C126.009 27.2014 125.248 26.8576 124.696 26.2587C124.149 25.6545 123.876 24.8368 123.876 23.8055H125.321C125.321 24.5295 125.511 25.0868 125.892 25.4774C126.272 25.868 126.811 26.0634 127.509 26.0634C128.191 26.0634 128.728 25.8993 129.118 25.5712C129.509 25.243 129.704 24.7951 129.704 24.2274Z" fill="#F3E898"/>
        <path d="M69.1645 82.3701C69.1626 84.1622 68.6283 85.9134 67.6292 87.4026C66.63 88.8917 65.2109 90.0518 63.5512 90.7363C61.8914 91.4207 60.0656 91.5988 58.3045 91.248C56.5433 90.8972 54.9259 90.0333 53.6567 88.7655C52.3875 87.4976 51.5235 85.8827 51.1738 84.125C50.8242 82.3672 51.0046 80.5454 51.6923 78.89C52.38 77.2345 53.5441 75.8196 55.0374 74.8242C56.5308 73.8288 58.2864 73.2975 60.0823 73.2975C61.2758 73.2975 62.4576 73.5322 63.5601 73.9883C64.6627 74.4443 65.6643 75.1128 66.5078 75.9554C67.3513 76.798 68.0201 77.7982 68.476 78.8989C68.9318 79.9996 69.1658 81.1791 69.1645 82.3701Z" fill="#F19238"/>
        <path d="M68.1458 83.0867C68.1458 84.8811 67.6126 86.6352 66.6136 88.1271C65.6145 89.6191 64.1946 90.782 62.5332 91.4687C60.8719 92.1554 59.0438 92.335 57.2801 91.985C55.5165 91.6349 53.8964 90.7708 52.6249 89.502C51.3534 88.2331 50.4874 86.6166 50.1366 84.8566C49.7858 83.0967 49.9659 81.2725 50.654 79.6147C51.3422 77.9569 52.5075 76.54 54.0027 75.543C55.4978 74.5461 57.2557 74.014 59.0539 74.014C61.4652 74.014 63.7778 74.9699 65.4829 76.6713C67.1879 78.3728 68.1458 80.6804 68.1458 83.0867Z" fill="#FDC65C"/>
        <path d="M66.2927 83.0866C66.2927 84.5153 65.8682 85.9118 65.0728 87.0997C64.2774 88.2875 63.1469 89.2133 61.8242 89.7601C60.5015 90.3068 59.046 90.4498 57.6419 90.1711C56.2377 89.8924 54.9479 89.2044 53.9356 88.1942C52.9232 87.1841 52.2338 85.897 51.9545 84.4958C51.6752 83.0947 51.8186 81.6423 52.3664 80.3224C52.9143 79.0026 53.8421 77.8744 55.0325 77.0807C56.2229 76.287 57.6224 75.8634 59.0541 75.8634C60.9739 75.8634 62.8151 76.6244 64.1726 77.979C65.5301 79.3337 66.2927 81.1709 66.2927 83.0866Z" fill="#FDA73A"/>
        <path d="M59.4883 83.6616C59.4883 83.3621 59.3825 83.1099 59.1709 82.9048C58.9626 82.6997 58.6094 82.5142 58.1113 82.3481C57.418 82.1366 56.9118 81.8615 56.5928 81.5229C56.277 81.1812 56.1191 80.7482 56.1191 80.2241C56.1191 79.6903 56.2738 79.2524 56.583 78.9106C56.8955 78.5688 57.3236 78.3654 57.8672 78.3003V77.231H58.5947V78.3052C59.1416 78.38 59.5664 78.6095 59.8691 78.9937C60.1751 79.3778 60.3281 79.9035 60.3281 80.5708H59.4297C59.4297 80.1118 59.3206 79.7472 59.1025 79.4771C58.8844 79.2069 58.5898 79.0718 58.2188 79.0718C57.8314 79.0718 57.5352 79.1727 57.3301 79.3745C57.125 79.5731 57.0225 79.8514 57.0225 80.2095C57.0225 80.5415 57.1299 80.8068 57.3447 81.0054C57.5628 81.2007 57.9193 81.3797 58.4141 81.5425C58.9121 81.702 59.2995 81.8794 59.5762 82.0747C59.8561 82.2668 60.0612 82.4914 60.1914 82.7485C60.3249 83.0057 60.3916 83.3068 60.3916 83.6519C60.3916 84.202 60.2256 84.6447 59.8936 84.98C59.5648 85.3153 59.1025 85.5138 58.5068 85.5757V86.5083H57.7842V85.5757C57.1787 85.5203 56.7035 85.3055 56.3584 84.9312C56.0166 84.5535 55.8457 84.0425 55.8457 83.3979H56.749C56.749 83.8504 56.8678 84.1987 57.1055 84.4429C57.3431 84.687 57.68 84.8091 58.1162 84.8091C58.5426 84.8091 58.8779 84.7065 59.1221 84.5015C59.3662 84.2964 59.4883 84.0164 59.4883 83.6616Z" fill="#F3E898"/>
        <path d="M42.8208 81.1307C42.6462 85.7203 41.6467 91.3652 43.044 95.7999C43.0862 95.9391 43.1723 96.0611 43.2893 96.1478C43.4064 96.2346 43.5483 96.2814 43.6941 96.2814C43.8399 96.2814 43.9819 96.2346 44.0989 96.1478C44.216 96.0611 44.302 95.9391 44.3443 95.7999C45.7512 91.3556 44.7421 85.7203 44.5674 81.1307C44.5674 80.8996 44.4754 80.6779 44.3117 80.5145C44.1479 80.3511 43.9257 80.2593 43.6941 80.2593C43.4625 80.2593 43.2404 80.3511 43.0766 80.5145C42.9129 80.6779 42.8208 80.8996 42.8208 81.1307Z" fill="#F6AE4B"/>
        <path d="M247.943 17.3319C247.768 21.9215 246.769 27.5664 248.166 32.0011C248.208 32.1403 248.294 32.2623 248.411 32.349C248.528 32.4357 248.67 32.4826 248.816 32.4826C248.962 32.4826 249.104 32.4357 249.221 32.349C249.338 32.2623 249.424 32.1403 249.466 32.0011C250.873 27.5567 249.864 21.9215 249.69 17.3319C249.69 17.1008 249.598 16.8791 249.434 16.7157C249.27 16.5523 249.048 16.4604 248.816 16.4604C248.585 16.4604 248.362 16.5523 248.199 16.7157C248.035 16.8791 247.943 17.1008 247.943 17.3319Z" fill="#F6AE4B"/>
        <path d="M39.6186 84.6649C39.6186 86.0205 39.3954 87.7052 39.8806 88.9833C39.8998 89.0415 39.9368 89.0921 39.9865 89.1279C40.0361 89.1638 40.0959 89.1831 40.1572 89.1831C40.2185 89.1831 40.2782 89.1638 40.3279 89.1279C40.3775 89.0921 40.4146 89.0415 40.4337 88.9833C40.9189 87.7052 40.6763 86.0205 40.6957 84.6649C40.6781 84.5348 40.6139 84.4154 40.5149 84.329C40.4158 84.2426 40.2887 84.1949 40.1572 84.1949C40.0256 84.1949 39.8985 84.2426 39.7995 84.329C39.7004 84.4154 39.6362 84.5348 39.6186 84.6649Z" fill="#F6AE4B"/>
        <path d="M255.603 54.9198C255.603 58.5986 254.51 62.1948 252.462 65.2536C250.414 68.3124 247.502 70.6964 244.096 72.1043C240.69 73.5121 236.943 73.8804 233.327 73.1627C229.711 72.445 226.39 70.6735 223.783 68.0722C221.176 65.4709 219.401 62.1566 218.681 58.5485C217.962 54.9404 218.331 51.2005 219.742 47.8018C221.153 44.403 223.542 41.498 226.607 39.4542C229.673 37.4103 233.277 36.3195 236.963 36.3195C241.907 36.3195 246.648 38.2791 250.144 41.7674C253.639 45.2556 255.603 49.9867 255.603 54.9198Z" fill="#F19238"/>
        <path d="M253.498 56.3916C253.492 60.0675 252.395 63.6593 250.345 66.7134C248.295 69.7676 245.384 72.1471 241.98 73.5516C238.575 74.9561 234.831 75.3226 231.218 74.6047C227.605 73.8869 224.286 72.1169 221.681 69.5184C219.075 66.9198 217.3 63.6091 216.579 60.0043C215.857 56.3996 216.223 52.6624 217.628 49.2646C219.034 45.8669 221.417 42.961 224.477 40.9138C227.536 38.8666 231.135 37.7699 234.819 37.7622C237.272 37.7571 239.703 38.2355 241.971 39.1697C244.239 40.104 246.299 41.4759 248.035 43.2067C249.77 44.9375 251.146 46.9931 252.083 49.2557C253.021 51.5183 253.502 53.9433 253.498 56.3916Z" fill="#FDC65C"/>
        <path d="M249.704 56.3916C249.704 59.32 248.834 62.1827 247.204 64.618C245.575 67.0534 243.258 68.9522 240.548 70.0746C237.837 71.197 234.854 71.4926 231.976 70.9242C229.097 70.3557 226.452 68.9486 224.374 66.8806C222.296 64.8127 220.879 62.1766 220.302 59.3054C219.725 56.4343 220.013 53.4568 221.131 50.7492C222.248 48.0415 224.145 45.7252 226.582 44.0927C229.018 42.4602 231.884 41.5849 234.819 41.5772C236.772 41.5721 238.706 41.9515 240.512 42.6937C242.318 43.436 243.959 44.5264 245.342 45.9025C246.724 47.2787 247.821 48.9135 248.57 50.7134C249.318 52.5133 249.704 54.4429 249.704 56.3916Z" fill="#FDA73A"/>
        <path d="M236.386 57.6946C236.386 57.0956 236.174 56.5911 235.751 56.1809C235.334 55.7708 234.628 55.3997 233.632 55.0676C232.245 54.6444 231.233 54.0943 230.595 53.4172C229.963 52.7336 229.647 51.8678 229.647 50.8196C229.647 49.7519 229.957 48.8762 230.575 48.1926C231.2 47.509 232.056 47.1021 233.144 46.9719V44.8333H234.599V46.9817C235.692 47.1314 236.542 47.5904 237.147 48.3586C237.759 49.1269 238.065 50.1783 238.065 51.5129H236.269C236.269 50.595 236.05 49.8658 235.614 49.3254C235.178 48.7851 234.589 48.5149 233.847 48.5149C233.072 48.5149 232.479 48.7167 232.069 49.1204C231.659 49.5175 231.454 50.0741 231.454 50.7903C231.454 51.4543 231.669 51.9849 232.099 52.3821C232.535 52.7727 233.248 53.1308 234.237 53.4563C235.233 53.7753 236.008 54.1301 236.562 54.5208C237.121 54.9049 237.532 55.3541 237.792 55.8684C238.059 56.3827 238.192 56.9849 238.192 57.675C238.192 58.7753 237.86 59.6607 237.196 60.3313C236.539 61.0019 235.614 61.399 234.423 61.5227V63.3879H232.978V61.5227C231.767 61.412 230.816 60.9823 230.126 60.2336C229.442 59.4784 229.101 58.4563 229.101 57.1672H230.907C230.907 58.0722 231.145 58.7688 231.62 59.2571C232.095 59.7454 232.769 59.9895 233.642 59.9895C234.494 59.9895 235.165 59.7844 235.653 59.3743C236.142 58.9641 236.386 58.4042 236.386 57.6946Z" fill="#F3E898"/>
        <path d="M205.477 21.05C205.481 24.452 204.473 27.7786 202.582 30.6091C200.691 33.4395 198.001 35.6467 194.852 36.9512C191.703 38.2557 188.238 38.599 184.894 37.9377C181.549 37.2763 178.477 35.6401 176.065 33.2359C173.653 30.8317 172.01 27.7677 171.343 24.4314C170.677 21.0951 171.017 17.6365 172.321 14.4931C173.624 11.3498 175.833 8.66292 178.668 6.7725C181.502 4.88209 184.835 3.87305 188.244 3.87305C192.811 3.87304 197.191 5.68214 200.422 8.90289C203.654 12.1236 205.472 16.4926 205.477 21.05Z" fill="#F19238"/>
        <path d="M203.535 22.4153C203.535 25.8165 202.525 29.1412 200.631 31.9691C198.737 34.797 196.046 37.0011 192.897 38.3027C189.748 39.6042 186.283 39.9448 182.94 39.2813C179.597 38.6177 176.527 36.9799 174.117 34.575C171.707 32.17 170.065 29.1059 169.4 25.7702C168.736 22.4344 169.077 18.9768 170.381 15.8346C171.685 12.6924 173.894 10.0067 176.728 8.1171C179.562 6.22754 182.894 5.21899 186.302 5.21899C190.873 5.21899 195.256 7.03075 198.488 10.2557C201.72 13.4806 203.535 17.8546 203.535 22.4153Z" fill="#FDC65C"/>
        <path d="M200.033 22.4153C200.033 25.1251 199.227 27.774 197.719 30.0271C196.21 32.2802 194.066 34.0363 191.557 35.0733C189.048 36.1103 186.287 36.3816 183.624 35.8529C180.96 35.3243 178.514 34.0194 176.594 32.1033C174.674 30.1872 173.366 27.7459 172.836 25.0882C172.306 22.4305 172.578 19.6757 173.617 17.1722C174.657 14.6686 176.416 12.5289 178.674 11.0234C180.932 9.5179 183.587 8.71436 186.302 8.71436C189.944 8.71436 193.436 10.1578 196.011 12.7273C198.586 15.2967 200.033 18.7816 200.033 22.4153Z" fill="#FDA73A"/>
        <path d="M188.004 24.1398C188.004 23.6007 187.813 23.1466 187.433 22.7775C187.058 22.4083 186.422 22.0743 185.525 21.7755C184.277 21.3947 183.366 20.8995 182.792 20.2902C182.224 19.6749 181.939 18.8956 181.939 17.9523C181.939 16.9913 182.218 16.2032 182.774 15.588C183.337 14.9728 184.107 14.6066 185.086 14.4894V12.5646H186.396V14.4982C187.38 14.6329 188.145 15.046 188.689 15.7374C189.24 16.4288 189.516 17.3751 189.516 18.5763H187.898C187.898 17.7501 187.702 17.0939 187.31 16.6075C186.917 16.1212 186.387 15.8781 185.719 15.8781C185.021 15.8781 184.488 16.0597 184.119 16.423C183.75 16.7804 183.565 17.2814 183.565 17.9259C183.565 18.5236 183.759 19.0011 184.146 19.3585C184.538 19.7101 185.18 20.0323 186.07 20.3253C186.967 20.6124 187.664 20.9318 188.162 21.2833C188.666 21.629 189.035 22.0333 189.27 22.4962C189.51 22.9591 189.63 23.5011 189.63 24.1222C189.63 25.1124 189.331 25.9093 188.733 26.5128C188.142 27.1163 187.31 27.4738 186.237 27.5851V29.2638H184.937V27.5851C183.847 27.4855 182.991 27.0988 182.37 26.4249C181.755 25.7452 181.447 24.8253 181.447 23.6652H183.073C183.073 24.4796 183.287 25.1066 183.715 25.546C184.143 25.9855 184.749 26.2052 185.534 26.2052C186.302 26.2052 186.905 26.0206 187.345 25.6515C187.784 25.2823 188.004 24.7784 188.004 24.1398Z" fill="#F3E898"/>
        <path d="M255.553 29.0866C255.553 35.0414 254.582 41.8967 255.844 47.7256C255.889 47.8811 255.983 48.0179 256.112 48.1152C256.242 48.2125 256.4 48.2651 256.562 48.2651C256.724 48.2651 256.882 48.2125 257.011 48.1152C257.141 48.0179 257.235 47.8811 257.28 47.7256C258.58 41.9161 257.61 35.0414 257.571 29.0866C257.571 28.8195 257.465 28.5634 257.275 28.3745C257.086 28.1857 256.829 28.0796 256.562 28.0796C256.294 28.0796 256.038 28.1857 255.848 28.3745C255.659 28.5634 255.553 28.8195 255.553 29.0866Z" fill="#F6AE4B"/>
        <path d="M272.745 81.1271C272.745 83.2766 272.386 85.9684 273.162 87.9049C273.193 87.9949 273.251 88.0731 273.328 88.1285C273.406 88.1838 273.499 88.2136 273.594 88.2136C273.689 88.2136 273.782 88.1838 273.86 88.1285C273.937 88.0731 273.995 87.9949 274.026 87.9049C274.802 85.8813 274.414 83.2185 274.443 81.1271C274.421 80.918 274.322 80.7246 274.165 80.584C274.008 80.4435 273.805 80.3657 273.594 80.3657C273.383 80.3657 273.18 80.4435 273.023 80.584C272.867 80.7246 272.767 80.918 272.745 81.1271Z" fill="#F6AE4B"/>
        <path d="M147.899 95.3985H141.819L140.699 98.4985H138.779L143.819 84.6385H145.919L150.939 98.4985H149.019L147.899 95.3985ZM147.379 93.9185L144.859 86.8785L142.339 93.9185H147.379ZM162.456 88.6385C162.456 89.7985 162.056 90.7652 161.256 91.5385C160.469 92.2985 159.262 92.6785 157.636 92.6785H154.956V98.4985H153.136V84.5585H157.636C159.209 84.5585 160.402 84.9385 161.216 85.6985C162.042 86.4585 162.456 87.4385 162.456 88.6385ZM157.636 91.1785C158.649 91.1785 159.396 90.9585 159.876 90.5185C160.356 90.0785 160.596 89.4519 160.596 88.6385C160.596 86.9185 159.609 86.0585 157.636 86.0585H154.956V91.1785H157.636ZM176.238 84.5585L170.978 98.4985H168.878L163.618 84.5585H165.558L169.938 96.5785L174.318 84.5585H176.238Z" fill="white"/>
        <path d="M287.098 185.906C309.795 183.429 326.17 163.062 323.672 140.415C321.175 117.768 300.75 101.416 278.053 103.892C255.356 106.369 238.981 126.736 241.478 149.383C243.976 172.031 264.4 188.382 287.098 185.906Z" fill="#F7931E"/>
        <path d="M274.869 125.156C277.788 124.596 280.751 124.319 283.719 124.328C287.368 123.98 291.018 124.977 294.017 127.141C295.03 127.941 295.842 128.977 296.388 130.164C296.933 131.35 297.196 132.653 297.155 133.965C297.065 135.847 296.409 137.653 295.277 139.135C294.146 140.616 292.596 141.7 290.84 142.238C293.016 142.686 294.974 143.895 296.381 145.659C297.789 147.423 298.56 149.634 298.563 151.916C298.588 153.36 298.314 154.792 297.76 156.119C297.205 157.445 296.382 158.635 295.345 159.609C291.614 162.425 286.995 163.708 282.392 163.207C279.878 163.223 277.366 163.085 274.869 162.794V125.156ZM279.737 140.955H284.162C289.23 140.955 292.207 138.184 292.207 134.462C292.207 129.995 288.909 128.175 284.162 128.175C282.718 128.12 281.272 128.245 279.857 128.547L279.737 140.955ZM279.737 159.402C281.066 159.63 282.413 159.727 283.759 159.692C288.788 159.692 293.414 157.789 293.414 152.164C293.414 146.539 288.989 144.719 283.719 144.719H279.696L279.737 159.402Z" fill="white"/>
        <path d="M239.175 187.031C262.167 184.522 278.755 163.89 276.225 140.948C273.695 118.006 253.005 101.442 230.013 103.951C207.02 106.46 190.432 127.091 192.962 150.033C195.492 172.975 216.182 189.54 239.175 187.031Z" fill="#8EC045"/>
        <path d="M228.107 150.689L223.969 162.789H218.92L232.08 124.26H238.039L251.406 162.789H245.902L241.763 150.689H228.107ZM240.77 146.808L236.963 135.699C236.094 133.18 235.515 130.909 234.977 128.679C234.439 130.95 233.818 133.304 233.073 135.658L229.266 146.808H240.77Z" fill="white"/>
    </g>
    <defs>
        <clipPath id="clip0">
            <rect width="327" height="200" fill="white"/>
        </clipPath>
    </defs>
</svg>