<svg width="233" height="233" viewBox="0 0 233 233" fill="none" xmlns="http://www.w3.org/2000/svg">
    <path d="M232.589 171C232.589 226.406 149.304 232 95.4249 232C41.5462 232 -12.5754 199.144 2.58872 146C17.5523 93.5602 64.7051 21 118.589 21C172.472 21 232.589 115.579 232.589 171Z" fill="#6BBFD6"/>
    <path d="M90.9773 107.734C90.9773 107.734 87.0864 139.516 83.3591 148.728L98.4 153.681C98.4 153.681 112.164 102.806 100.709 97.2447C92.65 98.0128 90.9773 107.734 90.9773 107.734Z" fill="#41486D"/>
    <path d="M95.4546 232.452C95.4546 232.452 103.536 232.452 128.423 232.452C153.309 232.452 155.086 227.205 155.086 227.205C155.086 227.205 149.568 209.249 151.855 173.492C154.941 125.111 157.859 104.018 145.741 95.1248L98.2273 102.108C95.0773 171.372 95.4546 232.452 95.4546 232.452Z" fill="#BDBDBD"/>
    <path d="M98.2273 102.118C101.518 108.876 114.986 114.931 118.868 114.931C122.75 114.931 146.482 101.09 145.741 95.1248C143.341 75.7176 146.25 71.069 148.264 55.1433C150.277 39.2175 148.427 34.6637 148.427 34.6637C149.096 19.5759 133.882 8.50316 118.796 11.4659C103.796 13.4609 96.2455 22.3939 96.5228 39.5517C96.7046 50.8339 94.5137 67.413 98.6091 92.7955C98.9864 95.1148 98.2273 102.118 98.2273 102.118Z" fill="#FFD0A4"/>
    <path style="mix-blend-mode:overlay" opacity="0.5" d="M118.868 114.931C122.75 114.931 146.482 101.09 145.741 95.1249C143.836 79.7128 145.286 73.6079 146.959 63.7721L146.918 60.0712C146.918 60.0712 138.032 72.745 138.032 79.249C138.032 85.753 135.814 111.265 118.486 111.265C106.164 111.265 100.586 104.442 98.3909 100.502C98.3 101.469 98.2318 102.118 98.2318 102.118C101.518 108.876 115 114.931 118.868 114.931Z" fill="url(#paint0_linear)"/>
    <path style="mix-blend-mode:overlay" opacity="0.74" d="M128.423 232.452C153.314 232.452 155.086 227.204 155.086 227.204C155.086 227.204 149.568 209.249 151.855 173.492C153.309 150.648 155.218 135.002 155.55 123.909L154.909 115.849C154.909 115.849 144 174.205 144.318 185.178C144.636 196.151 140.386 198.645 142.677 200.455C144.968 202.266 148.905 217.414 147.595 221.349C146.286 225.284 132.686 227.284 119.909 227.284C107.132 227.284 97.4636 222.252 95.9909 215.957C95.6136 214.351 95.8727 212.625 95.4545 210.984C95.7818 220.277 95.4545 232.452 95.4545 232.452C95.4545 232.452 103.536 232.452 128.423 232.452Z" fill="url(#paint1_linear)"/>
    <path d="M107.195 6.98685L107.523 6.927L107.195 6.98685Z" fill="#808080"/>
    <g style="mix-blend-mode:multiply" opacity="0.58">
        <g style="mix-blend-mode:multiply" opacity="0.58">
            <path d="M109.691 82.1118C111.882 83.668 118.191 83.3438 120.109 81.9622C120.109 81.9622 115.564 86.2865 109.691 82.1118Z" fill="#E0BFA1"/>
        </g>
    </g>
    <path d="M102.327 69.5429C103.464 67.3034 106.1 70.2811 110.545 70.8297C114.991 71.3784 133.168 65.6974 131.655 72.326C130.209 78.6255 116.495 82.481 111.973 81.3787C103.636 79.3388 101.809 70.5654 102.327 69.5579" fill="#261B14"/>
    <path d="M129.8 75.4632C127.527 75.4183 124.082 75.4632 122.345 75.9121C118.559 76.9096 118.114 77.553 117.614 77.8124C117.614 77.5231 118.345 76.9794 119.536 76.4956C119.209 76.1166 117.668 75.9969 115.495 76.3161C112.35 76.8148 109.05 78.4109 107.468 79.2638C108.835 80.2694 110.364 80.9819 111.973 81.3637C115.682 82.2714 125.564 79.8623 129.8 75.4632Z" fill="#FF6C6C"/>
    <path d="M110.909 69.887C108.255 69.5578 106.3 68.4157 104.868 68.0366C104.825 68.195 104.836 68.3655 104.9 68.5154C104.963 68.6654 105.075 68.7843 105.214 68.8496C106.807 69.8495 108.574 70.4715 110.4 70.6751C112.473 70.8048 124.4 70.8846 126.273 70.2811C126.769 70.1749 127.237 69.9505 127.646 69.6239C128.054 69.2973 128.392 68.8763 128.636 68.3907C123.823 67.7822 113.773 70.2511 110.909 69.887Z" fill="#E8807E"/>
    <path d="M104.877 68.5104C104.941 69.0549 105.035 69.5945 105.159 70.1264C105.242 70.3969 105.38 70.6431 105.563 70.8463C105.746 71.0494 105.968 71.2041 106.214 71.2985C106.706 71.4529 107.223 71.4819 107.727 71.3833C108.182 71.2835 108.386 72.1614 109.059 72.5255C109.818 72.9394 111.064 72.8497 111.568 72.7998C112.073 72.7499 113.009 73.3434 113.782 73.2986C115.014 73.2387 116.086 72.5654 116.264 72.6502C117.718 73.3235 119.345 72.7449 119.9 72.0367C121.3 72.73 123.35 72.1614 123.918 71.3982C124.695 71.6476 126.377 71.483 126.818 71.089C127.259 70.695 128 69.2835 126.468 68.8246C125.868 68.645 124.373 69.4979 123.955 69.6625C123.536 69.8271 122.186 69.2236 121.636 69.2486C120.45 69.3034 120.091 70.0466 119.668 70.1364C119.245 70.2261 118.759 69.6725 118.095 69.6376C116.209 69.483 115.995 70.3109 115.564 70.3309C114.927 70.2558 114.294 70.1426 113.668 69.9917C112.736 69.8421 111.568 70.4905 111.245 70.4905C110.923 70.4905 110.336 69.9568 109.427 69.8371C108.882 69.7673 108.086 70.1264 107.809 69.9817C107.245 69.6725 106.782 68.4206 104.854 68.5203" fill="white"/>
    <path d="M96.6181 35.1426C96.6181 35.1426 95.0999 28.8331 95.4227 25.1672C95.7454 21.5012 96.859 13.4261 96.859 13.4261L98.1363 15.5209L107.395 5.18139L107.236 9.73518L116.177 1.32589L115.382 5.18139C115.382 5.18139 123.364 1.85459 122.886 0.27348C122.409 -1.30763 124.482 4.48311 124.482 4.48311C124.482 4.48311 132.145 6.58294 134.223 3.95441C136.3 1.32589 137.577 5.18139 137.577 5.18139C137.577 5.18139 141.727 11.1367 146.036 10.0893C150.345 9.04188 150.986 10.2639 150.986 10.2639C150.986 10.2639 150.509 18.324 150.986 19.3764C151.464 20.4288 155.777 21.1271 155.777 21.1271C155.777 21.1271 156.259 20.9525 154.5 24.2794C152.741 27.6062 156.736 26.5587 155.618 30.938C154.5 35.3172 157.055 41.457 155 45.3076C152.945 49.1581 153.082 60.3754 151.164 63.004C149.245 65.6325 146.695 71.4133 145.736 70.8846C144.777 70.3559 140.386 46.7091 141.945 35.1426C141.945 35.1426 144.673 20.0597 120.704 20.0597C96.7363 20.0597 96.4181 32.5141 96.6181 35.1426Z" fill="#68452D"/>
    <path d="M145.709 67.1338C150.777 62.3655 152.609 52.1956 146.841 50.4299C141.073 48.6643 140.509 62.9591 140.509 62.9591C140.509 62.9591 137.141 75.1939 145.709 67.1338Z" fill="#FFD0A4"/>
    <path opacity="0.05" d="M142.441 60.6197C142.441 60.6197 142.959 59.3778 143.914 59.4526C144.868 59.5274 146.136 60.0561 147.482 56.7742C147.465 56.4474 147.376 56.13 147.222 55.8493C147.068 55.5687 146.855 55.3332 146.6 55.1632C145.764 54.7043 145.014 54.6644 144.327 55.8315C143.641 56.9987 142.182 59.0785 142.441 60.6197Z" fill="#1C1C1B"/>
    <path d="M143.805 47.6469C143.591 47.9661 145.659 35.0978 144.941 30.8932C144.223 26.6885 149.432 39.1079 143.805 47.6469Z" fill="#482E1E"/>
    <path d="M150.159 34.6638C150.159 34.6638 147.768 46.6344 145.986 48.4C146.973 47.8189 147.832 47.0079 148.502 46.0239C149.173 45.0399 149.639 43.9068 149.868 42.704C150.32 40.0537 150.418 37.3452 150.159 34.6638Z" fill="#482E1E"/>
    <path opacity="0.2" d="M96.6181 35.1426C96.6181 35.1426 95.0999 28.8331 95.4227 25.1672C95.6954 22.005 96.559 15.6107 96.7863 13.875C96.509 16.7379 97.4272 26.3792 97.8091 30.1349C97.0193 31.6609 96.6086 33.3877 96.6181 35.1426Z" fill="#3F280D"/>
    <path opacity="0.2" d="M115.382 5.18128C115.382 5.18128 123.364 1.85448 122.886 0.273376C122.957 0.38988 123.021 0.511525 123.077 0.637479C123.136 0.797086 123.205 0.986619 123.282 1.18613C123.623 2.32332 123.714 4.3234 121.086 5.96934C117.177 8.42329 113.023 12.1441 111.541 11.7501C115.3 7.93948 115.382 5.18128 115.382 5.18128Z" fill="#3F280D"/>
    <path d="M123.414 39.4621C125.055 38.8998 126.773 38.6534 128.491 38.7339C131.541 38.8286 134.818 40.9933 134.818 40.9933C134.818 40.9933 138.968 43.8213 138.277 44.2702C137.945 44.4847 132.686 41.4871 130.777 41.0332C128.868 40.5793 123.623 41.532 123.214 41.3225C122.805 41.113 122.173 39.9608 123.414 39.4621Z" fill="#68452D"/>
    <path d="M108.268 39.8061C107.359 39.3073 105.627 39.1377 104.118 39.0879C101.795 39.013 99.6409 40.6789 99.6409 40.6789C99.6409 40.6789 96.6046 43.2426 97.1546 43.7215C97.4182 43.9559 101.291 41.2874 102.727 40.9483C104.164 40.6091 108.205 41.8361 108.509 41.6565C108.639 41.536 108.739 41.3812 108.8 41.2065C108.861 41.0318 108.88 40.8431 108.856 40.6581C108.832 40.473 108.765 40.2978 108.662 40.1487C108.56 39.9997 108.424 39.8818 108.268 39.8061Z" fill="#68452D"/>
    <path d="M104.717 57.8548C107.836 57.7681 110.307 55.1798 110.235 52.0736C110.164 48.9673 107.577 46.5194 104.457 46.6061C101.338 46.6927 98.8674 49.2811 98.939 52.3873C99.0107 55.4936 101.598 57.9414 104.717 57.8548Z" fill="#57453F"/>
    <path d="M105.028 57.9457C108.04 57.862 110.425 55.3632 110.356 52.3643C110.286 49.3655 107.789 47.0022 104.778 47.0859C101.766 47.1695 99.3808 49.6684 99.45 52.6672C99.5191 55.6661 102.017 58.0293 105.028 57.9457Z" fill="white"/>
    <path d="M111.264 56.7244L111.568 61.328L99.3272 62.3256C99.3272 62.3256 99.2818 58.3654 99.05 58.1459C98.8182 57.9264 100.445 56.0112 105.091 55.652C109.736 55.2929 111.264 56.7244 111.264 56.7244Z" fill="#FFD0A4"/>
    <path opacity="0.05" d="M109.809 57.707C109.809 57.707 106.1 56.4002 103.609 57.3429C101.118 58.2856 98.2637 59.308 101.014 59.0986C103.764 58.8891 110.2 58.7045 109.809 57.707Z" fill="black"/>
    <path d="M134.507 53.2353C134.617 50.1084 132.178 47.4664 129.06 47.3344C125.942 47.2023 123.325 49.6302 123.215 52.7571C123.105 55.8841 125.544 58.526 128.662 58.6581C131.78 58.7901 134.397 56.3622 134.507 53.2353Z" fill="#57453F"/>
    <path d="M133.995 53.507C134.101 50.4901 131.746 47.9412 128.736 47.8137C125.726 47.6862 123.2 50.0285 123.094 53.0454C122.988 56.0622 125.342 58.6112 128.352 58.7386C131.362 58.8661 133.889 56.5238 133.995 53.507Z" fill="white"/>
    <path d="M128.65 55.8217C129.719 55.8217 130.586 54.8704 130.586 53.6969C130.586 52.5234 129.719 51.5721 128.65 51.5721C127.581 51.5721 126.714 52.5234 126.714 53.6969C126.714 54.8704 127.581 55.8217 128.65 55.8217Z" fill="#804F18"/>
    <path d="M132.913 53.3357C132.937 52.6448 132.074 52.0474 130.985 52.0013C129.897 51.9552 128.994 52.4779 128.97 53.1688C128.946 53.8597 129.809 54.4571 130.897 54.5032C131.986 54.5493 132.888 54.0266 132.913 53.3357Z" fill="white"/>
    <path d="M104.977 55.5972C106.222 55.5972 107.232 54.4896 107.232 53.1233C107.232 51.757 106.222 50.6494 104.977 50.6494C103.732 50.6494 102.723 51.757 102.723 53.1233C102.723 54.4896 103.732 55.5972 104.977 55.5972Z" fill="#804F18"/>
    <path d="M110.143 52.7078C110.172 51.9006 109.168 51.2013 107.901 51.1456C106.633 51.09 105.581 51.6991 105.552 52.5063C105.522 53.3134 106.526 54.0128 107.794 54.0684C109.062 54.124 110.113 53.5149 110.143 52.7078Z" fill="white"/>
    <path d="M122.145 57.4177L121.782 62.0164L134.014 63.1735C134.014 63.1735 134.109 59.2133 134.341 58.9988C134.573 58.7843 132.977 56.8441 128.332 56.4052C123.686 55.9663 122.145 57.4177 122.145 57.4177Z" fill="#FFD0A4"/>
    <path opacity="0.05" d="M123.591 58.4153C123.591 58.4153 127.314 57.1583 129.791 58.1409C132.268 59.1235 135.114 60.1809 132.364 59.9315C129.614 59.6821 123.182 59.4128 123.591 58.4153Z" fill="black"/>
    <path d="M148.727 106.871C139.805 106.871 150.859 123.829 155.186 157.122C156.046 163.711 159.191 178.435 159.064 185.552C161.068 194.351 168 189.916 168.014 187.163C168.086 173.956 161.555 106.871 148.727 106.871Z" fill="#FFD0A4"/>
    <path d="M159.064 185.567C156.123 202.186 153.313 229.019 153.313 229.019H156.5L159.064 228.312C159.064 228.312 166.818 195.079 168.014 187.178C168.4 179.372 160.4 178.09 159.064 185.567Z" fill="#FFD0A4"/>
    <path d="M143.382 116.452C143.382 116.452 152.291 149.87 152.291 160.843L169.218 158.499C169.218 158.499 162.446 101.349 148.832 101.349C141.141 105.993 143.382 116.452 143.382 116.452Z" fill="#41486D"/>
    <g opacity="0.06">
        <g opacity="0.06">
            <path opacity="0.06" d="M57.7955 173.572C55.9228 171.756 55.65 165.297 55.65 165.297L57.7955 173.572Z" fill="#020102"/>
        </g>
    </g>
    <path d="M55.55 165.152C55.55 165.152 53.3773 167.342 53.2 169.691L55.55 165.152Z" fill="#492113"/>
    <g opacity="0.06">
        <g opacity="0.06">
            <path opacity="0.06" d="M55.55 165.152C55.55 165.152 53.6 167.581 53.6454 169.936L55.55 165.152Z" fill="#020102"/>
        </g>
    </g>
    <path d="M58.1318 173.277C56.1682 171.587 55.55 165.157 55.55 165.157L58.1318 173.277Z" fill="#492113"/>
    <g style="mix-blend-mode:multiply" opacity="0.6">
        <g style="mix-blend-mode:multiply" opacity="0.6">
            <g style="mix-blend-mode:multiply" opacity="0.6">
                <g style="mix-blend-mode:multiply" opacity="0.6">
                    <path style="mix-blend-mode:multiply" opacity="0.6" d="M103.086 194.126H97.45V206.316H103.086V194.126Z" fill="url(#paint2_linear)"/>
                </g>
            </g>
        </g>
    </g>
    <path d="M31.4545 169.986C32.0937 169.43 32.8263 169.019 33.6105 168.775C34.3946 168.531 35.215 168.458 36.0246 168.562C36.8342 168.666 37.6173 168.944 38.3291 169.379C39.0408 169.815 39.6673 170.401 40.1727 171.103L52.85 188.699C53.1046 189.054 59.1864 197.333 59.3727 197.722L49.7 206.341C49.3546 206.052 30.4545 179.547 30.4545 179.547C29.4344 178.131 28.9685 176.328 29.1595 174.535C29.3504 172.742 30.1825 171.105 31.4727 169.986" fill="#D3A58E"/>
    <path d="M28.4046 148.753C29.0185 148.165 29.7319 147.715 30.5041 147.43C31.2763 147.145 32.0922 147.029 32.9052 147.09C33.7181 147.151 34.5122 147.386 35.2421 147.784C35.972 148.181 36.6234 148.732 37.1591 149.406L50.6046 166.3C50.8773 166.644 57.3227 174.584 57.5227 174.968L48.4682 183.841C48.1091 183.552 41.5636 175.642 41.2546 175.257L27.8136 158.359C26.7311 156.999 26.1852 155.223 26.296 153.422C26.4068 151.62 27.1653 149.941 28.4046 148.753Z" fill="#D3A58E"/>
    <path d="M28.9545 128.897C30.2688 127.666 31.9748 127.058 33.6973 127.207C35.4199 127.355 37.0182 128.248 38.1409 129.69L52.0864 147.601C52.3682 147.965 59.0546 156.384 59.2636 156.788L49.6636 165.995C49.2909 165.686 42.4955 157.297 42.1773 156.893L28.2318 138.982C27.6757 138.268 27.2532 137.44 26.9886 136.547C26.7239 135.653 26.6222 134.711 26.6893 133.775C26.7565 132.838 26.991 131.926 27.3797 131.089C27.7684 130.251 28.3035 129.507 28.9545 128.897Z" fill="#D3A58E"/>
    <path d="M39.6955 131.371C40.2525 132.097 40.9346 132.696 41.7028 133.133C42.4709 133.57 43.3101 133.836 44.1722 133.917C45.0343 133.998 45.9025 133.891 46.727 133.604C47.5516 133.316 48.3163 132.852 48.9775 132.24C49.6387 131.628 50.1834 130.878 50.5803 130.035C50.9773 129.191 51.2188 128.27 51.2909 127.324C51.3631 126.377 51.2646 125.425 51.0009 124.521C50.7373 123.616 50.3138 122.778 49.7546 122.053L35.7682 103.873C34.6413 102.413 33.0323 101.503 31.2947 101.344C29.5571 101.184 27.8327 101.788 26.5002 103.022C25.1678 104.256 24.3361 106.02 24.1877 107.927C24.0394 109.833 24.5866 111.726 25.7091 113.19L39.6955 131.371Z" fill="#F8D1B0"/>
    <path d="M86.2636 162.948C86.0366 164.847 86.5062 166.767 87.5692 168.286C88.6321 169.805 90.2014 170.798 91.9318 171.048C95.5364 171.572 94.5091 162.569 94.9818 158.609L102.136 141.241C102.278 140.287 102.243 139.311 102.034 138.372C101.825 137.432 101.447 136.548 100.921 135.772C100.395 134.997 99.7323 134.345 98.9724 133.855C98.2125 133.365 97.3707 133.048 96.497 132.922C95.6233 132.796 94.7354 132.864 93.886 133.122C93.0367 133.379 92.2431 133.822 91.5524 134.422C90.8617 135.023 90.2879 135.769 89.8651 136.618C89.4423 137.466 89.179 138.399 89.0909 139.361L86.2636 162.948Z" fill="#F8D1B0"/>
    <path d="M54.6 94.4765C54.627 94.6753 54.7241 94.8546 54.8702 94.9759C55.0164 95.0971 55.2001 95.1506 55.3818 95.1249L64.3954 93.7433C64.4909 93.7375 64.5843 93.7101 64.6696 93.6627C64.7549 93.6153 64.8303 93.549 64.891 93.4679C64.9518 93.3869 64.9965 93.2929 65.0225 93.1919C65.0484 93.0909 65.0549 92.9851 65.0417 92.8812C65.0284 92.7773 64.9957 92.6775 64.9454 92.5882C64.8952 92.4989 64.8287 92.422 64.75 92.3624C64.6713 92.3028 64.5822 92.2618 64.4883 92.2419C64.3944 92.222 64.2978 92.2238 64.2045 92.247L55.1909 93.6286C55.01 93.6571 54.8467 93.7625 54.7361 93.9221C54.6255 94.0817 54.5766 94.2826 54.6 94.4815" fill="#1E1D1D"/>
    <g style="mix-blend-mode:multiply">
        <g style="mix-blend-mode:multiply">
            <g style="mix-blend-mode:multiply">
                <g style="mix-blend-mode:multiply">
                    <path style="mix-blend-mode:multiply" d="M83.8085 172.634L81.8173 173.366L82.4959 175.589L84.4871 174.857L83.8085 172.634Z" fill="url(#paint3_linear)"/>
                </g>
            </g>
        </g>
    </g>
    <path d="M45.1364 204.815C45.3145 206.207 45.9888 207.466 47.0113 208.314C48.0339 209.162 49.3212 209.53 50.5909 209.339L98.0227 202.061C99.2915 201.865 100.438 201.125 101.21 200.003C101.983 198.881 102.319 197.469 102.145 196.076L87.9409 84.521C87.8538 83.8306 87.6436 83.1658 87.3223 82.5646C87.0011 81.9634 86.575 81.4374 86.0685 81.0169C85.562 80.5963 84.9849 80.2894 84.3703 80.1136C83.7557 79.9377 83.1155 79.8965 82.4864 79.9922L35.0591 87.2593C33.7895 87.4548 32.6423 88.1945 31.8687 89.3163C31.0951 90.4382 30.7582 91.8507 30.9318 93.2445L45.1364 204.815Z" fill="#303030"/>
    <path d="M68.6864 198.57C68.7316 198.925 68.84 199.266 69.0054 199.574C69.1709 199.883 69.3901 200.152 69.6505 200.368C69.911 200.583 70.2076 200.74 70.5234 200.829C70.8392 200.919 71.168 200.939 71.4909 200.889L73.95 200.515C74.273 200.466 74.584 200.347 74.865 200.165C75.1461 199.984 75.3918 199.743 75.5881 199.457C75.7844 199.171 75.9275 198.846 76.0091 198.5C76.0907 198.153 76.1092 197.792 76.0636 197.438L75.7227 194.74C75.6775 194.385 75.5691 194.044 75.4037 193.735C75.2383 193.427 75.019 193.157 74.7586 192.942C74.4981 192.727 74.2015 192.57 73.8857 192.48C73.5699 192.391 73.2412 192.37 72.9182 192.42L70.4591 192.794C70.1361 192.844 69.8252 192.963 69.5441 193.144C69.263 193.326 69.0173 193.566 68.821 193.852C68.6247 194.138 68.4816 194.464 68.4 194.81C68.3185 195.157 68.2999 195.517 68.3455 195.872L68.6864 198.57Z" fill="#4B4B4B"/>
    <path d="M85.4698 98.467L36.5581 105.962L47.3569 190.813L96.2686 183.318L85.4698 98.467Z" fill="#72B500"/>
    <path d="M44.1318 193.897C44.7216 194.514 45.4163 194.997 46.1764 195.319C46.9364 195.642 47.7469 195.797 48.5615 195.775C49.3761 195.754 50.1789 195.557 50.9241 195.195C51.6693 194.834 52.3423 194.314 52.9046 193.667C53.4669 193.02 53.9075 192.258 54.2013 191.424C54.4951 190.59 54.6363 189.7 54.6169 188.806C54.5975 187.913 54.4178 187.032 54.0881 186.214C53.7584 185.396 53.2852 184.658 52.6955 184.041L39.5455 170.459C38.3544 169.211 36.7601 168.532 35.1131 168.573C33.4662 168.614 31.9017 169.372 30.7637 170.679C29.6256 171.986 29.0074 173.735 29.0449 175.542C29.0824 177.349 29.7726 179.066 30.9637 180.315L44.1318 193.897Z" fill="#F8D1B0"/>
    <g style="mix-blend-mode:multiply" opacity="0.35">
        <g style="mix-blend-mode:multiply" opacity="0.35">
            <g style="mix-blend-mode:multiply" opacity="0.35">
                <path d="M41.2364 170.365C42.5207 171.482 44.1485 172.012 45.7804 171.845C47.4123 171.678 48.9226 170.827 49.9966 169.468C51.0706 168.11 51.6255 166.349 51.5457 164.553C51.4659 162.756 50.7575 161.063 49.5682 159.826L38.2818 149.087C37.6595 148.432 36.9224 147.922 36.1151 147.589C35.3078 147.256 34.4472 147.107 33.5856 147.15C32.7241 147.193 31.8795 147.428 31.1032 147.84C30.3269 148.253 29.6351 148.834 29.0698 149.548C28.5045 150.263 28.0775 151.096 27.8147 151.998C27.552 152.899 27.4589 153.85 27.5412 154.792C27.6236 155.734 27.8795 156.648 28.2936 157.478C28.7077 158.308 29.2712 159.037 29.95 159.621L41.2364 170.365Z" fill="#C2C0BF"/>
            </g>
        </g>
    </g>
    <path d="M39.7091 168.858C40.3328 169.507 41.0697 170.011 41.8755 170.338C42.6812 170.666 43.5392 170.812 44.3976 170.766C45.2559 170.72 46.0969 170.484 46.8698 170.071C47.6427 169.659 48.3315 169.079 48.8947 168.367C49.4578 167.655 49.8836 166.824 50.1464 165.927C50.4093 165.029 50.5036 164.082 50.4238 163.143C50.3441 162.204 50.0918 161.293 49.6823 160.463C49.2727 159.634 48.7144 158.905 48.041 158.319L36.7546 147.581C35.4702 146.463 33.8425 145.933 32.2106 146.1C30.5787 146.267 29.0684 147.118 27.9943 148.477C26.9203 149.835 26.3654 151.596 26.4452 153.393C26.525 155.189 27.2334 156.882 28.4228 158.12L39.7091 168.858Z" fill="#F8D1B0"/>
    <g style="mix-blend-mode:multiply" opacity="0.35">
        <g style="mix-blend-mode:multiply" opacity="0.35">
            <g style="mix-blend-mode:multiply" opacity="0.35">
                <path d="M36.75 147.336C37.2974 147.934 37.9467 148.408 38.661 148.731C39.3753 149.053 40.1405 149.219 40.9129 149.217C41.6853 149.215 42.4498 149.046 43.1628 148.72C43.8757 148.394 44.5232 147.917 45.0682 147.316C45.6132 146.716 46.045 146.003 46.339 145.219C46.6331 144.436 46.7835 143.596 46.7819 142.748C46.7802 141.901 46.6264 141.062 46.3292 140.28C46.0321 139.497 45.5974 138.787 45.05 138.189L39.4227 132.039C38.8803 131.418 38.2303 130.922 37.5108 130.581C36.7914 130.24 36.017 130.059 35.2331 130.051C34.4493 130.043 33.6719 130.206 32.9466 130.533C32.2212 130.859 31.5626 131.341 31.0094 131.95C30.4562 132.559 30.0195 133.284 29.7252 134.081C29.4308 134.878 29.2846 135.732 29.2951 136.592C29.3057 137.452 29.4728 138.301 29.7867 139.089C30.1005 139.877 30.5548 140.589 31.1227 141.181L36.75 147.336Z" fill="#C2C0BF"/>
            </g>
        </g>
    </g>
    <path d="M34.0909 144.289C35.1964 145.497 36.6938 146.173 38.2538 146.169C39.8138 146.165 41.3085 145.482 42.4091 144.269C43.5098 143.056 44.1262 141.413 44.1228 139.701C44.1194 137.989 43.4964 136.349 42.3909 135.141L36.7637 128.991C36.2213 128.37 35.5712 127.875 34.8518 127.533C34.1323 127.192 33.3579 127.012 32.5741 127.004C31.7903 126.995 31.0128 127.159 30.2875 127.485C29.5622 127.811 28.9035 128.293 28.3503 128.902C27.7971 129.512 27.3605 130.236 27.0661 131.033C26.7717 131.831 26.6255 132.684 26.6361 133.544C26.6466 134.404 26.8137 135.253 27.1276 136.042C27.4414 136.83 27.8957 137.541 28.4637 138.134L34.0909 144.289Z" fill="#F8D1B0"/>
    <path d="M42.1772 137.745L39.45 134.712C38.7695 133.957 37.8534 133.513 36.8863 133.47C36.1001 135.42 34.6736 136.973 32.8909 137.82C32.9222 138.881 33.3184 139.889 34 140.643L36.7273 143.675C37.2818 144.289 38.95 143.456 40.4545 141.82C41.9591 140.184 42.7272 138.358 42.1772 137.745Z" fill="#F6DDC9"/>
    <path d="M36.4682 143.391C37.3363 143.256 38.6227 142.393 39.8182 141.112C41.0136 139.83 41.7909 138.408 41.9182 137.461L42.1727 137.74C42.7272 138.353 41.9545 140.174 40.45 141.815C38.9454 143.456 37.2682 144.284 36.7227 143.67L36.4682 143.391Z" fill="#F9EAE1"/>
    <path d="M36.8682 133.465C36.3403 133.441 35.8135 133.537 35.3208 133.746C34.8281 133.956 34.3802 134.274 34.005 134.683C33.6299 135.091 33.3357 135.58 33.1409 136.119C32.946 136.658 32.8548 137.235 32.8728 137.815C34.6591 136.973 36.0873 135.419 36.8682 133.465Z" fill="#F9EAE1"/>
    <path d="M47.3909 161.466L44.0136 158.09C43.2002 157.269 42.1603 156.771 41.0591 156.673C40.7898 157.703 40.2969 158.646 39.6227 159.422C38.9793 160.215 38.174 160.83 37.2727 161.217C37.4642 162.412 38.0165 163.501 38.8409 164.309L42.2182 167.686C42.9 168.364 44.6136 167.527 46.0409 165.806C47.4682 164.085 48.0727 162.145 47.4045 161.461" fill="#F6DDC9"/>
    <path d="M41.9 167.372C42.8091 167.257 44.1182 166.374 45.2546 165.028C46.3909 163.681 47.0727 162.17 47.0727 161.147L47.3864 161.461C48.0682 162.145 47.4637 164.09 46.0227 165.806C44.5818 167.522 42.8818 168.369 42.2 167.686L41.9 167.372Z" fill="#F9EAE1"/>
    <path d="M41.0591 156.673C40.5151 156.605 39.964 156.679 39.4512 156.889C38.9383 157.1 38.4783 157.441 38.1088 157.884C37.7393 158.328 37.4709 158.861 37.3255 159.44C37.1802 160.02 37.1621 160.629 37.2727 161.217C38.1786 160.825 38.9859 160.201 39.6273 159.396C40.2967 158.628 40.7878 157.694 41.0591 156.673Z" fill="#F9EAE1"/>
    <path d="M51.6136 186.704L48.2364 183.328C47.4267 182.501 46.3882 181.995 45.2864 181.891C45.0179 182.92 44.5266 183.863 43.8545 184.639C43.2116 185.444 42.4028 186.068 41.4955 186.46C41.6898 187.653 42.2436 188.74 43.0682 189.547L46.4455 192.929C47.1273 193.607 48.8364 192.769 50.2636 191.049C51.6909 189.328 52.2955 187.388 51.6273 186.704" fill="#F6DDC9"/>
    <path d="M46.1272 192.61C47.0363 192.495 48.3454 191.612 49.4772 190.266C50.609 188.919 51.2954 187.408 51.2954 186.385L51.609 186.699C52.2909 187.378 51.6863 189.328 50.2454 191.044C48.8045 192.759 47.1045 193.602 46.4227 192.924L46.1272 192.61Z" fill="#F9EAE1"/>
    <path d="M45.2818 181.886C44.7353 181.817 44.1817 181.891 43.6666 182.103C43.1515 182.315 42.6897 182.658 42.3194 183.105C41.949 183.551 41.6808 184.087 41.5367 184.67C41.3927 185.253 41.377 185.864 41.4909 186.455C42.3982 186.063 43.2071 185.439 43.85 184.634C44.523 183.859 45.0143 182.916 45.2818 181.886Z" fill="#F9EAE1"/>
    <path d="M51.8785 145.848L54.4283 142.072L61.8784 148.278L77.4304 125.41L80.833 128.266L62.7281 154.887L51.8785 145.848Z" fill="white"/>
    <defs>
        <linearGradient id="paint0_linear" x1="125.136" y1="127.51" x2="121.106" y2="66.8948" gradientUnits="userSpaceOnUse">
            <stop stop-opacity="0"/>
            <stop offset="1"/>
        </linearGradient>
        <linearGradient id="paint1_linear" x1="-429107" y1="64289.4" x2="-432834" y2="32238.3" gradientUnits="userSpaceOnUse">
            <stop stop-opacity="0"/>
            <stop offset="1"/>
        </linearGradient>
        <linearGradient id="paint2_linear" x1="101.489" y1="202.969" x2="95.1001" y2="202.969" gradientUnits="userSpaceOnUse">
            <stop stop-color="#8E8E8E"/>
            <stop offset="1" stop-color="#E5E4E3"/>
        </linearGradient>
        <linearGradient id="paint3_linear" x1="86.1846" y1="161.781" x2="85.6401" y2="160.299" gradientUnits="userSpaceOnUse">
            <stop stop-color="#EECEAE"/>
            <stop offset="1" stop-color="#EECEAE"/>
        </linearGradient>
    </defs>
</svg>