<svg width="304" height="499" viewBox="0 0 304 499" fill="none" xmlns="http://www.w3.org/2000/svg">
    <path opacity="0.2" d="M200.18 484.029C220.245 484.029 237.028 485.694 241.218 487.922C247.309 487.511 254.35 487.295 261.823 487.295C285.107 487.295 303.963 489.458 303.963 492.291C303.963 495.124 285.107 497.308 261.823 497.308C241.758 497.308 224.975 495.643 220.785 493.394C214.694 493.805 207.653 494.043 200.18 494.043C176.896 494.043 158.04 491.88 158.04 489.025C158.04 486.17 176.896 484.029 200.18 484.029Z" fill="black"/>
    <path d="M269.513 492.81C269.651 493.817 269.57 494.843 269.275 495.816C265.515 497.745 261.38 498.83 257.158 498.995C252.32 499.125 242.881 496.443 242.6 495.686C242.216 494.878 241.982 494.005 241.909 493.113C242.06 492.767 243.529 490.279 243.529 490.279C246.611 487.502 250.443 485.697 254.545 485.089C260.463 484.613 267.547 490.171 269.513 492.81Z" fill="#131313"/>
    <path d="M247.006 482.299C247.006 482.299 243.313 486.624 243.119 488.614C243.045 490.066 243.168 491.521 243.486 492.94C247.464 494.585 251.758 495.324 256.056 495.102C260.363 495.132 264.64 494.4 268.692 492.94C269.275 488.982 267.828 484.289 264.674 483.38C261.521 482.472 257.612 473.929 257.612 473.929L249.512 474.707L247.006 482.299Z" fill="#00B7B1"/>
    <path d="M209.165 468.738C209.165 468.738 209.014 474.405 207.653 476.07C209.981 477.087 212.45 477.744 214.975 478.017C217.783 478.017 221.736 477.714 221.736 477.714C221.736 477.714 222.232 472.112 220.656 470.166C219.079 468.219 209.165 468.738 209.165 468.738Z" fill="white"/>
    <path d="M221.584 482.537C221.584 482.537 223.032 483.034 223.032 483.899C223.032 484.764 223.032 486.711 223.032 486.711C223.032 486.711 216.725 488.441 215.494 489.804C214.262 491.166 204.003 494.756 200.633 494.908C197.264 495.059 179.661 496.638 177.004 492.745C174.347 488.852 178.278 488.29 178.278 488.29L221.584 482.537Z" fill="#131313"/>
    <path d="M208.301 471.896C206.582 474.336 204.3 476.324 201.649 477.692C197.631 479.509 182.706 481.888 180.05 484.851C176.507 488.787 176.356 492.096 185.32 492.356C190.587 492.825 195.893 492.621 201.109 491.75C206.666 490.701 211.996 488.681 216.854 485.781C217.761 485.219 222.319 483.618 222.319 483.618C222.319 483.618 223.896 480.46 222.06 474.21C218.15 473.258 209.295 475.464 208.301 471.896Z" fill="#00B7B1"/>
    <path d="M207.178 151.913C200.871 145.209 197.048 164.371 177.306 189.178C173.397 194.066 165.535 205.918 160.546 210.416C155.945 217.597 163.872 219.954 165.772 218.202C174.952 209.789 216.228 161.581 207.178 151.913Z" fill="#FFD0A4"/>
    <path d="M165.816 209.984C159.142 195.515 142.424 164.371 142.424 164.371L135.944 163.506C135.944 163.506 154.131 207.41 157.435 214.115C161.41 220.365 168.818 216.515 165.816 209.984Z" fill="#FFD0A4"/>
    <path d="M130.35 158.164C131.053 160.058 132.092 161.809 133.417 163.333C139.292 170.275 148.537 164.176 139.422 149.599V149.491C137.823 146.593 129.076 137.25 128.147 137.834C127.964 137.936 127.806 138.076 127.682 138.246C127.559 138.415 127.474 138.61 127.433 138.815C127.392 139.021 127.396 139.233 127.444 139.437C127.493 139.641 127.585 139.832 127.715 139.996C125.555 137.704 123.395 135.93 123.028 136.19C122.078 136.774 121.927 138.028 123.525 139.348C125.285 141.345 126.895 143.471 128.341 145.706C125.015 142.397 120.825 138.829 120.307 139.218C119.788 139.607 119.507 141.056 121.149 142.289C123.343 144.454 125.379 146.774 127.24 149.231C124.022 146.095 120.501 143.046 119.983 143.435C119.097 144.106 119.054 145.36 120.76 146.528C124.21 150.19 127.414 154.077 130.35 158.164Z" fill="#FFD0A4"/>
    <path d="M196.832 154.076C196.832 154.076 180.222 182.322 172.792 189.373L186.356 200.619C186.356 200.619 220.742 158.683 211.131 148.431C202.405 145.641 196.832 154.076 196.832 154.076Z" fill="#434040"/>
    <path d="M260.528 276.23C238.799 256.202 216.962 263.686 193.571 274.543C193.571 275.429 193.139 276.511 195.45 284.535C196.054 293.64 196.594 381.038 196.594 381.038L208.647 470.036C214.111 473.107 214.824 469.301 221.908 471.009L211.109 381.925C211.109 381.925 212.837 323.357 213.096 298.96C214.306 298.96 230.008 300.258 234.695 300.15C236.639 317.106 236.855 349.894 237.287 380.605L247.093 477.325C249.62 474.383 257.331 474.859 260.873 477.325L253.486 379.567C253.486 379.567 256.273 319.572 255.279 297.382C257.417 293.164 261.046 288.882 260.528 276.23Z" fill="#006A83"/>
    <path d="M211.13 465.17C211.13 465.17 211.13 464.434 210.893 463.266" stroke="#00ACE4" stroke-width="0.35" stroke-miterlimit="10"/>
    <path d="M210.375 459.438C207.826 440.471 199.575 380.886 199.575 380.886L198.517 299.609" stroke="#00ACE4" stroke-width="0.35" stroke-miterlimit="10" stroke-dasharray="1.79 1.79"/>
    <path d="M198.517 297.663L198.495 295.759" stroke="#00ACE4" stroke-width="0.35" stroke-miterlimit="10"/>
    <path d="M245.603 298.766C245.603 298.766 245.019 373.014 244.199 376.063C243.378 379.113 250.484 471.225 250.484 471.225" stroke="#00ACE4" stroke-width="0.35" stroke-miterlimit="10" stroke-dasharray="1.76 1.76"/>
    <path d="M194.046 271.666C199.553 273.569 216.876 279.236 228.345 279.236C239.339 279.236 254.134 275.97 259.707 274.629C260.885 276.831 261.501 279.29 261.5 281.788V281.961C257.374 284.124 246.834 287.822 227.308 287.346C206.422 286.827 198.322 282.242 194.24 280.404C193.808 277.246 193.722 274.997 193.657 274.543C193.651 273.57 193.782 272.602 194.046 271.666Z" fill="#FFA45D"/>
    <path d="M254.141 287.832L257.841 287.308L256.441 277.393L252.741 277.917L254.141 287.832Z" fill="#4C4C4C"/>
    <path d="M241.443 289.113L245.174 288.915L244.646 278.915L240.914 279.113L241.443 289.113Z" fill="#4C4C4C"/>
    <path d="M195.475 283.883L199.19 284.283L200.26 274.327L196.545 273.927L195.475 283.883Z" fill="#4C4C4C"/>
    <path d="M204.155 287.84L207.87 288.24L208.94 278.284L205.225 277.884L204.155 287.84Z" fill="#4C4C4C"/>
    <path d="M213.056 289.468L229.87 290.08L230.251 279.597L213.436 278.986L213.056 289.468Z" fill="#4C4C4C"/>
    <path d="M193.657 274.543C193.657 274.543 202.75 281.593 230.656 281.593C258.562 281.593 260.528 276.23 260.528 276.23C260.528 276.23 254.35 257.868 256.899 221.295C260.355 171.811 263.638 150.248 250.052 141.272L196.81 148.41C193.29 219.132 193.657 274.543 193.657 274.543Z" fill="#434040"/>
    <path d="M196.81 148.301C200.504 155.222 215.601 161.408 219.943 161.408C224.284 161.408 250.894 147.263 250.052 141.164C247.374 121.31 250.635 116.574 252.881 100.266C255.128 83.9589 253.054 79.3305 253.054 79.3305C253.81 63.91 236.79 52.577 219.857 55.54C203.031 57.6379 194.586 66.7864 194.91 84.3482C195.104 95.8974 192.75 112.854 197.242 138.807C197.365 141.978 197.22 145.154 196.81 148.301Z" fill="#FFD0A4"/>
    <path style="mix-blend-mode:overlay" opacity="0.5" d="M219.943 161.408C224.263 161.408 250.894 147.263 250.052 141.164C247.892 125.398 249.534 119.147 251.413 109.112V105.327C251.413 105.327 241.456 118.304 241.456 124.922C241.456 131.54 238.929 157.666 219.511 157.666C205.709 157.666 199.445 150.681 196.983 146.658C196.983 147.653 196.81 148.302 196.81 148.302C200.504 155.222 215.602 161.408 219.943 161.408Z" fill="url(#paint0_linear)"/>
    <path style="mix-blend-mode:overlay" opacity="0.74" d="M230.656 281.593C258.541 281.593 260.528 276.23 260.528 276.23C260.528 276.23 254.35 257.868 256.899 221.295C258.541 197.937 260.679 181.933 261.046 170.6L260.333 162.359C260.333 162.359 248.087 222.03 248.454 233.255C248.821 244.48 244.134 247.032 246.618 248.87C249.102 250.709 253.594 266.173 252.126 270.239C250.657 274.305 235.43 276.294 221.109 276.294C206.789 276.294 195.968 271.147 194.391 264.724C193.981 263.08 193.506 261.35 193.031 259.663C193.398 269.157 193.743 274.543 193.743 274.543C193.743 274.543 202.75 281.593 230.656 281.593Z" fill="url(#paint1_linear)"/>
    <g style="mix-blend-mode:multiply" opacity="0.58">
        <g style="mix-blend-mode:multiply" opacity="0.58">
            <path d="M209.662 127.863C212.124 129.442 219.187 129.118 221.325 127.712C219.658 128.994 217.621 129.702 215.519 129.729C213.417 129.756 211.362 129.102 209.662 127.863Z" fill="#E0BFA1"/>
        </g>
    </g>
    <path d="M201.411 114.995C202.685 112.702 205.731 115.752 210.612 116.314C215.494 116.876 235.969 111.058 234.263 117.828C232.557 124.597 217.286 128.231 212.21 127.085C202.88 124.922 200.828 116.033 201.411 114.995Z" fill="#261B14"/>
    <path d="M232.19 121.115C229.394 120.986 226.593 121.146 223.831 121.591C221.964 121.902 220.17 122.555 218.539 123.516C218.539 123.235 219.36 122.673 220.699 122.175C219.239 121.66 217.658 121.6 216.163 122.002C213.033 122.568 210 123.58 207.156 125.008C208.687 126.047 210.403 126.782 212.21 127.171C216.379 128.015 227.438 125.441 232.19 121.115Z" fill="#FF6C6C"/>
    <path d="M211.023 115.341C208.715 114.928 206.451 114.298 204.262 113.459C204.217 113.62 204.231 113.792 204.303 113.943C204.374 114.094 204.498 114.214 204.651 114.281C206.434 115.307 208.414 115.941 210.461 116.141C216.389 116.392 222.326 116.262 228.237 115.752C228.792 115.64 229.315 115.408 229.771 115.072C230.226 114.735 230.602 114.303 230.872 113.805C225.494 113.178 214.219 115.708 211.023 115.341Z" fill="#E8807E"/>
    <path d="M204.262 113.957C204.333 114.511 204.441 115.06 204.586 115.6C204.674 115.88 204.827 116.134 205.034 116.341C205.241 116.548 205.495 116.702 205.774 116.79C206.327 116.931 206.906 116.931 207.459 116.79C207.977 116.79 208.193 117.59 208.949 117.958C209.852 118.263 210.812 118.359 211.757 118.239C212.318 118.239 213.377 118.779 214.241 118.736C215.186 118.597 216.118 118.38 217.027 118.087C217.699 118.372 218.436 118.465 219.157 118.354C219.878 118.243 220.554 117.934 221.109 117.46C221.85 117.752 222.654 117.846 223.442 117.732C224.229 117.619 224.974 117.301 225.602 116.811C226.714 117.093 227.888 117.01 228.95 116.573C229.382 116.227 230.267 114.735 228.561 114.259C227.87 114.065 226.207 114.951 225.731 115.124C225.256 115.297 223.744 114.67 223.14 114.692C221.8 114.692 221.412 115.514 220.98 115.6C220.548 115.687 219.965 115.124 219.209 115.06C217.049 114.908 216.854 115.752 216.379 115.773C215.653 115.703 214.931 115.588 214.219 115.427C213.295 115.454 212.383 115.637 211.519 115.968C210.859 115.697 210.18 115.473 209.489 115.297C208.884 115.297 207.999 115.6 207.675 115.449C207.351 115.297 206.53 113.848 204.37 113.957" fill="white"/>
    <path d="M195.018 79.8281C194.118 76.5001 193.66 73.0677 193.657 69.6198C194.024 65.8566 195.277 57.6164 195.277 57.6164L196.702 59.7792L207.092 49.2032L206.919 53.8532L216.919 45.2021L215.99 49.1816C215.99 49.1816 224.932 45.786 224.392 44.164C223.852 42.5419 226.185 48.4895 226.185 48.4895C226.185 48.4895 234.825 50.6523 237.114 47.9488C239.404 45.2454 240.851 49.2032 240.851 49.2032C240.851 49.2032 245.516 55.3023 250.354 54.2209C255.193 53.1395 255.884 54.4155 255.884 54.4155C255.623 57.51 255.623 60.621 255.884 63.7154C256.424 64.7968 261.262 65.5106 261.262 65.5106C261.262 65.5106 261.802 65.3375 259.836 68.7331C257.871 72.1286 262.342 71.0689 261.089 75.5458C259.836 80.0228 262.687 86.3597 260.355 90.2311C258.022 94.1024 258.195 105.652 256.035 108.334C253.875 111.015 251.024 116.985 249.944 116.401C248.864 115.817 243.939 91.6801 245.624 79.8498C245.624 79.8498 248.67 64.4292 221.865 64.4292C195.061 64.4292 194.78 77.1463 195.018 79.8281Z" fill="#68452D"/>
    <path d="M250.009 112.464C255.689 107.576 257.763 97.1735 251.283 95.3784C244.803 93.5833 244.199 108.182 244.199 108.182C244.199 108.182 240.419 120.791 250.009 112.464Z" fill="#FFD0A4"/>
    <path opacity="0.05" d="M246.359 105.976C246.359 105.976 246.942 104.7 248 104.765C249.058 104.83 250.506 105.392 251.996 102.04C251.974 101.706 251.874 101.381 251.706 101.093C251.537 100.804 251.304 100.558 251.024 100.374C250.818 100.227 250.583 100.128 250.334 100.083C250.085 100.039 249.83 100.05 249.586 100.116C249.342 100.182 249.116 100.302 248.924 100.466C248.732 100.631 248.579 100.836 248.475 101.066C247.698 102.191 246.056 104.311 246.359 105.976Z" fill="#1C1C1B"/>
    <path d="M247.892 92.6101C247.654 92.9345 250.052 79.7849 249.166 75.4809C248.281 71.177 254.199 83.8725 247.892 92.6101Z" fill="#482E1E"/>
    <path d="M254.998 79.3306C254.998 79.3306 252.32 91.5935 250.333 93.3886C251.433 92.7872 252.389 91.9534 253.135 90.9451C253.881 89.9367 254.399 88.7779 254.653 87.5491C255.164 84.8408 255.281 82.0724 254.998 79.3306Z" fill="#482E1E"/>
    <path opacity="0.2" d="M195.018 79.8279C194.118 76.4999 193.66 73.0675 193.657 69.6197C193.981 66.3755 194.953 59.8439 195.212 58.0704C195.259 63.6324 195.641 69.1864 196.357 74.7022C195.458 76.259 194.995 78.0298 195.018 79.8279Z" fill="#3F280D"/>
    <path opacity="0.2" d="M215.99 49.1816C215.99 49.1816 224.932 45.786 224.392 44.1639C224.473 44.2813 224.545 44.4041 224.608 44.5316L224.846 45.0939C225.235 46.2618 225.321 48.3165 222.384 50.0034C218.064 52.5123 213.355 56.3187 211.584 55.9078C215.99 52.0148 215.99 49.1816 215.99 49.1816Z" fill="#3F280D"/>
    <path d="M225.04 84.3483C226.88 83.7884 228.8 83.5399 230.721 83.6129C233.227 83.8675 235.65 84.6566 237.827 85.9271C237.827 85.9271 242.471 88.8252 241.693 89.2794C241.326 89.4957 235.43 86.4245 233.291 85.9703C231.153 85.5162 225.278 86.4678 224.803 86.2515C224.615 86.1576 224.46 86.0075 224.361 85.822C224.261 85.6364 224.222 85.4245 224.248 85.2156C224.274 85.0067 224.365 84.811 224.506 84.6557C224.648 84.5003 224.835 84.3929 225.04 84.3483Z" fill="#68452D"/>
    <path d="M208.063 84.586C206.572 84.0668 204.998 83.8249 203.42 83.8723C201.622 83.9243 199.877 84.4868 198.387 85.4944C198.387 85.4944 194.996 88.1113 195.601 88.6736C196.206 89.236 200.245 86.1648 201.843 85.8188C204.018 85.9021 206.184 86.1479 208.323 86.5541C208.488 86.4355 208.619 86.2741 208.7 86.087C208.781 85.9 208.81 85.6943 208.783 85.4922C208.756 85.29 208.675 85.0989 208.549 84.9392C208.422 84.7796 208.254 84.6575 208.063 84.586Z" fill="#68452D"/>
    <path d="M204.093 103.076C207.587 102.988 210.355 100.341 210.274 97.1649C210.194 93.9887 207.297 91.4856 203.803 91.5741C200.309 91.6627 197.541 94.3094 197.621 97.4856C197.702 100.662 200.599 103.165 204.093 103.076Z" fill="#57453F"/>
    <path d="M204.462 103.154C207.837 103.068 210.51 100.511 210.433 97.4422C210.355 94.3734 207.556 91.955 204.182 92.0406C200.807 92.1261 198.134 94.6832 198.211 97.752C198.289 100.821 201.088 103.239 204.462 103.154Z" fill="white"/>
    <path d="M211.411 101.888L211.67 106.603L197.955 107.598C197.98 106.15 197.878 104.703 197.653 103.272C197.393 103.035 199.208 101.11 204.413 100.699C209.619 100.288 211.411 101.888 211.411 101.888Z" fill="#FFD0A4"/>
    <path opacity="0.05" d="M209.791 102.905C207.546 102.172 205.147 102.045 202.836 102.537C200.05 103.489 196.853 104.527 199.942 104.311C203.031 104.094 210.223 103.921 209.791 102.905Z" fill="black"/>
    <path d="M237.46 98.3385C237.583 95.1397 234.852 92.4371 231.359 92.3022C227.866 92.1672 224.935 94.6509 224.812 97.8497C224.689 101.049 227.42 103.751 230.913 103.886C234.405 104.021 237.336 101.537 237.46 98.3385Z" fill="#57453F"/>
    <path d="M236.905 98.6226C237.025 95.5313 234.387 92.9195 231.013 92.7892C227.64 92.6588 224.809 95.0592 224.689 98.1506C224.57 101.242 227.208 103.854 230.582 103.984C233.955 104.114 236.786 101.714 236.905 98.6226Z" fill="white"/>
    <path d="M227.654 100.98C228.859 100.98 229.835 100.002 229.835 98.7955C229.835 97.5891 228.859 96.6111 227.654 96.6111C226.449 96.6111 225.472 97.5891 225.472 98.7955C225.472 100.002 226.449 100.98 227.654 100.98Z" fill="#804F18"/>
    <path d="M232.416 98.448C232.443 97.7438 231.479 97.1348 230.263 97.0878C229.048 97.0408 228.04 97.5736 228.013 98.2778C227.986 98.982 228.949 99.591 230.165 99.638C231.381 99.685 232.389 99.1522 232.416 98.448Z" fill="white"/>
    <path d="M201.303 100.742C202.508 100.742 203.484 99.7641 203.484 98.5577C203.484 97.3513 202.508 96.3733 201.303 96.3733C200.098 96.3733 199.121 97.3513 199.121 98.5577C199.121 99.7641 200.098 100.742 201.303 100.742Z" fill="#804F18"/>
    <path d="M206.412 98.1581C206.441 97.4533 205.477 96.8425 204.26 96.7938C203.044 96.7451 202.034 97.2769 202.006 97.9816C201.978 98.6863 202.942 99.2971 204.158 99.3459C205.375 99.3946 206.384 98.8628 206.412 98.1581Z" fill="white"/>
    <path d="M223.615 102.58L223.204 107.295L236.92 108.485C236.92 107.035 237.043 105.588 237.287 104.159C237.546 103.943 235.754 101.996 230.548 101.521C225.343 101.045 223.615 102.58 223.615 102.58Z" fill="#FFD0A4"/>
    <path opacity="0.05" d="M225.235 103.619C227.489 102.922 229.886 102.825 232.19 103.337C234.954 104.332 238.151 105.5 235.062 105.176C231.974 104.851 224.781 104.635 225.235 103.619Z" fill="black"/>
    <path d="M253.4 153.168C243.4 153.168 255.797 170.47 260.636 204.555C261.608 211.303 265.128 226.356 264.955 233.645C267.115 242.642 274.977 238.1 274.999 235.288C275.085 221.771 267.828 153.168 253.4 153.168Z" fill="#FFD0A4"/>
    <path d="M264.977 233.58C261.694 250.579 256.597 288.752 256.597 288.752L261.759 293.64C261.759 293.64 273.66 243.291 275.021 235.245C275.452 227.308 266.489 225.988 264.977 233.58Z" fill="#FFD0A4"/>
    <path d="M264.07 301.469C264.547 299.339 264.627 297.14 264.307 294.981C262.99 285.205 250.938 285.313 250.786 304.021C250.527 307.633 253.076 321.324 254.285 321.324C254.508 321.334 254.731 321.296 254.938 321.213C255.145 321.129 255.332 321.002 255.486 320.84C255.639 320.678 255.756 320.485 255.829 320.273C255.901 320.062 255.927 319.837 255.905 319.615C256.618 323.01 257.439 325.822 258.065 325.822C259.275 325.822 260.225 324.806 259.469 322.643C259.022 319.78 258.784 316.889 258.756 313.992C259.88 318.966 261.608 324.697 262.32 324.633C263.422 324.633 264.135 323.421 263.335 321.345C262.619 318.109 262.121 314.829 261.845 311.526C262.925 316.284 264.372 321.129 265.085 321.086C266.273 321.086 267.051 319.874 266.187 317.798C265.121 312.408 264.414 306.953 264.07 301.469Z" fill="#FFD0A4"/>
    <path d="M247.417 162.965C247.417 162.965 257.396 197.159 257.396 208.383L276.468 205.961C276.468 205.961 268.886 147.566 253.637 147.566C244.89 152.281 247.417 162.965 247.417 162.965Z" fill="#434040"/>
    <path opacity="0.5" d="M213.83 91.7449C210.123 90.1812 206.084 89.5715 202.08 89.9714C197.242 90.5554 192.707 92.1342 192.75 92.5235C192.793 92.9128 191.713 100.482 194.91 105.111C195.94 106.304 197.24 107.232 198.702 107.819C200.163 108.406 201.744 108.634 203.312 108.485C206.638 108.268 210.051 107.468 211.649 104.765C214.414 99.8337 213.83 91.7449 213.83 91.7449Z" fill="white"/>
    <path d="M213.83 91.7449C210.123 90.1812 206.084 89.5715 202.08 89.9714C197.242 90.5554 192.707 92.1342 192.75 92.5235C192.793 92.9128 191.713 100.482 194.91 105.111C195.94 106.304 197.24 107.232 198.702 107.819C200.163 108.406 201.744 108.634 203.312 108.485C206.638 108.268 210.051 107.468 211.649 104.765C214.414 99.8337 213.83 91.7449 213.83 91.7449Z" stroke="#4C4C4C" stroke-width="0.48" stroke-miterlimit="10"/>
    <path d="M240.549 92.3721L248.151 95.5082" stroke="#4C4C4C" stroke-width="0.48" stroke-miterlimit="10"/>
    <path d="M217.74 91.4636C217.112 91.1665 216.419 91.0362 215.727 91.0855C215.034 91.1347 214.366 91.3618 213.787 91.7448" stroke="#4C4C4C" stroke-width="0.48" stroke-miterlimit="10"/>
    <path opacity="0.5" d="M240.549 92.372C236.639 90.5106 232.349 89.5921 228.021 89.6902C222.751 89.8632 217.74 91.0311 217.74 91.4637C217.74 91.8962 215.926 99.3362 218.906 104.202C219.973 105.478 221.314 106.494 222.829 107.176C224.344 107.858 225.994 108.187 227.654 108.139C231.283 108.139 235.019 107.663 236.963 105.089C240.505 100.482 240.549 92.372 240.549 92.372Z" fill="white"/>
    <path d="M240.549 92.372C236.639 90.5106 232.349 89.5921 228.021 89.6902C222.751 89.8632 217.74 91.0311 217.74 91.4637C217.74 91.8962 215.926 99.3362 218.906 104.202C219.973 105.478 221.314 106.494 222.829 107.176C224.344 107.858 225.994 108.187 227.654 108.139C231.283 108.139 235.019 107.663 236.963 105.089C240.505 100.482 240.549 92.372 240.549 92.372Z" stroke="#4C4C4C" stroke-width="0.5" stroke-miterlimit="10"/>
    <path d="M240.268 200.619C240.268 204.306 239.176 207.911 237.13 210.977C235.084 214.042 232.176 216.432 228.774 217.843C225.372 219.254 221.629 219.623 218.017 218.904C214.406 218.185 211.088 216.409 208.484 213.802C205.88 211.194 204.107 207.873 203.389 204.256C202.67 200.64 203.039 196.891 204.448 193.485C205.857 190.078 208.244 187.166 211.306 185.118C214.367 183.069 217.967 181.976 221.649 181.976C226.587 181.976 231.323 183.94 234.815 187.436C238.306 190.933 240.268 195.675 240.268 200.619Z" fill="#80BC00"/>
    <path d="M224.22 213.012C222.148 209.77 220.957 206.042 220.764 202.198C220.698 201.549 220.763 200.894 220.953 200.271C221.143 199.647 221.455 199.068 221.872 198.567C222.288 198.065 222.8 197.652 223.377 197.351C223.954 197.05 224.586 196.867 225.235 196.813C226.336 196.813 228.669 197.461 229.015 201.138C229.317 204.512 229.015 212.363 229.015 212.363L231.11 211.952C231.11 211.952 231.369 207.821 231.801 204.058C232.082 201.311 232.276 197.397 234.22 196.38C236.833 195.017 237.892 197.224 237.957 199.776C238.111 202.564 237.394 205.33 235.905 207.691C235.473 208.276 235.083 208.89 234.738 209.53C237.363 207.885 239.239 205.276 239.965 202.263C240.712 199.158 240.199 195.884 238.54 193.157C238.029 192.442 237.272 191.941 236.413 191.753C235.555 191.566 234.658 191.704 233.896 192.141C232.572 192.894 231.435 193.936 230.57 195.191C230.209 194.529 229.699 193.962 229.08 193.534C228.461 193.106 227.751 192.829 227.006 192.725C225.426 192.425 223.792 192.605 222.315 193.241C220.837 193.877 219.583 194.94 218.712 196.294C217.695 197.628 216.985 199.171 216.634 200.813C216.283 202.455 216.299 204.154 216.682 205.788C217.354 208.31 218.356 210.731 219.662 212.99L224.22 213.012Z" fill="white"/>
    <defs>
        <linearGradient id="paint0_linear" x1="226.963" y1="174.276" x2="223.194" y2="112.249" gradientUnits="userSpaceOnUse">
            <stop stop-opacity="0"/>
            <stop offset="1"/>
        </linearGradient>
        <linearGradient id="paint1_linear" x1="-492365" y1="16263.7" x2="-493189" y2="8517.5" gradientUnits="userSpaceOnUse">
            <stop stop-opacity="0"/>
            <stop offset="1"/>
        </linearGradient>
    </defs>
</svg>