<svg width="412" height="424" viewBox="0 0 412 424" fill="none" xmlns="http://www.w3.org/2000/svg">
    <g filter="url(#filter0_dd)">
        <path d="M206 415.308C317.562 415.308 408 324.869 408 213.308C408 101.746 317.562 11.3079 206 11.3079C94.4385 11.3079 4 101.746 4 213.308C4 324.869 94.4385 415.308 206 415.308Z" fill="#72B500"/>
        <path d="M274.834 72.0322C274.834 72.0322 293.072 130.266 306.645 152.564C320.217 174.862 321.222 223.455 307.044 242.583C307.044 242.583 321.222 206.493 299.775 174.553C299.775 174.553 306.451 228.121 288.793 253.629C288.793 253.629 298.125 225.13 290.082 196.478C290.082 196.478 285.532 246.939 249.185 259.377C212.837 271.815 196.713 160.891 196.713 160.891L191.415 22.7696L274.834 72.0322Z" fill="#5B3227"/>
        <path d="M168.381 179.812C184.97 189.17 148.236 206.183 108.434 257.843C100.545 268.052 80.6573 289.615 74.1225 301.796C62.0066 314.543 53.4095 299.798 56.0131 295.132C68.4512 272.743 144.627 166.368 168.381 179.812Z" fill="#F4C5A1"/>
        <path d="M124.662 339.522C99.1668 327.123 69.3282 312.455 61.9298 308.305C49.6592 299.424 58.4368 284.614 71.4936 291.549C100.481 307.016 162.827 345.052 162.827 345.052L163.858 358.521C163.858 358.521 145.748 349.795 124.662 339.535" fill="#F4C5A1"/>
        <path d="M139.858 358.134C140.124 353.98 141.146 349.909 142.874 346.122C150.402 328.979 172.352 335.565 162.801 369.709L162.956 369.902C161.512 376.592 149.719 400.153 147.489 399.547C147.076 399.446 146.69 399.258 146.355 398.995C146.021 398.733 145.747 398.402 145.55 398.025C145.354 397.649 145.24 397.234 145.217 396.81C145.193 396.386 145.26 395.961 145.413 395.565C142.333 401.391 139.381 406.082 138.376 405.812C136.172 405.232 135.128 402.86 137.474 399.29C138.621 397.55 141.057 390.718 143.287 383.939C138.634 392.394 132.486 401.984 131.21 401.442C129.25 400.708 128.632 398.284 131.081 394.907C132.46 393.064 135.979 385.047 138.982 377.791C134.483 385.898 129.302 393.979 128.052 393.515C125.899 392.729 125.087 390.28 127.755 386.942C130.088 384.145 137.396 365.159 139.858 358.134Z" fill="#F4C5A1"/>
        <path d="M157.452 176.731C157.452 176.731 136.661 187.275 111.643 217.062C86.6253 246.849 56.2196 291.587 56.2196 291.587C56.2196 291.587 48.0994 301.77 60.7695 309.516C73.4397 317.263 131.66 344.755 131.66 344.755C131.66 344.755 142.487 337.602 140.219 329.378L81.663 295.673C81.663 295.673 119.544 245.225 137.448 227.876C155.351 210.527 199.045 174.888 157.452 176.731Z" fill="#39449C"/>
        <path d="M140.208 404C140.208 404 152.544 415.308 206 415.308C258.941 415.308 274.875 402.972 274.875 402.972C261.247 383.933 251.167 350.474 246.04 327.629C240.652 303.359 272.437 190.565 240.588 174.479C240.588 174.479 227.015 167.377 189.276 170.2C151.536 173.023 149.693 188.567 149.693 188.567C150.079 204.034 130.359 260.889 138.299 284.089C142.408 295.886 145.007 308.155 146.032 320.604C147.971 347.903 144.904 377.039 140.208 404Z" fill="#F9F0EA"/>
        <path d="M195.024 27.6675C208.377 21.6224 256.363 45.9573 260.024 63.1386C263.685 80.32 280.789 118.704 252.948 160.826C231.191 193.745 162.891 190.471 163.78 170.828C164.669 151.185 163.922 41.7554 195.024 27.6675Z" fill="#5B3227"/>
        <path d="M157.452 176.731C164.387 187.146 187.188 209.973 187.188 209.973C187.188 209.973 241.98 188.963 240.936 177.453C240.936 177.453 246.968 132.199 250.19 90.5927C252.575 59.8132 247.612 20.1015 213.031 18.5419C178.449 16.9823 158.019 23.4914 157.104 56.4233C156.511 78.0772 157.452 176.731 157.452 176.731Z" fill="#F4C5A1"/>
        <path d="M208.66 73.4242C208.511 73.1439 208.434 72.8304 208.437 72.5126C208.44 72.1948 208.523 71.8829 208.679 71.6056C208.834 71.3283 209.057 71.0945 209.326 70.9258C209.595 70.7571 209.903 70.6589 210.22 70.6402C215.898 70.4471 221.573 71.1119 227.053 72.6122C231.84 74.1002 236.286 76.518 240.136 79.7271C241.294 80.8427 242.375 82.0355 243.371 83.2974C243.371 83.2974 233.807 77.871 226.692 76.6594C217.67 75.1385 214.989 74.9452 210.865 75.2029C210.503 75.2229 210.143 75.1387 209.828 74.9606C209.513 74.7824 209.255 74.5176 209.086 74.1976L208.66 73.4242Z" fill="#6B3D34"/>
        <path d="M182.74 73.9527C182.911 73.6728 183.02 73.3594 183.06 73.0338C183.099 72.7082 183.068 72.3779 182.97 72.0652C182.871 71.7525 182.706 71.4647 182.486 71.2211C182.266 70.9775 181.997 70.7838 181.696 70.6531C178.114 69.3665 174.308 68.8185 170.508 69.0419C166.904 69.496 163.482 70.887 160.584 73.0763C159.627 73.9369 158.731 74.8628 157.903 75.8474C157.903 75.8474 165.198 72.6767 170.173 73.0634C175.883 73.5145 177.907 73.9141 180.304 74.8421C180.757 75.0137 181.256 75.0185 181.712 74.8555C182.168 74.6925 182.551 74.3725 182.792 73.9527H182.74Z" fill="#6B3D34"/>
        <path d="M236.824 82.6013C235.251 82.988 224.837 80.6937 223.458 80.4359C216.923 79.2243 210.491 82.4466 209.099 87.6023C207.707 92.758 211.883 97.9137 218.431 99.2026C224.979 100.492 231.372 97.2048 232.79 92.0233C233.283 90.1673 233.077 88.1946 232.21 86.4809C233.987 85.5029 235.555 84.1846 236.824 82.6013Z" fill="#393936"/>
        <path d="M231.513 92.3843C230.224 97.3209 224.063 100.376 217.837 99.2285C211.612 98.0813 207.629 93.1319 208.944 88.1953C210.258 83.2587 216.394 80.1911 222.632 81.3511C228.87 82.5111 232.84 87.4477 231.513 92.3843Z" fill="white"/>
        <path d="M206.586 97.5271L206.019 103.572L230.959 105.892L231.488 100.169C231.488 100.169 229.786 96.8053 218.457 95.7484C207.127 94.6915 206.586 97.5271 206.586 97.5271Z" fill="#F4C5A1"/>
        <g opacity="0.05">
            <path opacity="0.05" d="M226.216 100.711C225.416 101.703 221.524 100.427 218.186 100.711C214.847 100.994 208.003 101.278 208.764 100.015C211.414 98.3801 214.495 97.5787 217.606 97.7142C220.718 97.8498 223.717 98.9161 226.216 100.775" fill="#141413"/>
        </g>
        <path d="M221.512 87.1255C222.005 87.6341 222.337 88.2777 222.465 88.9749C222.592 89.672 222.511 90.3914 222.229 91.0421C221.948 91.6927 221.481 92.2454 220.885 92.6301C220.29 93.0149 219.594 93.2145 218.885 93.2037C218.177 93.1929 217.487 92.9721 216.904 92.5694C216.321 92.1666 215.87 91.5999 215.609 90.941C215.348 90.2821 215.288 89.5605 215.437 88.8676C215.586 88.1746 215.937 87.5415 216.446 87.0481C217.128 86.3869 218.045 86.0236 218.995 86.0381C219.945 86.0526 220.85 86.4437 221.512 87.1255Z" fill="#381812"/>
        <path d="M218.933 87.7699C218.933 88.9171 217.309 89.8322 215.324 89.7935C213.339 89.7549 211.767 88.814 211.78 87.6668C211.793 86.5197 213.417 85.6045 215.389 85.6432C217.361 85.6819 218.959 86.6228 218.933 87.7699Z" fill="white"/>
        <path d="M182.509 87.4992C182.045 82.64 176.734 78.9279 170.638 79.1986C168.795 79.2759 161.19 81.0675 159.437 80.887C159.614 82.2537 160.261 83.5161 161.267 84.4574C160.606 85.684 160.324 87.0788 160.455 88.4659C160.919 93.3251 166.23 97.0372 172.326 96.7666C178.423 96.4959 182.973 92.3585 182.509 87.4992Z" fill="#393936"/>
        <path d="M161.641 89.0073C162.079 93.6087 167.119 97.1404 172.88 96.8826C178.642 96.6248 182.973 92.6936 182.534 88.0921C182.096 83.4907 177.069 79.9719 171.295 80.2297C165.521 80.4875 161.203 84.4187 161.641 89.0073Z" fill="white"/>
        <path d="M184.12 95.5809V101.097H161.357V95.9418C161.357 95.9418 163.175 93.0417 173.525 93.0546C183.875 93.0675 184.12 95.5809 184.12 95.5809Z" fill="#F4C5A1"/>
        <g opacity="0.05">
            <path opacity="0.05" d="M161.241 98.3649C162.04 99.2542 165.636 97.888 168.768 97.9266C171.9 97.9653 178.358 97.9266 177.597 96.831C175.03 95.4234 172.099 94.8172 169.184 95.0906C166.268 95.364 163.502 96.5044 161.241 98.3649Z" fill="#141413"/>
        </g>
        <path d="M175.2 87.8214C175.19 88.4867 174.983 89.1339 174.605 89.6814C174.227 90.2288 173.695 90.6518 173.076 90.8969C172.458 91.1421 171.78 91.1983 171.13 91.0585C170.479 90.9187 169.885 90.5891 169.422 90.1115C168.959 89.6339 168.647 89.0297 168.528 88.3752C168.408 87.7208 168.485 87.0455 168.749 86.4348C169.013 85.8241 169.452 85.3054 170.011 84.9442C170.569 84.583 171.223 84.3957 171.888 84.4058C172.33 84.4108 172.767 84.5033 173.173 84.6781C173.58 84.8528 173.948 85.1062 174.256 85.4237C174.563 85.7412 174.806 86.1166 174.968 86.5281C175.13 86.9396 175.209 87.3792 175.2 87.8214Z" fill="#381812"/>
        <path d="M171.024 86.0943C171.024 87.177 169.49 88.0277 167.634 88.0019C165.778 87.9762 164.283 87.0739 164.309 85.9912C164.335 84.9085 165.843 84.0578 167.699 84.0836C169.555 84.1094 171.05 85.0245 171.024 86.0943Z" fill="white"/>
        <g opacity="0.08">
            <path opacity="0.08" d="M204.523 6.6322C214.59 6.32286 258.581 55.1859 254.881 85.2565C245.459 79.6239 222.349 66.4124 216.214 45.7768C216.214 45.7768 197.872 52.5952 183.024 51.4094L182.392 48.5609C182.392 48.5609 162.595 50.2236 157.026 60.2385C157.026 58.7949 157.026 57.506 157.104 56.3717C158.019 23.4913 194.444 6.94154 204.523 6.6322Z" fill="#010001"/>
        </g>
        <path d="M234.8 13.9275C234.8 13.9275 231.372 32.3978 210.478 40.7758C197.879 45.8479 186.394 53.3353 176.67 62.8164L177.237 42.6318C177.237 42.6318 156.833 56.7327 148.571 69.3641C143.57 19.6375 200.038 -22.9614 234.8 13.9275Z" fill="#5B3227"/>
        <path d="M234.8 13.9275C234.8 13.9275 265.477 17.3561 273.726 45.3128C281.975 73.2695 270.826 101.072 270.826 101.072C270.826 101.072 222.349 59.3878 220.661 40.2989C220.072 34.9887 221.108 29.6248 223.633 24.9162C226.158 20.2076 230.052 16.3759 234.8 13.9275Z" fill="#5B3227"/>
        <path opacity="0.2" d="M239.376 17.6396C239.376 17.6396 276.665 29.7168 272.115 72.7282C269.743 52.0796 258.968 33.6738 239.376 17.6396Z" fill="#010001"/>
        <path opacity="0.2" d="M246.696 28.1959C248.423 31.5342 272.269 60.1741 268.879 80.8484C263.576 72.2434 259.31 63.0409 256.17 53.433C253.492 44.8481 250.329 36.4221 246.696 28.1959Z" fill="#010001"/>
        <g opacity="0.08">
            <path opacity="0.44" d="M194.805 197.986C199.612 198.205 236.862 178.381 239.633 152.796C240.149 147.988 245.253 124.93 247.47 122.468C244.892 150.218 240.935 177.453 240.935 177.453C241.979 188.963 187.187 209.973 187.187 209.973C187.187 209.973 159.037 179.683 156.614 167.773C167.093 178.613 191.879 197.857 194.805 197.986Z" fill="#010001"/>
        </g>
        <path d="M258.065 125.626C266.662 115.623 271.689 98.3777 259.702 94.4465C247.715 90.5153 243.706 123.383 243.706 123.383C243.706 123.383 248.372 136.891 258.065 125.626Z" fill="#F4C5A1"/>
        <path opacity="0.05" d="M249.558 113.574C249.558 113.574 250.757 111.241 252.768 111.473C254.778 111.705 257.395 112.84 260.501 106.666C260.495 106.038 260.335 105.421 260.036 104.868C259.738 104.316 259.309 103.844 258.787 103.495C257.073 102.541 255.487 102.361 253.941 104.565C252.394 106.769 249.146 110.584 249.558 113.574Z" fill="#141413"/>
        <path d="M247.65 124.362C247.617 125.053 247.79 125.737 248.147 126.329C248.504 126.921 249.028 127.394 249.653 127.688C250.279 127.982 250.978 128.083 251.661 127.98C252.344 127.877 252.982 127.573 253.492 127.108C254.003 126.642 254.364 126.036 254.53 125.365C254.696 124.694 254.659 123.989 254.424 123.339C254.189 122.689 253.766 122.123 253.21 121.714C252.653 121.304 251.988 121.068 251.298 121.037C250.373 120.995 249.47 121.322 248.786 121.945C248.102 122.569 247.693 123.438 247.65 124.362Z" fill="white"/>
        <path d="M170.109 118.537C170.702 118.537 185.654 117.596 188.734 118.743C193.722 120.599 196.133 119.361 199.922 118.743C203.08 118.214 222.865 117.57 222.865 117.57C222.865 117.57 213.172 125.303 194.715 124.672C178.913 124.014 170.109 118.537 170.109 118.537Z" fill="#FF8092"/>
        <path opacity="0.2" d="M233.95 14.8298L230.083 16.8663C230.083 16.8663 216.291 12.6515 207.308 17.0854C207.308 17.0854 225.211 16.4667 226.074 20.9522C226.938 25.4376 222.208 31.3667 222.813 31.0315C223.419 30.6964 231.978 23.9425 233.95 14.8298Z" fill="#010001"/>
        <path opacity="0.08" d="M255.448 230.209C253.309 267.871 243.784 312.223 246.942 326.401C252.048 349.238 261.69 370.817 275.298 389.855C275.298 389.855 274.666 393.644 270.142 398.362C268.003 395.951 265.811 393.206 263.569 390.125C232.171 346.779 238.512 316.09 240.188 302.401C241.863 288.713 241.386 187.004 241.386 187.004L255.448 230.209Z" fill="#010001"/>
        <path d="M185.653 222.308C185.639 222.799 185.769 223.283 186.029 223.7C186.29 224.117 186.667 224.448 187.115 224.65C187.563 224.852 188.06 224.918 188.545 224.838C189.03 224.758 189.48 224.536 189.839 224.2C190.198 223.865 190.449 223.431 190.562 222.952C190.674 222.474 190.642 221.973 190.47 221.513C190.298 221.052 189.994 220.653 189.595 220.366C189.197 220.079 188.722 219.915 188.231 219.897C187.902 219.88 187.573 219.929 187.264 220.042C186.954 220.155 186.67 220.329 186.43 220.554C186.189 220.779 185.996 221.05 185.863 221.352C185.729 221.653 185.658 221.978 185.653 222.308Z" fill="#C2B49A"/>
        <path d="M183.179 247.016C183.164 247.507 183.295 247.992 183.555 248.409C183.815 248.826 184.193 249.156 184.64 249.359C185.088 249.561 185.586 249.626 186.07 249.546C186.555 249.466 187.005 249.245 187.364 248.909C187.723 248.574 187.975 248.139 188.087 247.661C188.199 247.183 188.168 246.682 187.996 246.221C187.824 245.761 187.519 245.362 187.121 245.075C186.722 244.787 186.248 244.624 185.757 244.606C185.096 244.585 184.453 244.827 183.97 245.279C183.487 245.731 183.202 246.355 183.179 247.016Z" fill="#C2B49A"/>
        <path d="M181.941 269.534C181.928 270.025 182.061 270.508 182.323 270.923C182.585 271.338 182.963 271.667 183.411 271.867C183.859 272.068 184.357 272.131 184.841 272.05C185.325 271.968 185.774 271.745 186.131 271.409C186.489 271.073 186.739 270.639 186.85 270.161C186.962 269.683 186.929 269.182 186.757 268.723C186.584 268.263 186.28 267.865 185.882 267.578C185.483 267.291 185.009 267.129 184.519 267.111C184.19 267.1 183.863 267.155 183.556 267.271C183.248 267.387 182.967 267.563 182.727 267.788C182.488 268.013 182.295 268.283 182.16 268.583C182.025 268.882 181.951 269.205 181.941 269.534Z" fill="#C2B49A"/>
        <path d="M181.451 288.842C181.439 289.333 181.572 289.816 181.833 290.231C182.095 290.646 182.474 290.975 182.922 291.175C183.37 291.376 183.867 291.439 184.351 291.358C184.835 291.276 185.284 291.053 185.642 290.717C185.999 290.381 186.249 289.947 186.361 289.469C186.472 288.991 186.439 288.49 186.267 288.031C186.094 287.571 185.79 287.173 185.392 286.886C184.994 286.599 184.519 286.437 184.029 286.419C183.7 286.405 183.371 286.457 183.062 286.572C182.753 286.687 182.47 286.862 182.23 287.088C181.99 287.314 181.798 287.585 181.664 287.886C181.53 288.188 181.458 288.512 181.451 288.842Z" fill="#C2B49A"/>
        <path d="M180.974 307.209C180.959 307.7 181.09 308.185 181.35 308.602C181.61 309.018 181.988 309.349 182.436 309.551C182.883 309.754 183.381 309.819 183.866 309.739C184.351 309.659 184.801 309.437 185.16 309.102C185.519 308.766 185.77 308.332 185.882 307.854C185.995 307.375 185.963 306.874 185.791 306.414C185.619 305.954 185.315 305.555 184.916 305.267C184.518 304.98 184.043 304.817 183.552 304.799C183.224 304.787 182.897 304.84 182.59 304.954C182.283 305.069 182.001 305.244 181.762 305.468C181.522 305.692 181.329 305.961 181.194 306.26C181.059 306.559 180.984 306.881 180.974 307.209Z" fill="#C2B49A"/>
        <path d="M181.104 325.847C181.091 326.338 181.224 326.821 181.486 327.236C181.748 327.651 182.127 327.98 182.575 328.18C183.023 328.381 183.52 328.444 184.004 328.363C184.488 328.281 184.937 328.058 185.294 327.722C185.652 327.386 185.902 326.952 186.014 326.474C186.125 325.996 186.092 325.495 185.92 325.036C185.747 324.576 185.443 324.178 185.045 323.891C184.646 323.604 184.172 323.442 183.682 323.424C183.353 323.412 183.025 323.465 182.717 323.581C182.409 323.696 182.127 323.872 181.887 324.097C181.647 324.323 181.454 324.593 181.32 324.894C181.186 325.194 181.112 325.518 181.104 325.847Z" fill="#C2B49A"/>
        <path d="M181.104 344.343C181.091 344.834 181.224 345.317 181.486 345.732C181.748 346.147 182.127 346.476 182.575 346.676C183.023 346.877 183.52 346.94 184.004 346.859C184.488 346.777 184.937 346.554 185.294 346.218C185.652 345.882 185.902 345.448 186.014 344.97C186.125 344.492 186.092 343.991 185.92 343.532C185.747 343.072 185.443 342.674 185.045 342.387C184.646 342.1 184.172 341.938 183.682 341.92C183.352 341.906 183.024 341.958 182.715 342.073C182.406 342.188 182.123 342.364 181.883 342.589C181.643 342.815 181.45 343.086 181.317 343.387C181.183 343.689 181.11 344.014 181.104 344.343Z" fill="#C2B49A"/>
        <path d="M182.663 363.78C182.651 364.271 182.784 364.754 183.045 365.169C183.307 365.584 183.686 365.913 184.134 366.113C184.582 366.314 185.079 366.377 185.563 366.296C186.047 366.214 186.496 365.991 186.854 365.655C187.211 365.319 187.461 364.885 187.573 364.407C187.684 363.929 187.651 363.428 187.479 362.969C187.306 362.509 187.002 362.111 186.604 361.824C186.205 361.537 185.731 361.375 185.241 361.357C184.911 361.343 184.583 361.395 184.274 361.51C183.965 361.625 183.682 361.8 183.442 362.026C183.202 362.252 183.009 362.523 182.876 362.824C182.742 363.126 182.669 363.45 182.663 363.78Z" fill="#C2B49A"/>
        <path d="M185.486 381.477C185.469 382.137 185.714 382.776 186.169 383.255C186.623 383.733 187.249 384.012 187.909 384.029C188.569 384.046 189.208 383.8 189.687 383.346C190.165 382.891 190.444 382.265 190.461 381.606C190.469 381.279 190.413 380.954 190.296 380.649C190.179 380.344 190.003 380.065 189.778 379.828C189.553 379.591 189.283 379.4 188.985 379.268C188.686 379.135 188.364 379.062 188.038 379.054C187.711 379.045 187.386 379.101 187.081 379.218C186.776 379.336 186.497 379.512 186.26 379.737C186.023 379.962 185.833 380.231 185.7 380.53C185.567 380.828 185.494 381.15 185.486 381.477Z" fill="#C2B49A"/>
        <path d="M187.457 401.803C187.445 402.294 187.578 402.777 187.84 403.192C188.101 403.608 188.48 403.936 188.928 404.137C189.376 404.337 189.873 404.4 190.357 404.319C190.841 404.237 191.29 404.015 191.648 403.678C192.006 403.342 192.256 402.908 192.367 402.43C192.478 401.952 192.446 401.452 192.273 400.992C192.101 400.533 191.796 400.134 191.398 399.847C191 399.561 190.526 399.398 190.035 399.38C189.706 399.366 189.377 399.418 189.068 399.533C188.76 399.648 188.477 399.824 188.237 400.049C187.996 400.275 187.804 400.546 187.67 400.848C187.536 401.149 187.464 401.474 187.457 401.803Z" fill="#C2B49A"/>
        <path d="M240.935 177.453C240.935 177.453 214.873 201.35 189.12 209.212C189.12 209.212 192.897 227.064 208.312 217.448C223.728 207.833 240.071 186.695 240.935 177.453Z" fill="#C2B49A"/>
        <path d="M157.452 176.731L188.245 210.05C188.245 210.05 183.295 221.328 176.722 217.255C170.148 213.182 157.452 176.731 157.452 176.731Z" fill="#C2B49A"/>
        <path d="M243.088 174.656L242.804 175.352" stroke="#9C8346" stroke-width="1.57" stroke-linecap="round" stroke-linejoin="round"/>
        <path d="M156.369 179.696C156.369 179.438 156.369 179.193 156.369 178.935" stroke="#9C8346" stroke-width="1.57" stroke-linecap="round" stroke-linejoin="round"/>
        <path d="M257.265 331.209C257.265 331.209 249.957 294.694 250.975 280.039C251.994 265.383 260.281 213.93 260.281 213.93C260.281 213.93 266.958 173.973 246.103 174.682C246.103 174.682 238.434 172.452 234.039 190.149C229.644 207.846 217.489 306.874 217.489 306.874C217.489 306.874 214.641 321.993 248.037 330.938" fill="#39449C"/>
        <path d="M244.055 179.438C227.879 189.376 265.154 205.075 306.799 255.24C315.048 265.164 335.71 285.981 342.722 297.916C355.302 310.212 363.344 295.158 360.599 290.595C347.284 268.67 267.307 165.131 244.055 179.438Z" fill="#F4C5A1"/>
        <path d="M293.536 337.447C318.567 324.133 347.864 308.421 355.095 303.935C367.044 294.603 357.738 280.129 344.939 287.514C316.582 303.987 255.603 344.304 255.603 344.304L255.062 357.786C255.062 357.786 272.849 348.416 293.536 337.396" fill="#F4C5A1"/>
        <path d="M278.971 356.601C278.558 352.458 277.392 348.427 275.53 344.704C267.396 327.845 245.691 335.217 256.466 369L256.325 369.193C258 375.831 270.657 398.955 272.836 398.284C273.246 398.172 273.628 397.973 273.954 397.7C274.281 397.427 274.544 397.087 274.728 396.703C274.911 396.319 275.01 395.9 275.017 395.474C275.024 395.049 274.94 394.627 274.769 394.237C278.056 399.947 281.214 404.548 282.18 404.226C284.359 403.556 285.312 401.159 282.838 397.679C281.626 395.977 278.971 389.236 276.47 382.534C281.433 390.821 287.916 400.127 289.179 399.599C291.113 398.787 291.757 396.338 289.063 393.064C287.62 391.273 283.817 383.384 280.556 376.244C285.351 384.171 290.868 392.059 292.054 391.556C294.167 390.693 294.889 388.205 292.054 384.983C289.733 382.237 281.742 363.522 278.971 356.601Z" fill="#F4C5A1"/>
        <path d="M268.003 183.73C268.003 183.73 252.407 172.13 241.58 179.348C230.753 186.566 249.313 200.512 249.313 200.512L335.143 290.492L280.428 325.447C280.428 325.447 283.083 337.589 291.886 341.714L354.412 306.023C354.412 306.023 370.163 299.579 355.984 281.005C341.806 262.432 341.471 250.948 268.003 183.73Z" fill="#39449C"/>
        <path d="M157.452 176.731C155.891 176.951 154.422 177.601 153.21 178.61C151.999 179.619 151.093 180.946 150.595 182.441C148.52 187.829 137.126 240.726 137.126 240.726C137.126 240.726 132.718 263.373 133.71 273.053C134.702 282.732 139.794 313.757 134.999 324.61C134.999 324.61 162.53 324.468 160.416 302.388C158.303 280.309 157.452 176.731 157.452 176.731Z" fill="#39449C"/>
        <path d="M243.088 174.656L252.11 189.917L239.891 196.155L245.82 200.022C245.82 200.022 226.486 237.001 224.514 252.275C224.527 252.262 229 181.952 243.088 174.656Z" fill="#5665AB"/>
        <path d="M157.452 176.731L149.138 192.92L153.559 196.787L146.65 202.922L157.297 255.588C157.297 255.588 160.274 186.385 157.452 176.731Z" fill="#5665AB"/>
        <path d="M244.505 225.839C244.464 227.583 243.906 229.276 242.902 230.703C241.899 232.13 240.494 233.227 238.867 233.855C237.239 234.483 235.462 234.614 233.76 234.232C232.057 233.85 230.507 232.971 229.305 231.707C228.102 230.443 227.302 228.851 227.004 227.132C226.707 225.413 226.927 223.644 227.635 222.05C228.344 220.456 229.509 219.108 230.984 218.176C232.459 217.245 234.177 216.772 235.921 216.817C237.078 216.844 238.218 217.098 239.276 217.567C240.334 218.035 241.289 218.708 242.087 219.546C242.884 220.384 243.508 221.371 243.923 222.451C244.339 223.531 244.536 224.683 244.505 225.839Z" fill="#80BC00"/>
        <path d="M236.772 231.511C235.818 229.957 235.293 228.178 235.251 226.355C235.215 226.04 235.244 225.721 235.337 225.418C235.429 225.114 235.583 224.833 235.788 224.592C235.994 224.35 236.246 224.153 236.531 224.013C236.815 223.873 237.125 223.793 237.442 223.777C237.97 223.777 239.053 224.112 239.169 225.917C239.272 227.515 239.066 231.227 239.066 231.227L240.007 231.008C240.007 231.008 240.174 229.062 240.419 227.283C240.587 225.994 240.729 224.138 241.708 223.687C242.997 223.068 243.435 224.125 243.435 225.337C243.473 226.657 243.104 227.958 242.378 229.062C242.162 229.329 241.968 229.613 241.798 229.912C243.065 229.166 243.991 227.954 244.376 226.535C244.762 225.077 244.558 223.526 243.809 222.217C243.577 221.87 243.224 221.623 242.818 221.522C242.413 221.422 241.985 221.477 241.618 221.676C240.982 222.018 240.432 222.498 240.007 223.081C239.848 222.763 239.615 222.487 239.328 222.276C239.041 222.065 238.708 221.926 238.357 221.869C237.613 221.714 236.839 221.782 236.133 222.064C235.427 222.346 234.82 222.83 234.387 223.455C233.885 224.073 233.527 224.795 233.34 225.569C233.153 226.342 233.141 227.148 233.304 227.927C233.578 229.127 234.012 230.284 234.593 231.369L236.772 231.511Z" fill="white"/>
        <path d="M249.584 16.3636C249.584 16.3636 273.906 35.1561 265.966 80.3973L250.705 81.3382C250.705 81.3382 264.458 42.4901 233.949 13.7729L249.584 16.3636Z" fill="#5B5B5F"/>
        <path d="M276.986 98.9707C276.873 103.37 275.332 107.613 272.596 111.06C269.861 114.507 266.079 116.971 261.82 118.08C257.562 119.19 253.058 118.885 248.988 117.211C244.918 115.537 241.503 112.585 239.258 108.8C237.012 105.016 236.058 100.604 236.539 96.2295C237.02 91.8553 238.911 87.7561 241.925 84.5502C244.94 81.3444 248.915 79.2056 253.252 78.4565C257.588 77.7074 262.05 78.3886 265.966 80.3973C269.366 82.1401 272.205 84.8084 274.155 88.0945C276.105 91.3807 277.086 95.1509 276.986 98.9707Z" fill="#9DA0A1"/>
        <path d="M248.952 109.05C248.952 109.05 248.669 132.148 207.9 130.292" stroke="#9DA0A1" stroke-width="1.63" stroke-miterlimit="10" stroke-linecap="round"/>
        <path d="M199.38 129.877L199.345 131.243C199.315 132.403 200.231 133.367 201.391 133.397L211.467 133.658C212.627 133.687 213.591 132.771 213.621 131.612L213.657 130.246C213.687 129.086 212.771 128.121 211.611 128.091L201.535 127.831C200.375 127.801 199.41 128.717 199.38 129.877Z" fill="#5B5B5F"/>
    </g>
    <defs>
        <filter id="filter0_dd" x="0" y="0" width="412" height="423.308" filterUnits="userSpaceOnUse" color-interpolation-filters="sRGB">
            <feFlood flood-opacity="0" result="BackgroundImageFix"/>
            <feColorMatrix in="SourceAlpha" type="matrix" values="0 0 0 0 0 0 0 0 0 0 0 0 0 0 0 0 0 0 127 0"/>
            <feOffset dy="4"/>
            <feGaussianBlur stdDeviation="2"/>
            <feColorMatrix type="matrix" values="0 0 0 0 0 0 0 0 0 0 0 0 0 0 0 0 0 0 0.25 0"/>
            <feBlend mode="normal" in2="BackgroundImageFix" result="effect1_dropShadow"/>
            <feColorMatrix in="SourceAlpha" type="matrix" values="0 0 0 0 0 0 0 0 0 0 0 0 0 0 0 0 0 0 127 0"/>
            <feOffset dy="4"/>
            <feGaussianBlur stdDeviation="2"/>
            <feColorMatrix type="matrix" values="0 0 0 0 0 0 0 0 0 0 0 0 0 0 0 0 0 0 0.25 0"/>
            <feBlend mode="normal" in2="effect1_dropShadow" result="effect2_dropShadow"/>
            <feBlend mode="normal" in="SourceGraphic" in2="effect2_dropShadow" result="shape"/>
        </filter>
    </defs>
</svg>