<svg width="592" height="850" viewBox="0 0 592 850" fill="none" xmlns="http://www.w3.org/2000/svg">
    <ellipse cx="296" cy="284" rx="296" ry="284" fill="#72B500"/>
    <path d="M374.616 448.519C334.509 411.603 297.614 423.32 254.625 443.314C254.832 444.977 250.475 449.055 254.747 463.834C255.827 480.624 256.841 641.705 256.841 641.705L280.853 815.038C284.684 819.736 299.361 820.676 305.315 816.842L283.717 643.359C283.717 643.359 286.6 554.616 287.078 509.685C289.295 509.845 318.283 512.081 326.856 511.893C330.443 543.125 331.035 584.41 331.993 640.916L350.069 819.201C355.14 822.959 369.348 823.297 375.479 819.332L361.863 639.178C361.863 639.178 366.991 528.627 365.178 487.812C368.859 479.76 375.583 471.877 374.616 448.519Z" fill="#232833"/>
    <g style="mix-blend-mode:multiply" opacity="0.2">
        <g style="mix-blend-mode:multiply" opacity="0.2">
            <path d="M297.267 808.668C296.084 807.371 275.998 645.041 275.669 643.237C275.341 641.433 279.688 506.951 279.425 505.307C279.162 503.663 320.161 507.853 328.546 506.801C336.932 505.749 333.242 506.989 333.242 514.177C333.242 521.364 337.74 637.844 337.74 642.044C337.74 646.243 353.609 808.959 352.764 809.288C352.605 809.344 351.328 809.711 349.233 810.162L332.077 640.944C331.138 584.438 330.528 543.153 326.941 511.922C318.367 512.11 289.379 509.873 287.163 509.714C286.684 554.663 283.811 643.387 283.811 643.387L305.099 815.038C302.192 813.308 299.554 811.162 297.267 808.668Z" fill="#4D4D4D"/>
        </g>
        <path style="mix-blend-mode:multiply" opacity="0.29" d="M297.267 808.668C296.084 807.371 275.998 645.041 275.669 643.237C275.341 641.433 279.688 506.951 279.425 505.307C279.162 503.663 320.161 507.853 328.546 506.801C336.932 505.749 333.242 506.989 333.242 514.177C333.242 521.364 337.74 637.844 337.74 642.044C337.74 646.243 353.609 808.959 352.764 809.288C352.605 809.344 351.328 809.711 349.233 810.162L332.077 640.944C331.138 584.438 330.528 543.153 326.941 511.922C318.367 512.11 289.379 509.873 287.163 509.714C286.684 554.663 283.811 643.387 283.811 643.387L305.099 815.038C302.192 813.308 299.554 811.162 297.267 808.668Z" fill="url(#paint0_linear)"/>
    </g>
    <path d="M208.733 408.211C219.589 398.252 209.456 384.947 197.634 393.093C171.397 411.237 115.496 455.021 115.496 455.021L116.013 468.175" fill="#F9CA9E"/>
    <path d="M120.727 474.263C124.108 472.046 127.058 469.231 129.432 465.957C140.306 451.385 124.22 435.976 99.9463 460.423H99.7116C94.7534 464.839 80.4988 486.121 82.0483 487.671C83.1939 488.846 84.8654 488.996 86.4054 487.521C82.9591 492.914 80.4143 497.668 81.1186 498.382C82.6774 499.97 85.1752 499.716 87.0627 496.024C88.0018 494.211 92.5842 488.883 97.2513 483.744C92.3307 491.739 87.2223 501.502 88.2459 502.347C89.8047 503.644 92.1805 503.071 93.8238 499.322C94.7628 497.274 99.8148 490.452 104.501 484.439C99.8054 492.125 95.4671 500.412 96.4625 501.22C98.1527 502.657 100.613 502.159 102.153 498.316C103.486 495.037 115.994 479.76 120.727 474.263Z" fill="#F9CA9E"/>
    <g opacity="0.2">
        <path opacity="0.2" d="M231.543 311.726L221.937 311.942C240.361 298.788 276.401 241.887 289.144 211.793C289.559 212.179 289.954 212.587 290.327 213.014C309.202 234.221 231.543 311.726 231.543 311.726Z" fill="url(#paint1_linear)"/>
    </g>
    <path d="M361.646 449.664L368.474 448.722L370.995 467.021L364.167 467.963L361.646 449.664Z" fill="#4C4C4C"/>
    <path d="M338.355 453.847L345.238 453.482L346.214 471.928L339.331 472.293L338.355 453.847Z" fill="#4C4C4C"/>
    <path d="M251.254 459.193C251.254 459.193 268.053 472.196 319.465 472.196C370.878 472.196 374.587 462.303 374.587 462.303C374.587 462.303 363.178 414.685 367.892 347.289C374.277 256.084 380.766 229.278 355.684 212.516C355.684 212.516 329.175 236.814 295.172 236.814C263.546 236.814 265.01 215.589 265.01 215.589C246.427 212.488 261.743 407.826 251.254 459.193Z" fill="#8CADAD"/>
    <path d="M262.476 227.117C268.993 239.332 295.642 250.24 303.324 250.24C311.005 250.24 357.966 225.276 356.511 214.489C351.75 179.462 357.516 171.072 361.497 142.339C365.479 113.607 361.816 105.405 361.816 105.405C363.15 78.1569 333.063 58.2003 303.174 63.5371C273.528 67.0981 258.56 83.2682 259.104 114.274C259.461 134.625 262.147 170.536 263.236 210.346C263.358 214.546 262.476 227.117 262.476 227.117Z" fill="#F9CA9E"/>
    <path style="mix-blend-mode:overlay" opacity="0.5" d="M303.323 250.24C311.014 250.24 357.975 225.276 356.51 214.536C352.754 186.725 355.571 175.704 358.914 157.955L358.839 151.275C358.839 151.275 350.557 174.896 350.557 186.631C350.557 220.146 311.643 244.885 302.403 244.885C294.515 244.885 267.132 231.374 262.785 224.261C262.616 226.009 262.475 227.174 262.475 227.174C268.992 239.313 295.642 250.24 303.323 250.24Z" fill="url(#paint2_linear)"/>
    <path d="M310.385 111.596C313.534 110.171 316.981 109.526 320.432 109.717C326.47 109.971 341.176 122.871 339.805 124.036C339.147 124.591 328.001 118.765 324.217 117.6C320.432 116.435 310.807 116.943 309.99 116.416C309.173 115.89 307.934 112.865 310.385 111.596Z" fill="#754C24"/>
    <path d="M282.345 110.619C280.552 109.276 277.124 108.9 274.128 108.74C269.537 108.543 259.273 119.479 260.353 120.72C260.879 121.321 269.743 115.862 272.56 114.979C275.377 114.096 282.232 115.843 282.833 115.383C283.434 114.922 284.261 112.076 282.345 110.619Z" fill="#754C24"/>
    <path d="M322.741 148.709C316.569 148.471 311.742 143.705 311.96 138.063C312.177 132.421 317.357 128.041 323.529 128.28C329.702 128.518 334.529 133.284 334.311 138.926C334.094 144.568 328.914 148.948 322.741 148.709Z" fill="#57453F"/>
    <path d="M322.115 148.873C316.161 148.643 311.504 144.043 311.714 138.598C311.924 133.154 316.921 128.926 322.876 129.156C328.83 129.386 333.487 133.986 333.277 139.431C333.067 144.875 328.07 149.103 322.115 148.873Z" fill="white"/>
    <path d="M263.903 138.142C263.767 132.778 268.444 128.308 274.35 128.159C280.255 128.009 285.152 132.236 285.288 137.6C285.423 142.964 280.746 147.434 274.841 147.583C268.936 147.733 264.039 143.506 263.903 138.142Z" fill="#57453F"/>
    <path d="M264.876 138.624C264.745 133.447 269.258 129.133 274.956 128.988C280.654 128.844 285.379 132.924 285.51 138.101C285.641 143.278 281.128 147.592 275.43 147.736C269.733 147.881 265.007 143.801 264.876 138.624Z" fill="white"/>
    <g style="mix-blend-mode:overlay" opacity="0.5">
        <path style="mix-blend-mode:overlay" opacity="0.5" d="M275.246 84.5365C275.246 84.5365 291.21 93.3497 304.121 90.9914L305.521 87.1203C305.521 87.1203 339.561 80.7782 343.42 103.882L353.909 81.3326C343.195 67.6899 323.146 59.9572 303.201 63.5276C280.814 66.2148 266.795 76.0991 261.508 94.1108C263.696 90.7847 268.447 84.6962 275.246 84.5365Z" fill="url(#paint3_linear)"/>
    </g>
    <path d="M363.46 74.7368C361.065 63.7813 335.139 49.0676 305.502 51.2098C290.027 52.3373 255.057 65.9987 237.666 66.6471L251.442 96.9202C251.442 96.9202 248.334 106.626 259.105 114.227C259.105 114.227 257.63 83.7849 276.636 79.9233C276.636 79.9233 288.844 89.272 303.052 89.272L299.511 83.7849C299.511 83.7849 333.007 78.3072 339.768 94.4209C346.529 110.535 339.768 162.193 339.768 162.193C339.768 162.193 355.037 132.934 359.957 145.28C361.094 148.099 355.534 169.756 356.098 175.628C356.915 183.399 357.976 191.056 364.361 195.491C360.624 181.012 389.124 121.359 363.46 74.7368Z" fill="#754C24"/>
    <path opacity="0.1" d="M343.317 70.5744C343.317 70.5744 337.683 54.9586 313.268 55.4096C296.816 55.7103 290.506 60.0511 281.97 62.5974C281.97 62.5974 302.037 59.4592 317.653 60.3518C327.307 60.9155 343.317 70.5744 343.317 70.5744Z" fill="black"/>
    <path opacity="0.1" d="M338.378 75.62C338.8 75.4978 316.686 66.2806 310.028 65.5289C303.37 64.7773 271.575 66.6 267.621 66.6C267.621 66.6 304.338 67.8873 309.493 68.3195C314.648 68.7517 337.307 75.9488 338.378 75.62Z" fill="black"/>
    <path opacity="0.1" d="M346.539 76.0522C346.539 76.0522 341.299 81.4548 339.374 82.338C337.449 83.2212 346.219 79.679 346.886 79.9985C347.553 80.3179 358.586 84.3299 362.85 105.367C362.85 105.367 358.981 80.938 350.717 78.4012C350.691 77.2091 350.798 76.0178 351.037 74.8496C351.037 74.8496 348.229 74.361 346.539 76.0522Z" fill="black"/>
    <path d="M341.665 143.702C341.665 143.702 339.12 163.057 337.186 164.983C335.251 166.909 326.096 155.672 312.245 160.445C294.872 166.439 279.895 161.384 269.706 159.505C266.748 158.979 261.161 170.527 261.161 170.527C261.161 170.527 259.114 195.134 261.753 200.593C265.426 208.02 271.549 213.95 279.087 217.383C280.299 215.692 283.191 214.809 283.191 214.809C285.125 218.68 292.3 222.222 296.403 223.002C296.403 223.002 311.972 215.692 312.611 215.053C313.249 214.414 316.16 218.379 316.16 218.379C321.879 215.006 324.743 212.582 329.476 206.775L332.152 209.463C332.152 209.463 346.416 195.557 346.172 180.561C345.844 161.234 346.632 145.59 348.257 147.084C348.238 147.084 342.848 144.679 341.665 143.702Z" fill="#754C24"/>
    <g style="mix-blend-mode:multiply" opacity="0.58">
        <g style="mix-blend-mode:multiply" opacity="0.58">
            <path d="M285.162 191C289.5 193.819 301.98 193.227 305.773 190.737C305.773 190.737 296.815 198.535 285.162 191Z" fill="#DAB99B"/>
        </g>
    </g>
    <path d="M270.589 168.337C272.842 164.297 278.101 169.672 286.862 170.668C295.623 171.663 331.626 161.394 328.621 173.336C325.804 184.705 298.628 191.667 289.679 189.675C273.18 185.992 269.565 170.16 270.589 168.337Z" fill="#333333"/>
    <path d="M324.959 179.03C320.423 178.945 313.691 179.03 310.207 179.838C302.694 181.717 301.83 182.797 300.816 183.267C300.816 182.741 302.262 181.755 304.619 180.89C303.971 180.204 300.92 179.951 296.619 180.561C290.402 181.444 283.867 184.32 280.73 185.879C283.442 187.682 286.468 188.957 289.651 189.638C297.013 191.31 316.573 186.922 324.959 179.03Z" fill="#F86C6C"/>
    <path d="M287.538 168.948C282.279 168.356 278.411 166.289 275.584 165.603C275.496 165.889 275.517 166.198 275.644 166.469C275.77 166.74 275.994 166.954 276.27 167.069C279.444 168.874 282.964 169.985 286.599 170.329C290.712 170.564 314.31 170.705 318.01 169.615C318.996 169.427 319.929 169.023 320.741 168.432C321.553 167.841 322.223 167.077 322.705 166.195C313.183 165.096 293.304 169.549 287.651 168.911" fill="#E1807E"/>
    <path d="M275.641 166.477C275.764 167.459 275.949 168.431 276.195 169.39C276.358 169.88 276.632 170.327 276.995 170.695C277.358 171.063 277.801 171.343 278.289 171.513C279.265 171.782 280.289 171.824 281.284 171.635C282.223 171.447 282.589 173.045 283.913 173.702C285.416 174.445 287.876 174.285 288.872 174.191C289.867 174.097 291.689 175.131 293.257 175.131C295.698 175.018 297.821 173.806 298.168 173.956C301.051 175.168 304.272 174.135 305.38 172.847C308.15 174.097 312.197 173.073 313.324 171.701C314.864 172.143 318.198 171.851 319.071 171.147C319.944 170.442 321.409 167.886 318.376 167.06C317.184 166.731 314.226 168.272 313.399 168.563C312.573 168.854 309.897 167.774 308.807 167.821C306.46 167.915 305.755 169.258 304.92 169.418C304.084 169.578 303.154 168.591 301.802 168.478C298.046 168.196 297.652 169.69 296.797 169.728C295.534 169.593 294.28 169.386 293.041 169.108C291.163 168.845 288.89 170.047 288.252 170.047C287.613 170.047 286.458 169.108 284.683 168.864C283.613 168.732 282.026 169.39 281.491 169.127C280.373 168.563 279.453 166.308 275.641 166.486" fill="white"/>
    <path opacity="0.2" d="M367.92 347.289C363.225 414.685 373.789 462.979 373.789 462.979C373.789 462.979 370.117 472.873 318.677 472.873C267.236 472.873 250.437 459.869 250.437 459.869C252.062 451.901 253.883 426.345 254.494 413.294C256.531 438.259 276.749 447.692 305.502 447.692H306.657C313.728 447.662 320.713 446.139 327.154 443.221C333.596 440.304 339.349 436.058 344.038 430.762C348.726 425.466 352.244 419.239 354.361 412.489C356.478 405.738 357.147 398.617 356.323 391.59C352.999 363.205 349.421 330.809 349.064 320.257C348.642 307.827 354.952 264.907 359.816 234.023C360.596 229.072 370.474 229.964 371.911 236.579C376.202 256.404 372.052 288.434 367.92 347.289Z" fill="url(#paint4_linear)"/>
    <path d="M375.882 804.318C375.882 804.318 377.685 807.916 377.235 810.312C376.784 812.708 376.483 812.858 377.084 816.156C377.685 819.454 380.38 827.845 377.836 830.25C375.291 832.655 352.078 829.649 348.181 827.253C344.284 824.857 346.688 816.917 346.688 814.221C346.688 811.524 346.387 803.575 347.88 803.886C349.373 804.196 354.773 808.583 360.614 807.935C366.455 807.287 373.929 802.223 375.882 804.318Z" fill="#333333"/>
    <path d="M306.995 801.621C306.995 801.621 308.797 805.22 308.347 807.616C307.896 810.011 307.596 810.162 308.196 813.46C308.797 816.758 309.765 818.101 307.257 820.497C304.75 822.893 284.721 821.85 280.833 819.454C276.945 817.058 277.837 814.211 277.837 811.515C277.837 808.818 277.537 800.869 279.03 801.179C280.523 801.49 285.922 805.877 291.763 805.229C297.604 804.581 305.051 799.526 306.995 801.621Z" fill="#333333"/>
    <path d="M278.711 806.131C279.19 806.131 297.398 805.896 297.313 809.495C297.229 813.093 297.107 817.105 297.464 817.133C297.821 817.162 301.718 817.133 304.29 817.133C304.895 817.132 305.481 817.343 305.946 817.729C306.411 818.116 306.725 818.653 306.835 819.248C307.427 822.489 308.46 828.437 308.319 829.968L308.178 833.294C308.178 833.294 298.083 837.475 295.971 838.218C293.858 838.96 260.851 843.028 247.836 844.071C240.434 844.755 232.971 844.289 225.712 842.69C225.712 842.69 227.073 832.787 231.102 830.541C235.13 828.296 251.704 827.572 251.704 827.572L273.518 819.116L278.711 806.131Z" fill="#E33E3E"/>
    <path d="M225.684 842.699C232.944 844.298 240.406 844.764 247.808 844.081C260.823 843.038 293.821 838.969 295.943 838.227C298.065 837.485 308.151 833.304 308.151 833.304C308.704 832.523 309.005 831.592 309.015 830.635C309.015 829.057 307.869 829.48 307.287 829.696C306.47 829.959 296.319 834.91 294.356 835.22C289.417 836.01 257.339 840.416 251.79 840.726C249.371 840.882 246.944 840.803 244.54 840.491C244.034 840.427 243.549 840.247 243.122 839.967C242.696 839.686 242.339 839.312 242.079 838.872C241.819 838.433 241.663 837.94 241.622 837.43C241.582 836.921 241.658 836.41 241.845 835.934V835.859C242.953 833.322 247.404 831.415 247.404 831.415C248.982 829.62 248.907 828.502 247.818 827.835C244.568 827.018 233.187 828.174 229.976 830.504C226.285 833.172 225.684 842.699 225.684 842.699Z" fill="white"/>
    <path d="M299.182 830.616C296.486 830.616 294.299 827.996 294.299 824.763C294.299 821.53 296.486 818.909 299.182 818.909C301.879 818.909 304.065 821.53 304.065 824.763C304.065 827.996 301.879 830.616 299.182 830.616Z" fill="white"/>
    <path d="M251.742 827.328C251.742 827.328 257.376 826.454 259.752 828.484C262.128 830.513 262.09 828.361 260.109 827.131C258.509 826.149 256.595 825.813 254.756 826.191C253.665 826.279 252.62 826.673 251.742 827.328Z" fill="white"/>
    <path d="M257.33 825.261C257.33 825.261 262.964 824.396 265.349 826.417C267.734 828.437 267.687 826.294 265.706 825.064C264.101 824.085 262.186 823.75 260.344 824.124C259.254 824.22 258.212 824.614 257.33 825.261Z" fill="white"/>
    <path d="M263.124 822.884C263.124 822.884 268.758 822.01 271.143 824.039C273.528 826.069 273.481 823.917 271.5 822.686C269.896 821.704 267.98 821.368 266.138 821.747C265.047 821.839 264.004 822.233 263.124 822.884Z" fill="white"/>
    <path d="M269.949 820.422C269.949 820.422 275.537 819.548 277.959 821.578C280.382 823.607 280.298 821.456 278.316 820.225C276.716 819.243 274.802 818.907 272.964 819.285C271.872 819.373 270.828 819.767 269.949 820.422Z" fill="white"/>
    <path d="M273.519 817.763C273.519 817.763 278.824 815.79 281.604 817.293C284.383 818.797 283.867 816.701 281.679 815.893C279.914 815.251 277.971 815.301 276.242 816.034C275.192 816.347 274.249 816.946 273.519 817.763Z" fill="white"/>
    <path d="M345.101 827.713C343.189 830.014 341.916 832.778 341.411 835.728C341.044 838.998 340.058 843.244 340.199 844.269C340.34 845.293 347.139 848.356 354.952 849.229C362.764 850.103 376.887 849.126 379.442 846.862C381.996 844.597 379.911 835.784 380.672 833.473C381.432 831.161 372.427 822.856 371.056 821.456C370.324 820.695 370.493 817.04 370.821 813.789C370.883 813.15 370.799 812.505 370.576 811.903C370.352 811.301 369.995 810.758 369.531 810.315C369.067 809.872 368.509 809.539 367.898 809.344C367.287 809.148 366.639 809.093 366.004 809.185C366.004 809.185 352.36 809.861 350.172 811.816C347.984 813.77 350.839 820.826 350.839 820.826L345.101 827.713Z" fill="#E33E3E"/>
    <path d="M340.2 844.269C340.34 845.302 347.139 848.356 354.952 849.229C362.765 850.103 376.888 849.126 379.442 846.862C380.381 846.054 380.653 844.428 380.729 842.558C378.85 845.434 371.93 846.185 371.451 846.213C370.972 846.242 370.061 837.654 368.418 836.085C366.774 834.516 358.483 834.281 355.393 835.587C352.304 836.893 351.787 845.405 351.421 845.631C351.055 845.856 349.825 845.885 347.271 845.509C345.637 845.274 342.472 843.367 340.416 842.032C340.264 842.768 340.192 843.518 340.2 844.269Z" fill="white"/>
    <path d="M351.215 831.518C350.961 832.637 353.609 831.011 360.896 831.293C368.183 831.575 369.16 833.257 370.475 832.458C371.986 831.518 367.657 830.043 360.68 829.743C355.497 829.508 351.609 829.79 351.215 831.518Z" fill="white"/>
    <path d="M352.905 827.478C352.68 828.418 354.99 827.046 361.357 827.29C367.723 827.535 368.578 829 369.723 828.296C371.048 827.488 367.263 826.191 361.169 825.928C356.643 825.731 353.272 825.975 352.905 827.478Z" fill="white"/>
    <path d="M354.923 824.706C354.745 825.496 356.623 824.349 361.778 824.547C366.934 824.744 367.629 825.937 368.558 825.364C369.629 824.706 366.568 823.663 361.628 823.485C357.966 823.335 355.205 823.485 354.923 824.706Z" fill="white"/>
    <path d="M356.464 821.869C356.323 822.489 357.807 821.587 361.882 821.747C365.958 821.907 366.512 822.837 367.244 822.395C367.976 821.954 365.666 821.042 361.76 820.873C358.858 820.741 356.689 820.901 356.464 821.869Z" fill="white"/>
    <path d="M356.088 818.994C355.938 819.623 357.422 818.712 361.497 818.872C365.572 819.031 366.126 819.971 366.859 819.52C367.591 819.069 365.291 818.167 361.384 817.998C358.492 817.876 356.313 818.026 356.088 818.994Z" fill="white"/>
    <path d="M365.253 136.176C363.375 146.596 364.915 162.014 366.812 174.445C364.746 184.085 363.328 191.517 364.351 195.51C357.919 191.075 356.905 183.418 356.088 175.647C355.524 169.775 361.083 148.155 359.947 145.299C358.557 141.804 356.332 141.635 353.872 143.194C355.252 137.341 356.266 133.479 356.266 133.479C356.266 133.479 368.849 116.097 365.253 136.176Z" fill="url(#paint5_linear)"/>
    <path d="M290.523 55.6353C290.523 55.6353 254.436 57.8809 248.445 54.4326L259.826 62.9734L290.523 55.6353Z" fill="#754C24"/>
    <path d="M316.986 143.739C314.87 143.739 313.155 142.023 313.155 139.906C313.155 137.789 314.87 136.072 316.986 136.072C319.102 136.072 320.817 137.789 320.817 139.906C320.817 142.023 319.102 143.739 316.986 143.739Z" fill="#4D4D4D"/>
    <path d="M270.993 143.908C268.877 143.908 267.162 142.192 267.162 140.075C267.162 137.958 268.877 136.241 270.993 136.241C273.109 136.241 274.824 137.958 274.824 140.075C274.824 142.192 273.109 143.908 270.993 143.908Z" fill="#4D4D4D"/>
    <path d="M321.466 141.391C319.315 141.308 317.61 140.228 317.659 138.978C317.707 137.728 319.489 136.783 321.64 136.866C323.791 136.949 325.495 138.029 325.447 139.279C325.399 140.529 323.616 141.474 321.466 141.391Z" fill="white"/>
    <path d="M275.472 141.561C273.322 141.478 271.617 140.398 271.666 139.148C271.714 137.899 273.496 136.953 275.647 137.036C277.798 137.119 279.502 138.199 279.454 139.449C279.406 140.699 277.623 141.644 275.472 141.561Z" fill="white"/>
    <path d="M309.812 146.436L309.098 154.732L333.288 156.818C333.288 156.818 333.485 149.677 333.936 149.302C334.387 148.926 331.231 145.421 322.057 144.604C312.883 143.786 309.812 146.436 309.812 146.436Z" fill="#F9CA9E"/>
    <path opacity="0.05" d="M312.668 148.249C312.668 148.249 320.039 145.985 324.941 147.761C329.843 149.536 335.477 151.444 330.04 150.983C324.603 150.523 311.869 150.044 312.668 148.249Z" fill="black"/>
    <path d="M287.228 145.647L287.801 153.595L264.625 155.296C264.625 155.296 264.531 148.456 264.099 148.08C263.667 147.704 266.738 144.397 275.537 143.758C284.336 143.119 287.228 145.647 287.228 145.647Z" fill="#F9CA9E"/>
    <path opacity="0.05" d="M284.469 147.347C284.469 147.347 277.445 145.083 272.731 146.718C268.017 148.353 262.608 150.11 267.819 149.743C273.031 149.377 285.21 149.067 284.469 147.347Z" fill="black"/>
    <path d="M406.43 410.203C396.035 440.373 376.907 508.755 376.907 508.755L385.086 519.006C385.086 519.006 419.765 430.169 424.328 415.803C427.174 401.352 411.135 396.636 406.43 410.203Z" fill="#F9CA9E"/>
    <path d="M392.532 521.186C393.935 517.395 394.632 513.379 394.589 509.338C394.711 491.147 372.634 488.272 367.554 522.36L367.347 522.464C365.967 528.965 367.085 554.559 369.226 554.916C370.841 555.18 372.268 554.325 372.644 552.211C373.066 558.6 373.827 563.936 374.822 564.096C377.01 564.453 378.869 562.771 378.203 558.675C377.883 556.673 378.428 549.645 379.142 542.702C379.912 552.098 381.583 562.95 382.898 563.034C384.926 563.157 386.504 561.277 385.602 557.284C385.114 555.104 385.17 546.592 385.386 538.963C386.166 547.935 387.556 557.162 388.851 557.256C391.068 557.406 392.758 555.555 391.669 551.534C390.927 548.161 391.978 528.42 392.532 521.186Z" fill="#F9CA9E"/>
    <path d="M356.435 163.997C366.473 155.39 370.098 137.04 358.689 133.855C349.693 131.346 347.091 146.802 346.397 153.492C346.087 156.231 346.462 159.004 347.486 161.563C348.866 164.917 351.533 168.009 356.435 163.997Z" fill="#F9CA9E"/>
    <path opacity="0.05" d="M349.976 152.242C349.976 152.242 350.999 149.997 352.887 150.128C354.774 150.26 357.291 151.228 359.948 145.299C359.915 144.708 359.739 144.134 359.435 143.627C359.13 143.119 358.707 142.693 358.202 142.386C356.549 141.559 355.065 141.447 353.704 143.598C352.342 145.75 349.459 149.461 349.976 152.242Z" fill="#1C1C1B"/>
    <path d="M259.244 216.491C266.325 218.116 266.419 241.981 266.193 254.525C265.968 267.068 260.831 297.595 256.803 305.581C254.061 311.04 224.556 394.475 220.725 400.403C216.894 406.332 206.029 417.203 195.972 422.126C185.915 427.05 166.195 439.912 165.575 440.777C164.956 441.641 161.584 427.369 151.865 424.804C151.865 424.804 194.545 388.489 195.287 386.855C196.028 385.22 210.734 340.618 211.091 333.487C211.447 326.355 222.904 281.81 227.167 269.276C231.43 256.742 252.155 214.865 259.244 216.491Z" fill="#232833"/>
    <g opacity="0.3">
        <path opacity="0.3" d="M208.537 406.06C208.903 400.131 197.184 393.319 205.016 393.751C212.847 394.183 215.787 400.525 218.162 391.797C220.538 383.068 239.347 326.562 241.986 320.661C244.624 314.761 254.757 297.924 250.287 293.724C245.817 289.524 258.325 280.288 258.353 271.174C258.381 262.06 264.523 240.412 262.203 235.47C259.884 230.528 260.259 222.316 260.259 222.316C261.53 222.599 262.784 222.954 264.016 223.378C266.363 231.787 266.363 245.852 266.203 254.515C265.969 267.059 260.842 297.585 256.813 305.572C254.071 311.031 224.567 394.465 220.735 400.394C216.904 406.323 206.039 417.194 195.982 422.117C185.925 427.04 166.205 439.903 165.586 440.767C165.172 441.341 163.52 435.13 159.566 430.216C169.032 425.236 168.243 429.493 177.042 424.447C188.151 418.105 208.18 411.998 208.537 406.06Z" fill="black"/>
    </g>
    <path d="M368.296 203.722C366.709 203.722 326.5 225.839 319.626 253.35C312.752 280.861 314.339 326.891 314.339 344.884C314.339 362.877 313.306 496.024 313.306 496.024L385.199 488.62C385.199 488.62 379.414 448.444 380.504 417.72C381.593 386.996 395.81 326.731 385.762 301.334C375.715 275.938 368.296 203.722 368.296 203.722Z" fill="#232833"/>
    <g opacity="0.3">
        <path opacity="0.3" d="M372.803 477.505C379.376 474.573 375.976 459.258 373.601 446.818C371.225 434.378 373.338 399.999 373.601 398.411C373.864 396.824 373.338 372.225 376.239 356.356C379.141 340.487 364.614 326.459 359.055 315.353C353.496 304.247 364.614 277.77 364.614 277.77C364.614 277.77 378.869 300.658 389.029 317.805C391.151 347.214 381.348 392.473 380.484 417.701C379.413 448.444 385.198 488.62 385.198 488.62L314.545 495.892C318.742 493.393 325.926 489.005 330.734 485.444C337.908 480.155 366.229 480.436 372.803 477.505Z" fill="black"/>
    </g>
    <path d="M261.894 217.853C261.894 217.853 274.843 249.442 271.284 261.074C267.725 272.705 258.945 346.068 257.199 353.152C255.452 360.236 258.607 490.706 258.607 490.706C258.607 490.706 233.929 478.717 231.112 470.975C228.295 463.233 237.451 335.187 237.808 333.797C238.164 332.406 248.484 236.579 249.189 231.637C249.893 226.694 261.894 217.853 261.894 217.853Z" fill="#232833"/>
    <path d="M247.695 234.455L247.583 236.626L246.465 236.372L247.695 234.455Z" fill="#303030"/>
    <path d="M364.981 226.704C348.961 276.313 392.89 323.922 411.623 392.887C418.638 409.536 432.282 398.524 431.437 393.065C427.549 367.011 399.97 254.891 364.981 226.704Z" fill="#FD667B"/>
    <path d="M358.792 215.983C365.488 213.165 379.508 232.463 386.644 242.78C393.781 253.097 407.444 280.88 408.853 289.656C409.81 295.725 434.582 380.691 434.967 387.747C435.352 394.803 432.854 409.968 427.568 419.843C422.281 429.718 413.783 449.29 413.783 450.323C413.783 451.357 402.721 441.773 393.34 445.381C393.34 445.381 406.73 393.357 406.383 391.6C406.035 389.843 391.931 345.09 388.015 339.068C384.1 333.045 364.399 290.398 360.52 277.704C356.642 265.01 352.097 218.802 358.792 215.983Z" fill="#232833"/>
    <g opacity="0.3">
        <path opacity="0.3" d="M389.198 330.433C394.485 337.837 404.974 374.339 404.974 374.339C404.974 374.339 409.998 390.65 413.604 391.449C417.21 392.248 413.163 392.943 410.787 396.213C408.411 399.482 399.284 430.517 399.284 430.517C398.996 435.117 398.183 439.669 396.861 444.084C395.647 444.456 394.455 444.899 393.293 445.409C393.293 445.409 406.73 393.385 406.383 391.628C406.035 389.871 391.931 345.09 388.015 339.068C387.649 338.513 387.151 337.64 386.541 336.493C387.518 331.683 388.41 329.324 389.198 330.433Z" fill="black"/>
    </g>
    <path d="M400.927 485.877C400.927 485.877 386.043 478.557 382.662 479.215C382.662 479.215 379.564 488.836 379.695 489.55C379.827 490.264 395.039 496.55 396.466 495.845C397.894 495.141 400.016 489.945 400.927 485.877Z" fill="#4D4D4D"/>
    <defs>
        <linearGradient id="paint0_linear" x1="337.965" y1="748.986" x2="279.992" y2="513.168" gradientUnits="userSpaceOnUse">
            <stop stop-opacity="0"/>
            <stop offset="1"/>
        </linearGradient>
        <linearGradient id="paint1_linear" x1="299.881" y1="247.676" x2="210.455" y2="270.711" gradientUnits="userSpaceOnUse">
            <stop/>
            <stop offset="1" stop-opacity="0"/>
        </linearGradient>
        <linearGradient id="paint2_linear" x1="-1.91987e+06" y1="23527.9" x2="-1.92059e+06" y2="12000.7" gradientUnits="userSpaceOnUse">
            <stop stop-opacity="0"/>
            <stop offset="1"/>
        </linearGradient>
        <linearGradient id="paint3_linear" x1="-1.31559e+06" y1="1478.68" x2="-1.30649e+06" y2="1478.68" gradientUnits="userSpaceOnUse">
            <stop stop-opacity="0"/>
            <stop offset="1"/>
        </linearGradient>
        <linearGradient id="paint4_linear" x1="3934.96" y1="77725.9" x2="-33677.6" y2="77725.9" gradientUnits="userSpaceOnUse">
            <stop/>
            <stop offset="1" stop-opacity="0"/>
        </linearGradient>
        <linearGradient id="paint5_linear" x1="-519.576" y1="8206.11" x2="-949.311" y2="8206.11" gradientUnits="userSpaceOnUse">
            <stop stop-opacity="0"/>
            <stop offset="1"/>
        </linearGradient>
    </defs>
</svg>